<svg width="25" height="25" viewBox="0 0 100 100" fill="none" xmlns="http://www.w3.org/2000/svg">
<path d="M81.5001 25.5H18.5C13.81 25.5 10 21.69 10 17C10 12.31 13.81 8.5 18.5 8.5H81.5001C86.1901 8.5 90.0001 12.31 90.0001 17C90.0001 21.69 86.1901 25.5 81.5001 25.5Z" fill="white" />
<path fill-rule="evenodd" clip-rule="evenodd" d="M18.5 10C14.6384 10 11.5 13.1384 11.5 17C11.5 20.8616 14.6384 24 18.5 24H81.5C85.3616 24 88.5 20.8616 88.5 17C88.5 13.1384 85.3616 10 81.5 10H18.5ZM8.5 17C8.5 11.4816 12.9816 7 18.5 7H81.5C87.0184 7 91.5 11.4816 91.5 17C91.5 22.5184 87.0184 27 81.5 27H18.5C12.9816 27 8.5 22.5184 8.5 17Z" fill="black" />
<path d="M93.5 20.5H91.5C90.95 20.5 90.5 20.05 90.5 19.5V14.5C90.5 13.95 90.95 13.5 91.5 13.5H93.5C94.05 13.5 94.5 13.95 94.5 14.5V19.5C94.5 20.05 94.05 20.5 93.5 20.5Z" fill="white" />
<path fill-rule="evenodd" clip-rule="evenodd" d="M89.5 14.5C89.5 13.3977 90.3977 12.5 91.5 12.5H93.5C94.6023 12.5 95.5 13.3977 95.5 14.5V19.5C95.5 20.6023 94.6023 21.5 93.5 21.5H91.5C90.3977 21.5 89.5 20.6023 89.5 19.5V14.5ZM93.5 14.5H91.5V19.5H93.5V14.5Z" fill="black" />
<path d="M93.5 55H91.5C90.95 55 90.5 54.55 90.5 54V38C90.5 37.45 90.95 37 91.5 37H93.5C94.05 37 94.5 37.45 94.5 38V54C94.5 54.55 94.05 55 93.5 55Z" fill="white" />
<path fill-rule="evenodd" clip-rule="evenodd" d="M89.5 38C89.5 36.8977 90.3977 36 91.5 36H93.5C94.6023 36 95.5 36.8977 95.5 38V54C95.5 55.1023 94.6023 56 93.5 56H91.5C90.3977 56 89.5 55.1023 89.5 54V38ZM93.5 38H91.5V54H93.5V38Z" fill="black" />
<path d="M8.5 20.5H6.5C5.95 20.5 5.5 20.05 5.5 19.5V14.5C5.5 13.95 5.95 13.5 6.5 13.5H8.5C9.05 13.5 9.5 13.95 9.5 14.5V19.5C9.5 20.05 9.05 20.5 8.5 20.5Z" fill="white" />
<path fill-rule="evenodd" clip-rule="evenodd" d="M4.5 14.5C4.5 13.3977 5.39771 12.5 6.5 12.5H8.5C9.60228 12.5 10.5 13.3977 10.5 14.5V19.5C10.5 20.6023 9.60228 21.5 8.5 21.5H6.5C5.39771 21.5 4.5 20.6023 4.5 19.5V14.5ZM8.5 14.5H6.5V19.5H8.5V14.5Z" fill="black" />
<path d="M83 42.5H17C15.9 42.5 15 41.6 15 40.5V35.5C15 34.4 15.9 33.5 17 33.5H83C84.1 33.5 85 34.4 85 35.5V40.5C85 41.6 84.1 42.5 83 42.5Z" fill="white" />
<path fill-rule="evenodd" clip-rule="evenodd" d="M17 35C16.7284 35 16.5 35.2284 16.5 35.5V40.5C16.5 40.7716 16.7284 41 17 41H83C83.2716 41 83.5 40.7716 83.5 40.5V35.5C83.5 35.2284 83.2716 35 83 35H17ZM13.5 35.5C13.5 33.5716 15.0716 32 17 32H83C84.9284 32 86.5 33.5716 86.5 35.5V40.5C86.5 42.4284 84.9284 44 83 44H17C15.0716 44 13.5 42.4284 13.5 40.5V35.5Z" fill="black" />
<path d="M83 57.4999H17C15.9 57.4999 15 56.5999 15 55.5V50.5C15 49.4 15.9 48.5 17 48.5H83C84.1 48.5 85 49.4 85 50.5V55.5C85 56.5999 84.1 57.4999 83 57.4999Z" fill="white" />
<path fill-rule="evenodd" clip-rule="evenodd" d="M17 50C16.7284 50 16.5 50.2284 16.5 50.5V55.5C16.5 55.7716 16.7284 56 17 56H83C83.2716 56 83.5 55.7716 83.5 55.5V50.5C83.5 50.2284 83.2716 50 83 50H17ZM13.5 50.5C13.5 48.5716 15.0716 47 17 47H83C84.9284 47 86.5 48.5716 86.5 50.5V55.5C86.5 57.4284 84.9284 59 83 59H17C15.0716 59 13.5 57.4284 13.5 55.5V50.5Z" fill="black" />
<path d="M83 72.5H17C15.9 72.5 15 71.6 15 70.5V65.5C15 64.4 15.9 63.5 17 63.5H83C84.1 63.5 85 64.4 85 65.5V70.5C85 71.6 84.1 72.5 83 72.5Z" fill="white" />
<path fill-rule="evenodd" clip-rule="evenodd" d="M17 65C16.7284 65 16.5 65.2284 16.5 65.5V70.5C16.5 70.7716 16.7284 71 17 71H83C83.2716 71 83.5 70.7716 83.5 70.5V65.5C83.5 65.2284 83.2716 65 83 65H17ZM13.5 65.5C13.5 63.5716 15.0716 62 17 62H83C84.9284 62 86.5 63.5716 86.5 65.5V70.5C86.5 72.4284 84.9284 74 83 74H17C15.0716 74 13.5 72.4284 13.5 70.5V65.5Z" fill="black" />
<path d="M83 87.5H17C15.9 87.5 15 86.6 15 85.5V80.5C15 79.4 15.9 78.5 17 78.5H83C84.1 78.5 85 79.4 85 80.5V85.5C85 86.6 84.1 87.5 83 87.5Z" fill="white" />
<path fill-rule="evenodd" clip-rule="evenodd" d="M17 80C16.7284 80 16.5 80.2284 16.5 80.5V85.5C16.5 85.7716 16.7284 86 17 86H83C83.2716 86 83.5 85.7716 83.5 85.5V80.5C83.5 80.2284 83.2716 80 83 80H17ZM13.5 80.5C13.5 78.5716 15.0716 77 17 77H83C84.9284 77 86.5 78.5716 86.5 80.5V85.5C86.5 87.4284 84.9284 89 83 89H17C15.0716 89 13.5 87.4284 13.5 85.5V80.5Z" fill="black" />
<path fill-rule="evenodd" clip-rule="evenodd" d="M91.5 38V21H93.4999V38H91.5Z" fill="black" />
<path fill-rule="evenodd" clip-rule="evenodd" d="M20 33V26H22V33H20Z" fill="black" />
<path fill-rule="evenodd" clip-rule="evenodd" d="M78 33V26H80V33H78Z" fill="black" />
<path fill-rule="evenodd" clip-rule="evenodd" d="M78 50.0001V43H80V50.0001H78Z" fill="black" />
<path fill-rule="evenodd" clip-rule="evenodd" d="M78 63.9999V57H80V63.9999H78Z" fill="black" />
<path fill-rule="evenodd" clip-rule="evenodd" d="M78 80V73H80V80H78Z" fill="black" />
<path fill-rule="evenodd" clip-rule="evenodd" d="M20 50.0001V43H22V50.0001H20Z" fill="black" />
<path fill-rule="evenodd" clip-rule="evenodd" d="M20 65.0001V58H22V65.0001H20Z" fill="black" />
<path fill-rule="evenodd" clip-rule="evenodd" d="M20 78V71H22V78H20Z" fill="black" />
<path d="M21 39C21.5523 39 22 38.5523 22 38C22 37.4477 21.5523 37 21 37C20.4477 37 20 37.4477 20 38C20 38.5523 20.4477 39 21 39Z" fill="black" />
<path fill-rule="evenodd" clip-rule="evenodd" d="M19 38C19 36.8954 19.8954 36 21 36C22.1046 36 23 36.8954 23 38C23 39.1046 22.1046 40 21 40C19.8954 40 19 39.1046 19 38Z" fill="black" />
<path d="M21 54C21.5523 54 22 53.5523 22 53C22 52.4477 21.5523 52 21 52C20.4477 52 20 52.4477 20 53C20 53.5523 20.4477 54 21 54Z" fill="black" />
<path fill-rule="evenodd" clip-rule="evenodd" d="M19 53C19 51.8954 19.8954 51 21 51C22.1046 51 23 51.8954 23 53C23 54.1046 22.1046 55 21 55C19.8954 55 19 54.1046 19 53Z" fill="black" />
<path d="M21 69C21.5523 69 22 68.5523 22 68C22 67.4477 21.5523 67 21 67C20.4477 67 20 67.4477 20 68C20 68.5523 20.4477 69 21 69Z" fill="black" />
<path fill-rule="evenodd" clip-rule="evenodd" d="M19 68C19 66.8954 19.8954 66 21 66C22.1046 66 23 66.8954 23 68C23 69.1045 22.1046 69.9999 21 69.9999C19.8954 69.9999 19 69.1045 19 68Z" fill="black" />
<path d="M21 84C21.5523 84 22 83.5523 22 83C22 82.4477 21.5523 82 21 82C20.4477 82 20 82.4477 20 83C20 83.5523 20.4477 84 21 84Z" fill="black" />
<path fill-rule="evenodd" clip-rule="evenodd" d="M19 83C19 81.8954 19.8954 81 21 81C22.1046 81 23 81.8954 23 83C23 84.1046 22.1046 85 21 85C19.8954 85 19 84.1046 19 83Z" fill="black" />
<path d="M79 39C79.5523 39 80 38.5523 80 38C80 37.4477 79.5523 37 79 37C78.4477 37 78 37.4477 78 38C78 38.5523 78.4477 39 79 39Z" fill="black" />
<path fill-rule="evenodd" clip-rule="evenodd" d="M77 38C77 36.8954 77.8954 36 78.9999 36C80.1045 36 80.9999 36.8954 80.9999 38C80.9999 39.1046 80.1045 40 78.9999 40C77.8954 40 77 39.1046 77 38Z" fill="black" />
<path d="M79 54C79.5523 54 80 53.5523 80 53C80 52.4477 79.5523 52 79 52C78.4477 52 78 52.4477 78 53C78 53.5523 78.4477 54 79 54Z" fill="black" />
<path fill-rule="evenodd" clip-rule="evenodd" d="M77 53C77 51.8954 77.8954 51 78.9999 51C80.1045 51 80.9999 51.8954 80.9999 53C80.9999 54.1046 80.1045 55 78.9999 55C77.8954 55 77 54.1046 77 53Z" fill="black" />
<path d="M79 69C79.5523 69 80 68.5523 80 68C80 67.4477 79.5523 67 79 67C78.4477 67 78 67.4477 78 68C78 68.5523 78.4477 69 79 69Z" fill="black" />
<path fill-rule="evenodd" clip-rule="evenodd" d="M77 68C77 66.8954 77.8954 66 78.9999 66C80.1045 66 80.9999 66.8954 80.9999 68C80.9999 69.1045 80.1045 69.9999 78.9999 69.9999C77.8954 69.9999 77 69.1045 77 68Z" fill="black" />
<path d="M79 84C79.5523 84 80 83.5523 80 83C80 82.4477 79.5523 82 79 82C78.4477 82 78 82.4477 78 83C78 83.5523 78.4477 84 79 84Z" fill="black" />
<path fill-rule="evenodd" clip-rule="evenodd" d="M77 83C77 81.8954 77.8954 81 78.9999 81C80.1045 81 80.9999 81.8954 80.9999 83C80.9999 84.1046 80.1045 85 78.9999 85C77.8954 85 77 84.1046 77 83Z" fill="black" />
</svg>
