<svg width="25" height="25" viewBox="0 0 100 100" fill="none" xmlns="http://www.w3.org/2000/svg">
<path d="M93 84H7V92H93V84Z" fill="white"/>
<path fill-rule="evenodd" clip-rule="evenodd" d="M5.5 82.5H94.5V93.5H5.5V82.5ZM8.5 85.5V90.5H91.5V85.5H8.5Z" fill="black"/>
<path d="M88 20H12V44H88V20Z" fill="white"/>
<path fill-rule="evenodd" clip-rule="evenodd" d="M10.5 18.5H89.5V45.5H10.5V18.5ZM13.5 21.5V42.5H86.5V21.5H13.5Z" fill="black"/>
<path fill-rule="evenodd" clip-rule="evenodd" d="M48.5 83V45H51.5V83H48.5Z" fill="black"/>
<path fill-rule="evenodd" clip-rule="evenodd" d="M12.1992 83V45H15.1992V83H12.1992Z" fill="black"/>
<path fill-rule="evenodd" clip-rule="evenodd" d="M84.1992 83V45H87.1992V83H84.1992Z" fill="black"/>
<path d="M84.6004 20.5996H15.4004C10.7004 20.5996 6.90039 16.7996 6.90039 12.0996C6.90039 7.39961 10.7004 3.59961 15.4004 3.59961H84.7004C89.4004 3.59961 93.2004 7.39961 93.2004 12.0996C93.1004 16.7996 89.3004 20.5996 84.6004 20.5996Z" fill="white"/>
<path fill-rule="evenodd" clip-rule="evenodd" d="M15.3996 5.15867C11.56 5.15867 8.4575 8.2612 8.4575 12.1008C8.4575 15.9404 11.56 19.043 15.3996 19.043H84.5996C88.4275 19.043 91.5507 15.9486 91.6418 12.0845C91.633 8.25241 88.5338 5.15867 84.6996 5.15867H15.3996ZM5.3418 12.1008C5.3418 6.54044 9.83927 2.04297 15.3996 2.04297H84.6996C90.26 2.04297 94.7575 6.54044 94.7575 12.1008V12.1174L94.7571 12.134C94.6395 17.662 90.1662 22.1587 84.5996 22.1587H15.3996C9.83927 22.1587 5.3418 17.6612 5.3418 12.1008Z" fill="black"/>
<path d="M96.7 15.9004H94.5C93.9 15.9004 93.5 15.4004 93.5 14.9004V9.90039C93.5 9.30039 94 8.90039 94.5 8.90039H96.7C97.3 8.90039 97.7 9.40039 97.7 9.90039V14.8004C97.7 15.4004 97.3 15.9004 96.7 15.9004Z" fill="white"/>
<path fill-rule="evenodd" clip-rule="evenodd" d="M94.5381 9.93853V14.8613H96.654C96.6577 14.8467 96.6609 14.8265 96.6609 14.7999V9.93853H94.5381ZM92.4609 9.89993C92.4609 8.66 93.4946 7.86133 94.4995 7.86133H96.6995C97.9395 7.86133 98.7381 8.89498 98.7381 9.89993V14.7999C98.7381 15.8389 97.9991 16.9385 96.6995 16.9385H94.4995C93.2596 16.9385 92.4609 15.9049 92.4609 14.8999V9.89993Z" fill="black"/>
<path d="M96.7 50.4004H94.5C93.9 50.4004 93.5 49.9004 93.5 49.4004V33.4004C93.5 32.8004 94 32.4004 94.5 32.4004H96.7C97.3 32.4004 97.7 32.9004 97.7 33.4004V49.3004C97.7 49.9004 97.3 50.4004 96.7 50.4004Z" fill="white"/>
<path fill-rule="evenodd" clip-rule="evenodd" d="M94.5381 33.4385V49.3613H96.654C96.6577 49.3467 96.6609 49.3265 96.6609 49.2999V33.4385H94.5381ZM92.4609 33.3999C92.4609 32.16 93.4946 31.3613 94.4995 31.3613H96.6995C97.9395 31.3613 98.7381 32.395 98.7381 33.3999V49.2999C98.7381 50.3389 97.9991 51.4385 96.6995 51.4385H94.4995C93.2596 51.4385 92.4609 50.4049 92.4609 49.3999V33.3999Z" fill="black"/>
<path d="M6.00078 15.9004H3.80078C3.20078 15.9004 2.80078 15.4004 2.80078 14.9004V9.90039C2.80078 9.30039 3.30078 8.90039 3.80078 8.90039H6.00078C6.60078 8.90039 7.00078 9.40039 7.00078 9.90039V14.8004C7.00078 15.4004 6.60078 15.9004 6.00078 15.9004Z" fill="white"/>
<path fill-rule="evenodd" clip-rule="evenodd" d="M3.83892 9.93853V14.8613H5.95475C5.95852 14.8467 5.96172 14.8265 5.96172 14.7999V9.93853H3.83892ZM1.76172 9.89993C1.76172 8.66 2.79537 7.86133 3.80032 7.86133H6.00032C7.24025 7.86133 8.03892 8.89498 8.03892 9.89993V14.7999C8.03892 15.8389 7.29985 16.9385 6.00032 16.9385H3.80032C2.56039 16.9385 1.76172 15.9049 1.76172 14.8999V9.89993Z" fill="black"/>
<path fill-rule="evenodd" clip-rule="evenodd" d="M94.5605 33.4004V16.4004H96.6377V33.4004H94.5605Z" fill="black"/>
</svg>
