<svg width="25" height="25" viewBox="0 0 100 100" fill="none" xmlns="http://www.w3.org/2000/svg">
<path d="M32 23.5V71.02C32 74.87 28.88 78 25.02 78H24.5V23.5H32Z" fill="white"/>
<path fill-rule="evenodd" clip-rule="evenodd" d="M23 22H33.5V71.02C33.5 75.697 29.7098 79.5 25.02 79.5H23V22ZM26 25V76.4127C28.5613 75.9505 30.5 73.7092 30.5 71.02V25H26Z" fill="black"/>
<path d="M18 23.5V79C18 83.14 14.64 86.5 10.5 86.5V23.5H18Z" fill="white"/>
<path fill-rule="evenodd" clip-rule="evenodd" d="M9 22H19.5V79C19.5 83.9684 15.4684 88 10.5 88H9V22ZM12 25V84.8107C14.5867 84.1439 16.5 81.7937 16.5 79V25H12Z" fill="black"/>
<path d="M46 23.5V79C46 83.14 42.64 86.5 38.5 86.5V23.5H46Z" fill="white"/>
<path fill-rule="evenodd" clip-rule="evenodd" d="M37 22H47.5V79C47.5 83.9684 43.4684 88 38.5 88H37V22ZM40 25V84.8107C42.5867 84.1439 44.5 81.7937 44.5 79V25H40Z" fill="black"/>
<path d="M60 23.5V71.02C60 74.87 56.88 78 53.02 78H52.5V23.5H60Z" fill="white"/>
<path fill-rule="evenodd" clip-rule="evenodd" d="M51 22H61.5V71.02C61.5 75.697 57.7098 79.5 53.02 79.5H51V22ZM54 25V76.4127C56.5613 75.9505 58.5 73.7092 58.5 71.02V25H54Z" fill="black"/>
<path d="M75 23.5V79C75 83.14 71.64 86.5 67.5 86.5V23.5H75Z" fill="white"/>
<path fill-rule="evenodd" clip-rule="evenodd" d="M66 22H76.5V79C76.5 83.9684 72.4684 88 67.5 88H66V22ZM69 25V84.8107C71.5867 84.1439 73.5 81.7937 73.5 79V25H69Z" fill="black"/>
<path d="M90 23.5V71.02C90 74.87 86.88 78 83.02 78H82.5V23.5H90Z" fill="white"/>
<path fill-rule="evenodd" clip-rule="evenodd" d="M81 22H91.5V71.02C91.5 75.697 87.7098 79.5 83.02 79.5H81V22ZM84 25V76.4127C86.5613 75.9505 88.5 73.7092 88.5 71.02V25H84Z" fill="black"/>
<path d="M84.6496 23.5H15.3496C10.6596 23.5 6.84961 19.69 6.84961 15C6.84961 10.31 10.6596 6.5 15.3496 6.5H84.6396C89.3296 6.5 93.1396 10.31 93.1396 15C93.1496 19.69 89.3396 23.5 84.6496 23.5Z" fill="white"/>
<path fill-rule="evenodd" clip-rule="evenodd" d="M15.3489 8.05711C11.5192 8.05711 8.40672 11.1696 8.40672 14.9993C8.40672 18.8289 11.5192 21.9414 15.3489 21.9414H84.6489C88.4791 21.9414 91.5892 18.829 91.581 15.0026L91.581 14.9993C91.581 11.1696 88.4685 8.05711 84.6389 8.05711H15.3489ZM5.29102 14.9993C5.29102 9.44888 9.79849 4.94141 15.3489 4.94141H84.6389C90.1892 4.94141 94.6967 9.44888 94.6967 14.9993H93.1389L94.6967 14.9959C94.6967 14.997 94.6967 14.9981 94.6967 14.9993C94.7068 20.5513 90.1975 25.0571 84.6489 25.0571H15.3489C9.79849 25.0571 5.29102 20.5496 5.29102 14.9993Z" fill="black"/>
<path d="M96.9597 18.75H94.7197C94.1497 18.75 93.6797 18.29 93.6797 17.71V12.79C93.6797 12.22 94.1397 11.75 94.7197 11.75H96.9597C97.5297 11.75 97.9997 12.21 97.9997 12.79V17.71C97.9997 18.29 97.5397 18.75 96.9597 18.75Z" fill="white"/>
<path fill-rule="evenodd" clip-rule="evenodd" d="M94.7179 12.7886C94.7178 12.7888 94.7178 12.7891 94.7178 12.7895V17.7095C94.7178 17.7099 94.7178 17.7103 94.7178 17.7106C94.718 17.7107 94.7182 17.7108 94.7183 17.7109C94.7185 17.7109 94.7188 17.7109 94.7192 17.7109H96.9592C96.9597 17.7109 96.9602 17.7109 96.9606 17.7109C96.9606 17.7105 96.9606 17.71 96.9606 17.7095V12.7895C96.9606 12.7891 96.9606 12.7888 96.9606 12.7885C96.9604 12.7884 96.9603 12.7882 96.9602 12.7882C96.9599 12.7881 96.9596 12.7881 96.9592 12.7881H94.7192C94.7188 12.7881 94.7185 12.7881 94.7182 12.7882C94.718 12.7883 94.7179 12.7885 94.7179 12.7886ZM92.6406 12.7895C92.6406 11.6525 93.5591 10.7109 94.7192 10.7109H96.9592C98.0963 10.7109 99.0378 11.6294 99.0378 12.7895V17.7095C99.0378 18.8631 98.1128 19.7881 96.9592 19.7881H94.7192C93.5821 19.7881 92.6406 18.8696 92.6406 17.7095V12.7895Z" fill="black"/>
<path d="M96.9597 53.25H94.7197C94.1497 53.25 93.6797 52.79 93.6797 52.21V36.29C93.6797 35.72 94.1397 35.25 94.7197 35.25H96.9597C97.5297 35.25 97.9997 35.71 97.9997 36.29V52.21C97.9997 52.79 97.5397 53.25 96.9597 53.25Z" fill="white"/>
<path fill-rule="evenodd" clip-rule="evenodd" d="M94.7179 36.2886C94.7178 36.2888 94.7178 36.2891 94.7178 36.2895V52.2095C94.7178 52.2099 94.7178 52.2103 94.7178 52.2106C94.718 52.2107 94.7182 52.2108 94.7183 52.2109C94.7184 52.2109 94.7185 52.2109 94.7187 52.2109C94.7189 52.2109 94.719 52.2109 94.7192 52.2109H96.9592C96.9597 52.2109 96.9602 52.2109 96.9606 52.2109C96.9606 52.2105 96.9606 52.21 96.9606 52.2095V36.2895C96.9606 36.2891 96.9606 36.2888 96.9606 36.2885C96.9604 36.2884 96.9603 36.2882 96.9602 36.2882C96.9599 36.2881 96.9596 36.2881 96.9592 36.2881H94.7192C94.7188 36.2881 94.7185 36.2881 94.7182 36.2882C94.718 36.2883 94.7179 36.2885 94.7179 36.2886ZM92.6406 36.2895C92.6406 35.1525 93.5591 34.2109 94.7192 34.2109H96.9592C98.0963 34.2109 99.0378 35.1294 99.0378 36.2895V52.2095C99.0378 53.3631 98.1128 54.2881 96.9592 54.2881H94.7192C93.5821 54.2881 92.6406 53.3696 92.6406 52.2095V36.2895Z" fill="black"/>
<path d="M5.28 18.75H3.04C2.46 18.75 2 18.29 2 17.71V12.79C2 12.22 2.46 11.75 3.04 11.75H5.28C5.85 11.75 6.32 12.21 6.32 12.79V17.71C6.31 18.29 5.85 18.75 5.28 18.75Z" fill="white"/>
<path fill-rule="evenodd" clip-rule="evenodd" d="M3.03814 12.7895C3.03812 12.7898 3.03814 12.7891 3.03814 12.7895V17.7095C3.03814 17.71 3.03814 17.7105 3.03815 17.7109C3.03859 17.7109 3.03905 17.7109 3.03954 17.7109H5.27653C5.27712 17.7101 5.27776 17.709 5.27835 17.7076C5.2791 17.7058 5.28047 17.7021 5.28094 17.6953V12.7895C5.28094 12.7891 5.28093 12.7888 5.28092 12.7885C5.28075 12.7884 5.28104 12.7886 5.28092 12.7885C5.2807 12.7885 5.27994 12.7881 5.27954 12.7881H3.03954C3.03915 12.7881 3.0388 12.7881 3.0385 12.7882C3.03836 12.7883 3.03822 12.7894 3.03814 12.7895ZM0.960938 12.7895C0.960938 11.6525 1.87944 10.7109 3.03954 10.7109H5.27954C6.41662 10.7109 7.35814 11.6294 7.35814 12.7895V17.7185L7.35798 17.7274C7.33851 18.8572 6.43283 19.7881 5.27954 19.7881H3.03954C1.88593 19.7881 0.960938 18.8631 0.960938 17.7095V12.7895Z" fill="black"/>
<path fill-rule="evenodd" clip-rule="evenodd" d="M94.8008 36.25V19.25H96.878V36.25H94.8008Z" fill="black"/>
</svg>
