<svg width="91" height="90" viewBox="0 0 91 90" fill="none" xmlns="http://www.w3.org/2000/svg">
<path fill-rule="evenodd" clip-rule="evenodd" d="M0 45C0 20.1473 20.3711 0 45.5 0C70.6289 0 91 20.1473 91 45C91 69.8528 70.6289 90 45.5 90C20.3711 90 0 69.8528 0 45ZM45.5023 21C38.9118 21 38.0846 21.0285 35.4963 21.1449C32.9128 21.2619 31.1495 21.6666 29.6065 22.26C28.0104 22.8729 26.6566 23.6931 25.3077 25.0275C23.9578 26.3616 23.1286 27.7005 22.5068 29.2785C21.9052 30.8051 21.4957 32.5496 21.3795 35.1036C21.2637 37.6637 21.2333 38.4821 21.2333 45.0002C21.2333 51.5182 21.2627 52.3339 21.3799 54.8938C21.4988 57.4489 21.9077 59.1928 22.5073 60.7189C23.1276 62.2974 23.9567 63.6364 25.3062 64.9704C26.6545 66.3054 28.0083 67.1274 29.6034 67.7406C31.1474 68.334 32.9113 68.7384 35.4942 68.8554C38.0827 68.9721 38.9093 69.0006 45.4992 69.0006C52.0903 69.0006 52.9148 68.9721 55.5034 68.8554C58.0866 68.7384 59.852 68.334 61.3962 67.7406C62.9917 67.1274 64.3434 66.3054 65.6918 64.9704C67.0416 63.6364 67.8708 62.2974 68.4927 60.7194C69.0893 59.1928 69.4988 57.4483 69.6201 54.8944C69.7363 52.3343 69.7667 51.5182 69.7667 45.0002C69.7667 38.4821 69.7363 37.6642 69.6201 35.1041C69.4988 32.5491 69.0893 30.8051 68.4927 29.2791C67.8708 27.7005 67.0416 26.3616 65.6918 25.0275C64.3419 23.6925 62.9921 22.8726 61.3947 22.26C59.8475 21.6666 58.0832 21.2619 55.4998 21.1449C52.9112 21.0285 52.0873 21 45.4947 21H45.5023Z" fill="white" fill-opacity="0.75"/>
<path fill-rule="evenodd" clip-rule="evenodd" d="M43.3253 25.3251C43.9714 25.3242 44.6924 25.3251 45.5023 25.3251C51.9815 25.3251 52.7495 25.3482 55.3081 25.4631C57.6741 25.5702 58.9583 25.9611 59.8137 26.2896C60.9461 26.7246 61.7535 27.2445 62.6023 28.0845C63.4516 28.9245 63.9775 29.7246 64.4183 30.8447C64.7505 31.6896 65.1463 32.9597 65.254 35.2997C65.3702 37.8297 65.3956 38.5898 65.3956 44.9948C65.3956 51.3998 65.3702 52.1599 65.254 54.6898C65.1458 57.0298 64.7505 58.3 64.4183 59.1448C63.9785 60.265 63.4516 61.0624 62.6023 61.902C61.753 62.742 60.9467 63.262 59.8137 63.697C58.9593 64.027 57.6741 64.417 55.3081 64.524C52.75 64.639 51.9815 64.6639 45.5023 64.6639C39.0225 64.6639 38.2545 64.639 35.6964 64.524C33.3304 64.416 32.0462 64.0249 31.1904 63.6964C30.0579 63.2614 29.2489 62.7415 28.3996 61.9015C27.5502 61.0615 27.0245 60.2635 26.5837 59.143C26.2516 58.2979 25.8557 57.028 25.7481 54.688C25.6316 52.1578 25.6085 51.3979 25.6085 44.9888C25.6085 38.5797 25.6316 37.8237 25.7481 35.2937C25.8561 32.9537 26.2516 31.6836 26.5837 30.8376C27.0236 29.7177 27.5502 28.9176 28.3996 28.0776C29.2489 27.2376 30.0579 26.7177 31.1904 26.2815C32.0458 25.9515 33.3304 25.5615 35.6964 25.4541C37.935 25.3542 38.8026 25.3242 43.3253 25.3191V25.3251ZM58.4557 29.31C56.8481 29.31 55.5437 30.5987 55.5437 32.1891C55.5437 33.7791 56.8481 35.0691 58.4557 35.0691C60.0634 35.0691 61.3677 33.7791 61.3677 32.1891C61.3677 30.5991 60.0634 29.31 58.4557 29.31ZM45.5023 32.6751C38.62 32.6751 33.0402 38.1938 33.0402 45.0002C33.0402 51.8068 38.62 57.3229 45.5023 57.3229C52.3845 57.3229 57.9622 51.8068 57.9622 45.0002C57.9622 38.1938 52.3845 32.6751 45.5023 32.6751Z" fill="white" fill-opacity="0.75"/>
<path fill-rule="evenodd" clip-rule="evenodd" d="M45.5023 37.0002C49.9694 37.0002 53.5912 40.5819 53.5912 45.0003C53.5912 49.4184 49.9694 53.0004 45.5023 53.0004C41.0346 53.0004 37.4133 49.4184 37.4133 45.0003C37.4133 40.5819 41.0346 37.0002 45.5023 37.0002Z" fill="white" fill-opacity="0.75"/>
</svg>
