<svg width="87" height="90" viewBox="0 0 87 90" fill="none" xmlns="http://www.w3.org/2000/svg">
<path fill-rule="evenodd" clip-rule="evenodd" d="M0 45C0 20.1473 19.4757 0 43.5 0C67.5243 0 87 20.1473 87 45C87 69.8528 67.5243 90 43.5 90C19.4757 90 0 69.8528 0 45ZM45.7756 59.7677C45.7756 59.7677 46.613 59.6732 47.0418 59.2054C47.4344 58.7768 47.4208 57.9679 47.4208 57.9679C47.4208 57.9679 47.3686 54.1909 49.0957 53.6331C50.7978 53.0846 52.9832 57.2857 55.3026 58.9012C57.0546 60.1226 58.3844 59.8553 58.3844 59.8553L64.5823 59.7677C64.5823 59.7677 67.823 59.5648 66.2866 56.9769C66.1595 56.7649 65.3901 55.062 61.6797 51.5636C57.7921 47.9019 58.3141 48.4941 62.9936 42.1592C65.8441 38.3014 66.9833 35.9462 66.627 34.9393C66.2889 33.9759 64.1919 34.2317 64.1919 34.2317L57.2157 34.2756C57.2157 34.2756 56.6983 34.2041 56.3147 34.4368C55.9403 34.665 55.6974 35.1973 55.6974 35.1973C55.6974 35.1973 54.5945 38.1816 53.1217 40.7211C50.0149 46.0768 48.7735 46.3601 48.2651 46.0284C47.0828 45.2518 47.3777 42.9128 47.3777 41.2511C47.3777 36.0592 48.154 33.8953 45.8686 33.3352C45.1106 33.1487 44.5523 33.0264 42.6119 33.0058C40.1224 32.9805 38.0163 33.015 36.8226 33.6073C36.0283 34.0013 35.4155 34.8816 35.79 34.9324C36.2507 34.9944 37.2947 35.2181 37.8484 35.9831C38.5633 36.9718 38.5383 39.1886 38.5383 39.1886C38.5383 39.1886 38.9492 45.3002 37.5784 46.0583C36.6388 46.5791 35.3497 45.5168 32.5788 40.6566C31.1605 38.1679 30.0893 35.4163 30.0893 35.4163C30.0893 35.4163 29.8827 34.9024 29.5128 34.6258C29.0658 34.2917 28.4416 34.188 28.4416 34.188L21.8127 34.2317C21.8127 34.2317 20.8164 34.2594 20.451 34.6995C20.1265 35.0889 20.426 35.8978 20.426 35.8978C20.426 35.8978 25.6162 48.2291 31.494 54.4444C36.8838 60.141 43.0023 59.7677 43.0023 59.7677H45.7756Z" fill="white" fill-opacity="0.75"/>
</svg>
