<?xml version="1.0" standalone="no"?>
<!DOCTYPE svg PUBLIC "-//W3C//DTD SVG 1.1//EN" "http://www.w3.org/Graphics/SVG/1.1/DTD/svg11.dtd" >
<svg xmlns="http://www.w3.org/2000/svg" xmlns:xlink="http://www.w3.org/1999/xlink" version="1.1">
<metadata>
Created by FontForge 20170924 at Wed Mar 21 06:31:42 1928
 By www-data
TrueType font: Copyright (c) 1991, 1994 ParaGraph. All rights reserved. Technical realization by TeamAXis Corp. Hinted with AXisType ToolKit: Copyright (c) 1992, 1994 by Dmitry Komissarov.
</metadata>
<defs>
<font id="CorridaCTT" horiz-adv-x="218" >
  <font-face 
    font-family="CorridaCTT"
    font-weight="400"
    font-stretch="normal"
    units-per-em="1000"
    panose-1="0 0 0 0 0 0 0 0 0 0"
    ascent="800"
    descent="-200"
    x-height="292"
    cap-height="723"
    bbox="-70 -355 1543 950"
    underline-thickness="56"
    underline-position="-383"
    unicode-range="U+0020-2219"
  />
<missing-glyph horiz-adv-x="950" 
d="M59 0v950h832v-950h-832zM832 59v832h-714v-832h714z" />
    <glyph glyph-name=".notdef" horiz-adv-x="950" 
d="M59 0v950h832v-950h-832zM832 59v832h-714v-832h714z" />
    <glyph glyph-name=".null" horiz-adv-x="0" 
 />
    <glyph glyph-name="nonmarkingreturn" horiz-adv-x="351" 
 />
    <glyph glyph-name="space" unicode=" " horiz-adv-x="351" 
 />
    <glyph glyph-name="exclam" unicode="!" horiz-adv-x="384" 
d="M353 490q0 -5 -58 -80q-38 -49 -70 -100t-58 -109q-35 -78 -41 -78q-11 0 -23 9q-15 12 -15 26q0 50 50 178t85 148q12 7 44 9.5t56 2.5h15q15 0 15 -6zM162 11q0 -9 -23 -21.5t-47 -12.5t-42.5 15.5t-18.5 33.5q0 11 10 20l52 43q13 11 41 -21t28 -57z" />
    <glyph glyph-name="quotedbl" unicode="&#x22;" horiz-adv-x="383" 
d="M337 456q0 -13 -8 -26q-13 -18 -20 -28l-68 -95q-6 -9 -13 -13t-14 -4q-15 0 -10 24l27 130q7 32 27 44q13 8 33 8q19 0 32.5 -11.5t13.5 -28.5zM180 456q0 -13 -8 -26q-13 -18 -20 -28l-68 -95q-6 -9 -13 -13t-14 -4q-15 0 -10 24l27 130q7 32 27 44q13 8 33 8
q19 0 32.5 -11.5t13.5 -28.5z" />
    <glyph glyph-name="numbersign" unicode="#" horiz-adv-x="464" 
d="M464 356l-19 -55h-74l-42 -117h74l-19 -55h-73l-39 -107h-39l38 107h-88l-38 -107h-40l39 107h-74l19 55h73l42 117h-73l18 55h73l39 107h40l-39 -107h88l38 107h41l-39 -107h74zM331 301h-87l-42 -117h88z" />
    <glyph glyph-name="dollar" unicode="$" horiz-adv-x="556" 
d="M550 551q6 -3 6 -8q0 -11 -29 -41q-71 -73 -79 -95q-12 11 -22 25t-10 28q0 11 5.5 28t11.5 28l-22 1q-13 0 -30 -5l-60 -198h72q66 0 97 -27q27 -23 27 -62q0 -87 -97 -176t-213 -107l-18 -61q-8 -4 -20 -4q-7 0 -15 3l18 57l-37 -1q-70 0 -106 34q-29 28 -29 68
q0 35 31 63q37 33 99 33q23 0 37.5 -3.5t31.5 -13.5q-42 -6 -68.5 -30.5t-26.5 -54.5q0 -26 19.5 -45.5t57.5 -19.5l74 243q-66 0 -88 22q-15 15 -15 51v22q0 86 63 149q54 54 138 75l26 89q8 4 20 4q7 0 15 -3l-24 -82l28 2l28 -1q16 19 28 27t21 8q7 0 10.5 -2t4.5 -2z
M345 503q-66 -20 -110 -72q-37 -44 -37 -77q0 -25 29 -35q21 -7 59 -7zM458 164q0 29 -23.5 37.5t-70.5 8.5h-36h-39l-73 -240q82 17 162 83t80 111z" />
    <glyph glyph-name="percent" unicode="%" horiz-adv-x="800" 
d="M846 220q-4 -12 -23 -26q-25 -18 -63 -27q-11 -80 -80.5 -138.5t-147.5 -58.5q-62 0 -93 36q-25 29 -25 75q0 84 95 154q78 57 124 57q8 0 15 -7q0 -41 -63.5 -53t-63.5 -75q0 -31 29.5 -56t73.5 -25t74 24.5t39 65.5q-16 -4 -50 -4q-26 0 -39.5 9.5t-13.5 26.5
q0 25 14 58.5t29 33.5q9 0 15.5 -3.5t25.5 -21.5q24 -22 43 -32.5t45 -10.5q19 0 25.5 1.5t14.5 3.5v-7zM433 441q0 -12 -19 -28q-25 -21 -68 -32q-12 -80 -80.5 -138.5t-147.5 -58.5q-62 0 -93 36q-25 29 -25 75q0 80 89 150q77 61 130 61q8 0 15 -7q0 -43 -63.5 -54
t-63.5 -74q0 -31 29.5 -56t73.5 -25q42 0 73 25t41 65q-16 -4 -51 -4q-26 0 -39.5 9.5t-13.5 26.5q0 25 14 58.5t29 33.5q9 0 16 -4q2 -1 25 -21t31 -25q26 -18 57 -18q23 0 30 1.5t11 3.5zM636 504l-530 -635l-29 22l529 637z" />
    <glyph glyph-name="ampersand" unicode="&#x26;" horiz-adv-x="514" 
d="M479 104l-32 -60q-14 -26 -27 -39q-19 -18 -46 -18q-55 0 -92 64q-30 -29 -69 -44.5t-78 -15.5q-51 0 -80 45q-24 38 -24 84q0 62 62 113q42 35 136 79q10 78 53.5 134.5t98.5 56.5q27 0 42.5 -16.5t15.5 -36.5q0 -45 -52 -82q-34 -24 -104 -52q0 -70 24 -122
q16 -34 44 -62q24 19 36 34q18 21 20 21q11 0 11 -11q0 -9 -18 -29q-10 -12 -29 -29q19 -14 46 -14q17 0 31.5 12.5t25.5 12.5q9 0 9 -11q0 -6 -4 -14zM393 443q0 13 -4 20q-7 12 -23 12q-30 0 -50 -22q-30 -33 -30 -113q42 14 74.5 44t32.5 59zM268 71q-16 26 -25 54
q-12 36 -16 83v79q-34 -16 -59 -41q-39 -40 -39 -89q0 -40 24.5 -68.5t68.5 -28.5q22 0 46 11z" />
    <glyph glyph-name="quotesingle" unicode="'" horiz-adv-x="180" 
d="M180 456q0 -13 -8 -26q-13 -18 -20 -28l-68 -95q-6 -9 -13 -13t-14 -4q-15 0 -10 24l27 130q7 32 27 44q13 8 33 8q19 0 32.5 -11.5t13.5 -28.5z" />
    <glyph glyph-name="parenleft" unicode="(" horiz-adv-x="336" 
d="M328 565q-46 -42 -95 -118q-55 -84 -84 -237q-6 -33 -11 -78t-5 -72q0 -79 24 -130q17 -33 35 -66v-8q-2 -7 -8 -9h-6q-37 13 -84 88q-56 90 -56 183q0 50 7 92q17 92 75 180q47 70 113 128q55 48 84 55h6z" />
    <glyph glyph-name="parenright" unicode=")" horiz-adv-x="336" 
d="M298 307q0 -34 -1 -50.5t-7 -46.5q-17 -91 -75 -179q-47 -72 -110 -127q-54 -47 -87 -57h-6q-4 6 -4 9q0 50 32 76q55 45 72 69q48 69 74 209q7 38 11.5 79.5t4.5 70.5q0 74 -25 134q-28 52 -33 62v9q2 6 7 8h6q41 -10 89 -93q52 -90 52 -173z" />
    <glyph glyph-name="asterisk" unicode="*" horiz-adv-x="447" 
d="M397 441q0 -19 -12 -31t-31 -12q-14 0 -26.5 7.5t-28.5 27.5l-39 49l-20 -12l23 -63q5 -13 7 -22.5t2 -16.5q0 -15 -5 -25q-11 -20 -38 -20q-21 0 -32.5 11.5t-11.5 33.5q0 13 5 26q2 6 5 13l22 63l-19 12l-39 -49q-16 -21 -29 -28t-27 -7q-19 0 -31 12t-12 31
q0 27 24 39q14 7 38 10l70 9v23l-70 9q-32 4 -47 16t-15 33q0 19 12 31t31 12q18 0 33 -11q11 -8 23 -24l39 -49l19 12l-22 63q-5 13 -7.5 22.5t-2.5 16.5q0 45 44 45q27 0 37 -19q6 -11 6 -26t-9 -39l-23 -63l20 -12l39 49q16 20 26 26q14 9 29 9q19 0 31 -12t12 -31
q0 -17 -11 -29q-16 -17 -50 -21l-69 -8v-23l69 -8q34 -4 49 -20q12 -13 12 -30z" />
    <glyph glyph-name="plus" unicode="+" horiz-adv-x="461" 
d="M415 193h-159v-160h-51v160h-159v50h159v160h51v-160h159v-50z" />
    <glyph glyph-name="comma" unicode="," 
d="M180 -9q0 -26 -47.5 -71.5t-73.5 -45.5q-4 0 -7 7q0 5 8 13q19 18 36.5 34.5t24 27t6.5 19.5q0 12 -7 12q-13 0 -16.5 -7.5t-14.5 -7.5q-20 0 -35 19t-15 38q0 15 10 22l53 43q9 6 10 6q16 0 42 -46.5t26 -62.5z" />
    <glyph glyph-name="hyphen" unicode="-" horiz-adv-x="353" 
d="M315 184l-18 -36q-2 -4 -4 -7.5t-14 -3.5q-24 0 -31 1q-37 5 -63 5h-63q-10 0 -34.5 -2t-28.5 -2q-21 0 -21 14q0 7 7 14l44 47q12 13 23 16.5t27 3.5q37 0 102 -11.5t74 -27.5q3 -5 0 -11z" />
    <glyph glyph-name="period" unicode="." horiz-adv-x="193" 
d="M162 11q0 -9 -23 -21.5t-47 -12.5t-42.5 15.5t-18.5 33.5q0 11 10 20l52 43q13 11 41 -21t28 -57z" />
    <glyph glyph-name="slash" unicode="/" horiz-adv-x="321" 
d="M306 447l-253 -578l-38 18l253 577z" />
    <glyph glyph-name="zero" unicode="0" horiz-adv-x="460" 
d="M440 344q0 -110 -84 -223q-90 -121 -193 -121q-64 0 -98.5 42.5t-34.5 105.5q0 98 63 185q52 71 129 118q68 41 108 41q7 0 13 -7q0 -7 -14.5 -14.5t-27.5 -13.5q-86 -44 -127 -119q-32 -58 -32 -120q0 -46 24.5 -73.5t63.5 -27.5q69 0 122 63q50 59 50 128q0 39 -17 59
t-44 20q-59 0 -90 -39q6 47 39.5 76.5t74.5 29.5q32 0 53.5 -26t21.5 -84z" />
    <glyph glyph-name="one" unicode="1" horiz-adv-x="345" 
d="M335 466q0 -5 -6 -19l-68 -159q-33 -77 -44 -116t-11 -70l2 -27l-153 -69q-7 -3 -13 -6q-3 0 -6 6q-6 10 -6 31q0 32 31 88q11 20 113 168q74 106 74 120q0 8 -8 8q-19 0 -53 -20.5t-89 -20.5q-15 0 -15 10q0 15 104 57.5t126 42.5q12 0 17 -7.5t5 -16.5z" />
    <glyph glyph-name="two" unicode="2" horiz-adv-x="462" 
d="M432 102q0 -40 -47.5 -73t-91.5 -33q-47 0 -83 39q-23 24 -54 84q-54 -54 -91 -84t-50 -30q-5 0 -5 20q0 48 45 83q41 31 95 38q47 43 88 101q50 71 50 116q0 27 -14.5 42.5t-35.5 15.5q-37 0 -84 -47q-23 -23 -38 -23q-8 0 -8 15q0 34 71 79.5t130 45.5q56 0 86 -32
q23 -25 23 -58q0 -71 -137 -186q-53 -45 -109 -82q14 -18 34 -34q26 -20 46 -20q29 0 58 28q10 9 70 99q20 -11 36 -43.5t16 -60.5z" />
    <glyph glyph-name="three" unicode="3" horiz-adv-x="440" 
d="M410 433q0 -38 -43 -73t-121 -54q58 0 95 -27t37 -65q0 -54 -82 -116q-70 -53 -172 -96q-90 -38 -152 -49h-14q-2 0 -8 5q0 5 74 37q91 40 139 79q75 61 75 134q0 28 -10.5 42.5t-34.5 14.5q-12 0 -24 -1.5t-16 -1.5q-15 0 -15 9q0 8 17.5 15.5t33.5 14.5
q43 19 69.5 46.5t26.5 54.5q0 18 -12.5 24t-32.5 6q-57 0 -79 -36.5t-70 -36.5q-6 0 -10 3t-4 8q0 7 6.5 14t32.5 26q45 35 81 52q58 28 120 28q51 0 74 -18q19 -15 19 -39z" />
    <glyph glyph-name="four" unicode="4" horiz-adv-x="398" 
d="M388 283q-44 -50 -67 -105t-23 -123l-102 -51q-10 -5 -15 -5q-12 0 -12 25q0 38 29 89.5t92 123.5q-80 -49 -111 -67q-52 -30 -80 -30q-11 0 -18.5 3.5t-13.5 13.5l-37 63q21 134 99 210q62 60 123 60q19 0 35 -8q10 -5 27 -19l56 -45q-101 -10 -184 -85
q-71 -64 -71 -106q0 -12 7.5 -17t19.5 -5q38 0 147 57q47 25 81 46z" />
    <glyph glyph-name="five" unicode="5" horiz-adv-x="420" 
d="M404 438l-49 -77q-7 -11 -18 -11q-12 0 -12 11l3 23q0 10 -21 15.5t-38 5.5q-66 0 -88 -10q-32 -14 -50 -66q17 3 22.5 3.5t17.5 0.5q85 0 125 -34q31 -27 31 -69q0 -57 -61 -115q-43 -41 -119 -84q-59 -34 -114 -59q-64 -29 -89 -29q-14 0 -14 10q0 9 27 20.5t51 20.5
q86 40 138 91q56 54 56 106q0 32 -21 51q-27 25 -82 25l-34 -3l84 165q40 20 99 39q70 22 110 22q21 0 36.5 -9.5t15.5 -23.5q0 -8 -6 -19z" />
    <glyph glyph-name="six" unicode="6" horiz-adv-x="457" 
d="M447 558q0 -9 -30 -24q-45 -22 -67 -38q-79 -57 -131 -150.5t-52 -177.5q0 -48 18 -70q15 -18 42 -18q33 0 67 34t34 64q0 17 -8 27q-13 16 -45 16l-66 -5q18 37 41 59q35 34 76 34q32 0 43 -14.5t11 -41.5q0 -74 -70 -160q-76 -93 -156 -93q-58 0 -91 40t-33 103
q0 104 85 210q70 87 176 154q95 60 144 60q7 0 12 -9z" />
    <glyph glyph-name="seven" unicode="7" horiz-adv-x="374" 
d="M374 418q0 -79 -37 -116q-50 -42 -99 -83q-75 -76 -138 -220q-28 4 -44 21q-19 20 -19 53q0 43 44 83q22 21 86 61q53 33 91 67t38 54q0 21 -21 28t-53 7q-54 0 -99.5 -9.5t-92.5 -38.5q0 99 53 135q43 29 147 29q84 0 119 -24q25 -17 25 -47z" />
    <glyph glyph-name="eight" unicode="8" horiz-adv-x="460" 
d="M430 417q0 -26 -24 -54q-30 -35 -92 -64q37 -42 59 -81q27 -48 27 -83q0 -47 -55 -86q-69 -49 -184 -49q-79 0 -115 21q-41 24 -41 73q0 64 86 120q11 7 99 55q-27 48 -37 67q-17 32 -17 52q0 38 47 69q51 34 125 34q55 0 88.5 -21.5t33.5 -52.5zM379 405q0 20 -13 34
q-16 18 -48 18q-34 0 -58.5 -13t-24.5 -32q0 -29 59 -94q30 14 54 36q31 28 31 51zM255 122q0 22 -19 59t-31 60q-68 -35 -104 -68q-45 -41 -45 -83q0 -21 15 -38q20 -23 60 -23q52 0 88 28t36 65z" />
    <glyph glyph-name="nine" unicode="9" horiz-adv-x="467" 
d="M437 351q0 -118 -100 -227q-77 -84 -196 -149q-95 -52 -128 -52q-5 0 -7.5 2.5t-5.5 6.5q0 6 16 14q65 34 86 49q84 58 140 155q53 91 53 167q0 42 -16.5 67.5t-48.5 25.5q-30 0 -66 -33t-36 -67q0 -17 9 -27q13 -15 41 -15h17q29 3 56 6q-18 -37 -44 -60
q-37 -33 -80 -33q-60 0 -60 50q0 74 76 163q82 96 166 96q62 0 97 -43q31 -38 31 -96z" />
    <glyph glyph-name="colon" unicode=":" horiz-adv-x="264" 
d="M233 206q0 -9 -23 -21.5t-47 -12.5t-42.5 15.5t-18.5 33.5q0 11 10 20l52 43q13 11 41 -21t28 -57zM162 11q0 -9 -23 -21.5t-47 -12.5t-42.5 15.5t-18.5 33.5q0 11 10 20l52 43q13 11 41 -21t28 -57z" />
    <glyph glyph-name="semicolon" unicode=";" horiz-adv-x="286" 
d="M248 206q0 -9 -23 -21.5t-47 -12.5t-42.5 15.5t-18.5 33.5q0 11 10 20l52 43q13 11 41 -21t28 -57zM180 -9q0 -26 -47.5 -71.5t-73.5 -45.5q-4 0 -7 7q0 5 8 13q19 18 37 35.5t24 27t6 18.5q0 11 -7 11q-9 0 -15.5 -7t-15.5 -7q-20 0 -34.5 18.5t-14.5 37.5q0 15 9 23
l53 43q9 6 10 6q16 0 42 -46.5t26 -62.5z" />
    <glyph glyph-name="less" unicode="&#x3c;" horiz-adv-x="454" 
d="M408 59l-28 -46l-334 213l334 213l28 -46l-261 -167z" />
    <glyph glyph-name="equal" unicode="=" horiz-adv-x="462" 
d="M424 247h-386v51h386v-51zM424 138h-386v50h386v-50z" />
    <glyph glyph-name="greater" unicode="&#x3e;" horiz-adv-x="454" 
d="M408 226l-334 -213l-28 46l261 167l-261 167l28 46z" />
    <glyph glyph-name="question" unicode="?" horiz-adv-x="483" 
d="M452 397q0 -68 -90 -158q-94 -95 -185 -104q59 44 119 89q58 49 58 106q0 44 -23.5 72.5t-65.5 28.5q-47 0 -89 -34q-47 -38 -68 -106q15 11 29 19q20 11 34 11q64 0 64 -37q0 -23 -25.5 -43.5t-58.5 -20.5q-26 0 -39 7.5t-21 20.5q-18 -2 -31.5 -13.5t-21.5 -11.5l-7 6
q0 10 19.5 27.5t35.5 18.5q0 89 78.5 164.5t165.5 75.5q58 0 92 -38q30 -33 30 -80zM234 11q0 -9 -23 -21.5t-47 -12.5t-42.5 15.5t-18.5 33.5q0 11 10 20l52 43q13 11 41 -21t28 -57z" />
    <glyph glyph-name="at" unicode="@" horiz-adv-x="664" 
d="M633 333q0 -102 -55 -162q-47 -51 -111 -51q-36 0 -61 18t-36 52l-3 11h-4q-33 -42 -73 -59q-24 -10 -46 -10q-57 0 -83 43q-18 29 -18 69q0 80 62.5 150.5t136.5 70.5q50 0 82 -35l7 28h91l-69 -231q-3 -10 -4 -15t-1 -15q0 -16 8 -27t25 -11q43 0 76 45q37 50 37 129
q0 103 -70 163.5t-176 60.5q-115 0 -192.5 -81.5t-77.5 -198.5q0 -105 73.5 -177.5t179.5 -72.5q38 0 67 4q50 7 88 25l11 -37q-38 -17 -81 -24.5t-85 -7.5q-155 0 -236 104q-64 82 -64 187q0 124 81 216q90 102 235 102q122 0 202 -69q84 -73 84 -194zM402 383q0 49 -39 49
q-41 0 -82 -58t-41 -121q0 -27 11 -43t31 -16q42 0 81 64.5t39 124.5z" />
    <glyph glyph-name="A" unicode="A" horiz-adv-x="1136" 
d="M1136 161q0 -33 -96.5 -97t-132.5 -64q-62 0 -83 137q-11 95 -17 137q-20 128 -23 141q-27 119 -91 119q-38 0 -108 -48q-55 -37 -130 -105q-53 -48 -105 -101q66 -14 150.5 -20t163.5 -6q48 0 67 5.5t33 9.5q8 0 8 -9q0 -23 -115 -57t-221 -34q-41 0 -80 3.5t-90 15.5
q-96 -127 -127 -164q-52 -63 -87 -91t-67 -28q-20 0 -29 11.5t-9 25.5q0 18 25 45q17 18 83 77q91 81 151 139q-16 6 -32 19t-16 25q0 9 29.5 41.5t38.5 32.5q4 0 30 -14q18 -10 42 -16q62 57 138 121q107 90 195 150q108 74 152 74q57 0 91 -88q11 -29 30 -100
q22 -133 36 -202q26 -126 72 -126q10 0 21.5 4t42.5 21q14 7 29 16t22 9q5 0 9 -9z" />
    <glyph glyph-name="B" unicode="B" horiz-adv-x="1056" 
d="M1056 191q0 -12 -22 -12h-22q-18 0 -30 -3q-30 -113 -217 -211q-176 -92 -326 -92q-76 0 -113 24q-31 20 -31 53q0 58 154.5 120t420.5 119q-15 31 -41 38.5t-103 7.5h-59l-110 -1q-22 0 -33 2q-47 8 -47 48q0 29 31 54q2 2 132 72q73 40 106 69q54 47 54 99q0 29 -21 51
q-25 27 -65 27q-89 0 -212 -111q-116 -105 -243 -291q-42 -61 -115 -198q-40 -74 -67 -74q-24 0 -50.5 40.5t-26.5 71.5q0 41 28 88q23 38 73 90q40 42 103 100q21 39 35.5 91.5t14.5 96.5q0 35 -11.5 57t-33.5 38q-14 11 -14 21q0 11 14 11q28 0 55 -41q31 -46 31 -101
q0 -53 -16 -104q169 135 278.5 196t190.5 61q57 0 91 -27t34 -72t-36 -87q-28 -33 -89 -73q-35 -23 -112 -67q171 0 249 -24q106 -33 106 -120v-12q-2 -8 -2 -12l17 1q38 0 44 -2t6 -12zM876 141v23q-132 -28 -232 -58q-122 -36 -186 -72q-75 -41 -75 -83q0 -16 14 -28
q20 -17 61 -17q113 0 258 79q150 82 160 156z" />
    <glyph glyph-name="C" unicode="C" horiz-adv-x="918" 
d="M918 274q0 -115 -118 -196q-132 -90 -352 -90q-218 0 -321 98q-77 74 -77 184q0 126 108 237q92 94 235 155q130 55 229 55q45 0 67 -10.5t22 -27.5q0 -29 -16 -53q49 0 67 -11q13 -8 13 -23q0 -10 -17 -25l-106 -88q-3 -3 -108 -115q-48 -51 -86 -51q-23 0 -40 21
t-17 50q0 46 51 100q60 63 186 129q6 8 14.5 25.5t8.5 24.5q0 12 -11 19t-27 7q-75 0 -180 -49q-114 -53 -188 -129q-86 -88 -86 -178q0 -87 74 -145q91 -71 269 -71q216 0 310 54q72 41 72 111q0 8 -1.5 11.5t-1.5 16.5t10 13q11 0 14 -13t3 -36z" />
    <glyph glyph-name="D" unicode="D" horiz-adv-x="1091" 
d="M1091 484v-16t1 -16q0 -19 -3.5 -35.5t-14.5 -35.5q6 -22 8.5 -36t2.5 -31q0 -134 -99 -224t-255 -90q-68 0 -141 24q-90 29 -205 104q-107 68 -123 78q-95 58 -144 58q-25 0 -37.5 -14.5t-12.5 -38.5q0 -47 74 -91q37 -22 116 -53q32 -10 48 -16q29 -11 29 -22
q0 -12 -15 -12q-60 0 -165 56q-125 67 -125 141q0 61 75 104q65 37 134 37q56 0 109 -24q31 -14 94 -55q188 -121 287 -162q63 -26 117 -26q92 0 147 71q50 64 50 153q0 7 -0.5 13.5t-4.5 25.5q-54 -39 -120 -55q-44 -11 -90 -11q-131 0 -254 79q-134 86 -134 199
q0 76 49 125q57 57 161 57q108 0 203 -53q83 -46 146 -127q5 1 16 1q34 0 57 -31q19 -26 19 -51zM1027 414q-46 120 -151 202t-217 82q-61 0 -92 -28q-25 -23 -25 -58q0 -82 114.5 -156.5t240.5 -74.5q44 0 71.5 6.5t58.5 26.5z" />
    <glyph glyph-name="E" unicode="E" horiz-adv-x="825" 
d="M795 245q0 -103 -133 -199q-149 -108 -354 -108q-158 0 -239 73q-69 62 -69 156t104 163q82 55 195 77q-38 20 -59 40q-29 28 -29 56q0 40 32 89q42 64 118 102q98 49 238 49q84 0 129 -30q37 -25 37 -60q0 -31 -45.5 -74.5t-75.5 -43.5q-18 0 -18 15q0 23 22 29t22 39
q0 32 -39.5 46.5t-95.5 14.5q-104 0 -183.5 -32.5t-79.5 -70.5q0 -77 47 -107q36 -23 103 -23q21 0 56 3t45 3q27 0 27 -12q0 -9 -13 -25l-38 -51q-10 -14 -33 -14q-25 0 -67 15t-61 22q-105 -13 -163 -65q-51 -46 -51 -104q0 -73 62 -129q79 -71 225 -71q140 0 234 63
q83 56 83 122q0 31 -22.5 48.5t-52.5 17.5q-32 0 -57 -14q-25 -16 -50 -31q-12 0 -12 12q0 31 58 67t108 36q42 0 68.5 -24.5t26.5 -69.5z" />
    <glyph glyph-name="F" unicode="F" horiz-adv-x="798" 
d="M798 752q0 -9 -19 -44t-34 -53q-51 -15 -83 -18q-65 -7 -158 -7l-77 -145q75 -22 160 -34t129 -12q10 0 28 1.5t23 1.5q2 0 4.5 -0.5t5.5 -1.5q0 -21 -52 -49q-68 -37 -161 -37q-77 0 -194 25q4 -28 4 -64q0 -102 -34 -198q-18 -50 -65 -141q-20 -40 -39 -81
q-26 -47 -48 -47q-20 0 -38 29.5t-18 77.5q0 51 30 118q21 46 69 124q65 105 76.5 125t14.5 30.5t3 20.5q0 13 -36.5 31t-36.5 34q0 6 4 13l37 69q3 5 11 5q11 0 28 -7q55 -23 56 -23l70 133q-32 -5 -69.5 -9.5t-66.5 -4.5h-60q-129 0 -203 60q-59 48 -59 104q0 12 1 13h8
q57 -17 114 -33q70 -13 168 -13l232 3l21 40q4 7 12 10.5t31 3.5q10 0 6 -9l-24 -48h18h15h14h12q21 0 41.5 1t38.5 3.5t26 2.5q35 3 51 3q5 0 7.5 -0.5t5.5 -2.5z" />
    <glyph glyph-name="G" unicode="G" horiz-adv-x="862" 
d="M892 443q-13 -71 -58 -157q-58 -110 -146 -199q-97 -98 -219 -153q-130 -59 -269 -59q-105 0 -158 52q-42 42 -42 100q0 47 38 95q34 43 57 43q15 0 15 -16q0 -11 -18.5 -32.5t-18.5 -55.5q0 -57 47 -99q53 -47 140 -47q147 0 278 126q112 108 186 280
q-220 -134 -347 -134q-94 0 -152.5 56.5t-58.5 148.5q0 119 108 231q121 125 281 125q0 33 19 58.5t34 25.5q4 0 9 -6q20 -23 82 -55q34 -18 83 -39q24 -10 24 -15q0 -14 -24 -55q-28 -47 -48 -47q-17 0 -35.5 8t-47 30.5t-56.5 45.5q-26 19 -62 19q-86 0 -157.5 -89.5
t-71.5 -204.5q0 -79 42 -126t119 -47q56 0 135 34q69 30 135 76q30 59 51 79q31 30 83 30q17 0 23 -13q2 -4 0 -14z" />
    <glyph glyph-name="H" unicode="H" horiz-adv-x="1260" 
d="M1260 668q0 -119 -133 -232q-146 -124 -357 -149q-6 -19 -8 -38.5t-2 -42.5q0 -109 96 -176q76 -53 151 -53q53 0 95 46q24 26 48 75q10 24 14.5 36t15.5 12q13 0 13 -16q0 -67 -81 -159q-94 -107 -203 -107q-94 0 -154.5 69.5t-60.5 176.5q0 35 7.5 78.5t24.5 88.5
q-155 -21 -269 -40q-73 -142 -174 -236q-106 -99 -195 -99q-43 0 -65.5 30t-22.5 69q0 98 103 187q124 107 354 150q45 81 89 169q-31 -29 -65 -29q-36 0 -64.5 31.5t-28.5 67.5q0 15 14 15q5 0 15 -2.5t17 -2.5q10 0 30 13q31 20 88 73q22 20 30 29q13 14 15 14q11 0 17 -3
l72 -45q6 -3 6 -11q0 -6 -86 -140q-53 -83 -89 -165q146 24 253 46q81 126 209 226q133 104 224 104q37 0 50 -25q7 -13 7 -35zM1209 625q0 45 -38 45q-62 0 -171.5 -82.5t-179.5 -179.5q148 0 245 44q75 34 115 93q29 43 29 80zM405 229q-192 -17 -292 -98
q-78 -63 -78 -135q0 -27 18 -44t46 -17q64 0 152.5 84t153.5 210z" />
    <glyph glyph-name="I" unicode="I" horiz-adv-x="622" 
d="M652 620q0 -50 -69 -221q-61 -151 -107 -236q-63 -116 -106 -162q-46 -50 -95 -50q-47 0 -94.5 35t-47.5 76q0 23 20.5 55.5t44.5 51.5q33 -38 47 -52q24 -23 64 -23q93 0 169 163q65 139 65 243q0 46 -21 66q-30 28 -109 28q-214 0 -278 -34q-45 -24 -57 -106
q-3 -14 -11 -14q-6 0 -11.5 7t-5.5 26q0 144 97 202q80 48 249 48q140 0 203 -30q53 -25 53 -73z" />
    <glyph glyph-name="J" unicode="J" horiz-adv-x="622" 
d="M652 620q0 -54 -55 -190.5t-137 -290.5q59 24 109.5 45.5t58.5 21.5q5 0 6 -3t2 -8q0 -9 -120 -78q-79 -45 -142 -124q-37 -61 -74 -121.5t-70 -89.5q-38 -34 -78 -34q-33 0 -51 21q-13 15 -13 35q0 69 115 173q99 89 196 136q63 99 106 216q40 110 40 173q0 65 -56 82
q-29 9 -128 9q-192 0 -243 -36q-28 -19 -40 -103q-3 -14 -11 -14q-6 0 -11.5 7t-5.5 26q0 145 96 202q78 46 248 46q119 0 177 -17q81 -24 81 -84z" />
    <glyph glyph-name="K" unicode="K" horiz-adv-x="932" 
d="M932 623q0 -28 -63 -75t-119 -56q-84 -43 -203 -87q-111 -41 -219 -71q109 -38 189 -125q56 -70 113 -139q62 -65 140 -65q41 0 75 26q40 31 40 80q0 11 -1.5 17.5t-3.5 14.5q0 6 4 9t7 3q21 0 21 -57q0 -63 -52 -112q-60 -56 -160 -56q-144 0 -194 80q-34 81 -67 162
q-54 98 -201 125l-179 -267q-9 -15 -16 -22.5t-17 -7.5q-8 0 -14 3q-12 6 -12 18t23 55q20 38 124 218q-13 -2 -24.5 -6t-19.5 -4q-13 0 -13 13t27.5 25.5t57.5 15.5l178 337q12 10 28 16q24 9 55 9q18 0 34.5 -4.5t16.5 -14.5q0 -9 -11 -28q-5 -8 -16 -25l-189 -277h11h11
q393 148 393 166q0 7 -3.5 12t-7 9t-3.5 6q0 51 44 85t97 34h11q8 -2 12 -2l76 -14q10 -2 15 -6.5t5 -17.5z" />
    <glyph glyph-name="L" unicode="L" horiz-adv-x="902" 
d="M902 232q0 -101 -98 -179t-222 -78q-57 0 -125 25q-88 32 -227 116q-35 -31 -71 -48.5t-72 -17.5q-41 0 -64 27t-23 69q0 53 50 87q44 30 103 30q35 0 75.5 -13t71.5 -30q93 93 162 198q-38 9 -62.5 31.5t-24.5 36.5l8 2l17 -1h14q105 0 138 32q21 20 21 72q0 54 16 73
q28 33 126 33q24 0 45 -33t21 -67q0 -73 -70.5 -128t-177.5 -55q-96 -112 -204 -207q121 -71 180 -97q87 -38 160 -38q91 0 148 43.5t57 117.5q0 8 -0.5 16.5t-1.5 17.5q0 14 12 14q11 0 14.5 -14t3.5 -35zM201 131q-37 24 -70.5 37.5t-51.5 13.5q-22 0 -36.5 -13.5
t-14.5 -36.5q0 -24 17 -40.5t47 -16.5q24 0 56 18q25 14 53 38z" />
    <glyph glyph-name="M" unicode="M" horiz-adv-x="1543" 
d="M1543 153q0 -5 -6.5 -12.5t-23.5 -23.5l-94 -88q-14 -14 -33.5 -21.5t-32.5 -7.5q-72 0 -86 135q-5 50 -5 141q0 114 -8 169q-16 108 -64 108q-16 0 -40 -20q-34 -28 -86 -96q-60 -78 -159 -228q-24 -37 -64 -105q-43 -73 -64 -73q-29 0 -54 10q-31 13 -31 35q0 14 16 45
l70 134q88 173 113 231.5t25 92.5q0 58 -51 58q-55 0 -121 -59q-83 -74 -174 -230q-99 -170 -183 -265q-68 -77 -130 -106q-42 -20 -92 -20q-89 0 -132 65q-33 49 -33 121q0 103 94 179.5t213 76.5h41q17 0 29.5 -3t12.5 -16q0 -8 -13 -12q-34 -6 -49 -9q-90 -18 -150 -79.5
t-60 -137.5q0 -63 19.5 -100.5t57.5 -37.5q79 0 165 132l148 242q99 139 191 215q108 90 203 90q43 0 67 -25q21 -22 21 -57q0 -51 -38 -159q-34 -96 -69 -163q138 181 230 265t152 84q52 0 82 -62q23 -47 31 -129.5t8 -168.5q0 -62 5 -90q10 -56 41 -56q14 0 34.5 10
t45.5 24q14 8 20 8q11 0 11 -11z" />
    <glyph glyph-name="N" unicode="N" horiz-adv-x="945" 
d="M945 159q0 -4 -1 -6q-5 -7 -26 -25l-87 -74q-13 -12 -35.5 -23t-38.5 -11q-25 0 -41 13q-25 20 -29 67l-27 336q0 39 -11 69q-16 43 -50 43q-20 0 -51 -21q-26 -18 -59 -50q-55 -54 -104 -115q-43 -54 -91 -122q-108 -155 -118 -169q-53 -72 -104 -72q-31 0 -51.5 10.5
t-20.5 34.5q0 29 69 126q56 77 89 123q66 93 98 157q28 57 28 91q0 16 -16 29q-21 17 -54 17q-25 0 -56 -7l-22 -2q0 24 29.5 69.5t56.5 45.5q43 0 85 -29q51 -36 51 -90q0 -40 -39 -121q-43 -90 -113 -192q158 169 270 253q119 89 194 89q38 0 66 -30t35 -77l31 -221
q5 -46 11 -92q9 -43 39 -43q18 0 41 19q12 10 40 10q12 0 12 -10z" />
    <glyph glyph-name="O" unicode="O" horiz-adv-x="918" 
d="M918 456q0 -97 -64 -204q-67 -111 -178 -182q-126 -80 -272 -80q-159 0 -256.5 85.5t-97.5 229.5q0 171 139 308q128 126 254 126q46 0 76.5 -18t43.5 -61q46 8 88 8q140 0 210 -69q57 -56 57 -143zM529 652q-4 26 -23 40.5t-50 14.5q-106 0 -189.5 -103.5t-83.5 -240.5
q0 -19 1 -38.5t4 -39.5q25 138 119 237q91 95 222 130zM859 373q0 81 -59 129q-65 53 -182 53q-130 0 -235 -60q-97 -55 -148 -145q-17 -30 -27 -62t-20 -30q25 -78 93 -123q74 -49 188 -49q156 0 276 93q114 89 114 194z" />
    <glyph glyph-name="P" unicode="P" horiz-adv-x="1158" 
d="M1158 520q0 -176 -179 -318.5t-391 -142.5q-128 0 -221.5 44.5t-93.5 96.5q0 15 15 29t33 14q63 0 74 -47q25 -104 188 -104q162 0 306.5 118.5t144.5 252.5q0 66 -53.5 107t-142.5 41q-132 0 -283 -91q-160 -96 -320 -284l-96 -266q-68 -159 -129 -159q-31 0 -55.5 20
t-24.5 55q0 39 52 116q40 59 112 142q52 60 108 117q46 107 93 230q-44 -27 -92 -27q-37 0 -66 25.5t-39 59.5q-2 8 0 10l6 1q8 0 20 -2.5t14 -2.5q83 0 158 125q35 59 84 59q11 0 23.5 -54t12.5 -74q0 -28 -24 -58q-20 -25 -50 -43q-30 -94 -68 -177q78 84 176 163
q120 97 236 155q140 70 251 70q97 0 159 -58t62 -143z" />
    <glyph glyph-name="Q" unicode="Q" horiz-adv-x="947" 
d="M947 158q0 -8 -7 -15l-83 -81q-5 -5 -15 -10.5t-20 -5.5q-13 0 -21 5q-10 9 -15 14l-52 48q-85 -69 -176 -99q-72 -24 -154 -24q-158 0 -256 85.5t-98 229.5q0 164 141 304q131 130 253 130q59 0 90 -28q22 -20 29 -55q27 7 49.5 9.5t55.5 2.5q124 0 190 -66
q59 -59 59 -153q0 -63 -28.5 -133t-73.5 -123l45 -43q10 -10 19 -10t19.5 6.5t20 15t18.5 8.5q10 0 10 -12zM530 656q-11 51 -74 51q-105 0 -188.5 -103t-83.5 -241q0 -19 1 -38.5t4 -39.5q21 113 88 200q54 69 133 117q56 34 120 54zM859 373q0 87 -71 136q-65 45 -169 45
q-108 0 -213 -49q-115 -53 -165 -138q-21 -36 -33 -83q-7 -28 -19 -26q24 -81 105 -128q76 -44 175 -44q69 0 122 13.5t108 46.5l-61 56q-11 10 -11 18t11 19l45 46q9 9 18 9q8 0 15 -7l72 -68q32 32 51.5 72.5t19.5 81.5z" />
    <glyph glyph-name="R" unicode="R" horiz-adv-x="1134" 
d="M1134 141q0 -82 -68 -134q-63 -48 -169 -48q-140 0 -255 96q-94 78 -151 199q-6 15 -6 21q0 11 10 16l86 46q11 6 29 6q11 0 38.5 -2.5t41.5 -2.5q98 0 175 54q81 57 81 134q0 30 -19 50q-22 23 -65 23q-60 0 -167 -63q-85 -50 -139 -99l-159 -143q-39 -36 -127 -127
q-79 -82 -120 -116q-62 -51 -101 -51q-21 0 -35 16t-14 31q0 21 26 67q19 33 79 121l128 186q-40 0 -73 35t-33 66q0 13 12 15h8q4 -1 17.5 -5.5t24.5 -4.5q46 0 120 58q38 30 92 84q46 46 52 46q6 -6 9 -16.5t3 -30.5v-21t1 -19q0 -42 -25 -74q-32 -41 -142 -127
q-45 -35 -97 -106q-23 -31 -110 -156q61 37 290.5 194.5t347.5 225.5q185 106 270 106q33 0 56 -19q27 -23 27 -66q0 -114 -121 -201q-134 -96 -339 -96q70 -120 145 -192q58 -55 118 -80q41 -17 76 -17q57 0 98 33q45 37 45 100q0 24 -3.5 25.5t-3.5 23.5q0 14 12 14
t18 -21.5t6 -53.5z" />
    <glyph glyph-name="S" unicode="S" horiz-adv-x="889" 
d="M889 236q0 -82 -78 -178q-81 -100 -205 -165q-140 -73 -287 -73q-157 0 -243 64q-76 57 -76 142q0 82 62 147q54 57 98 57q14 0 14 -14q0 -36 -10.5 -47t-30.5 -11q-16 1 -25 1q-22 0 -31 -11q-13 -16 -13 -60q0 -67 72 -115q84 -56 232 -56q176 0 315 80q133 76 133 163
q0 41 -41 59q-32 14 -84 14q-41 0 -75 -2q-118 -7 -128 -7q-139 0 -200 69q-43 49 -43 126q0 122 120 206q109 77 238 77q108 0 164 -41q46 -33 46 -82q0 -43 -30.5 -77.5t-69.5 -34.5q-21 0 -49.5 12t-43.5 30q37 26 56 46q29 31 29 58q0 21 -22 38q-29 22 -84 22
q-113 0 -195 -70q-74 -63 -74 -130q0 -37 15 -61q22 -36 71 -36q46 0 136 3t138 3q111 0 160 -45q39 -36 39 -101z" />
    <glyph glyph-name="T" unicode="T" horiz-adv-x="742" 
d="M862 701l-30 -74l-157 -24q-57 -156 -113 -270q-80 -163 -163 -250q-103 -109 -214 -109q-74 0 -126 47q-59 53 -59 143q0 102 94 178.5t213 76.5h41q19 0 30.5 -3t11.5 -15q0 -11 -22 -16q-29 -4 -40 -6q-90 -18 -149.5 -79.5t-59.5 -137.5q0 -62 25 -100t66 -38
q87 0 158 104q48 71 111 230q72 183 103 237q-56 -15 -98.5 -22.5t-90.5 -7.5h-75q-88 0 -141 64q-41 49 -41 96q0 6 4 9t7 3q4 0 30 -18q18 -12 39 -18t66 -10.5t76 -4.5h35h31q89 0 125.5 1.5t92.5 6.5q25 32 51 49q30 20 56 20q11 0 11 -14q0 -4 -9 -9.5t-14 -11.5
q-14 -16 -22 -35q43 0 65 1.5t82 6.5z" />
    <glyph glyph-name="U" unicode="U" horiz-adv-x="1094" 
d="M1094 226q0 -3 -59 -54l-73 -62q-49 -41 -86 -41q-36 0 -53 45q-13 34 -13 84l-17 194q-144 -212 -299 -309q-132 -83 -273 -83q-88 0 -133 42q-38 36 -38 92q0 54 36 132q9 20 79 147q-35 -3 -66 22.5t-31 45.5q0 6 8.5 4.5t19.5 -2.5q13 0 23.5 5t43.5 32q25 21 48 42
q52 50 94 100q49 58 51 58q9 0 17.5 -30t8.5 -63q0 -75 -52 -132q-29 -32 -85 -63q-68 -38 -98 -106q-20 -45 -20 -88q0 -56 40 -88t114 -32t140 18t121 50q70 40 149 121q91 93 98 153t15 76q22 45 86 45q12 0 15.5 -15.5t3.5 -33.5l21 -276q4 -48 13 -63.5t27 -15.5
q13 0 27 6q24 11 76 45q8 5 14 5q7 0 7 -7z" />
    <glyph glyph-name="V" unicode="V" horiz-adv-x="858" 
d="M757 603q-18 -6 -43 -11t-45 -5q-52 0 -69.5 13.5t-23.5 59.5v12q3 12 16 20t40 8q34 0 59 -8q40 -13 66 -45q30 13 33 39t28 26q5 0 10 -2.5t5 -14.5q0 -19 -13.5 -39t-32.5 -34q42 -52 59 -117q12 -45 12 -97q0 -165 -123 -306q-138 -159 -340 -159q-137 0 -214 79
q-70 72 -70 186q0 49 13 97q18 67 62 136l-31 -3q-36 0 -70.5 19t-34.5 39q0 9 14 11h22q58 0 103 37q29 24 56 68q8 13 13.5 25t11.5 23.5t14 11.5q7 0 29 -14t34.5 -23.5t15.5 -16.5q2 -5 0 -18q-8 -36 -44 -80q-41 -51 -88 -71q-26 -32 -41 -64q-22 -46 -22 -92
q0 -100 89 -165q82 -60 187 -60q165 0 275 116q101 107 101 244q0 44 -10 80q-15 53 -53 95z" />
    <glyph glyph-name="W" unicode="W" horiz-adv-x="1115" 
d="M1115 356q0 -150 -78 -266q-91 -135 -241 -135q-103 0 -175 71q-68 67 -85 173q-87 -102 -188 -156q-86 -46 -159 -46q-57 0 -96 37q-43 41 -43 109q0 58 33.5 131t87.5 145q-43 0 -77 18t-34 35q0 5 10 8q70 10 99 29q23 15 23 39q0 12 -7.5 34.5t-7.5 28.5
q0 20 24.5 30t94.5 10q24 0 54 -16t30 -28q0 -39 -49 -100q-56 -69 -122 -86q-29 -34 -51 -73q-33 -59 -33 -105q0 -51 41.5 -85t110.5 -34q59 0 120 25q73 30 131 90l-3 52q0 94 38 156q35 57 76 57q17 0 23 -11t6 -26q0 -48 -32.5 -118t-70.5 -110q11 -93 82 -137
q53 -33 123 -33q111 0 201 75q105 88 105 232q0 49 -17 96q-22 60 -68 103q-35 -3 -55 -6t-27 -3q-57 0 -83.5 21.5t-26.5 67.5q0 21 17 31.5t41 10.5q31 0 72 -25q34 -21 67 -55q28 12 48.5 24.5t26.5 12.5q11 0 14.5 -4.5t3.5 -14.5q0 -8 -18 -20t-50 -24
q48 -59 71 -119.5t23 -115.5z" />
    <glyph glyph-name="X" unicode="X" horiz-adv-x="925" 
d="M925 676q0 -2 -6 -10q-20 -28 -40 -61.5t-40 -80.5t-20 -73q0 -17 4.5 -28.5t9.5 -21.5q0 -3 -8.5 -3h-13.5q-42 0 -66 16.5t-30 44.5l-213 -173q0 -202 53 -296q42 -75 110 -75q58 0 103 45l88 98q18 0 18 -13q0 -36 -67 -102q-80 -78 -160 -78q-46 0 -84 18
q-59 28 -100 95q-53 86 -73 230q-130 -97 -245 -185q-98 -75 -99 -76q-21 -15 -32 -15q-14 0 -14 36q0 39 66 83q159 105 319 211q-10 85 -10 157q0 77 4 92q8 30 47 51q13 7 37.5 12.5t38.5 5.5q4 0 9.5 -7t5.5 -16q0 -25 -13 -112q-6 -40 -6 -100l213 190q0 82 41 117
q35 30 102 30h44q16 -2 19.5 -2.5t7.5 -3.5z" />
    <glyph glyph-name="Y" unicode="Y" horiz-adv-x="910" 
d="M910 613q0 -51 -41 -148q-33 -77 -88 -174q-43 -76 -83 -134q37 0 66.5 -5t29.5 -20q0 -13 -19 -13q-9 0 -37 4.5t-60 4.5q-82 -134 -217 -216t-268 -82q-95 0 -148 34q-45 29 -45 69q0 87 134 152q155 75 414 75l85 -1q35 69 62 143q34 93 34 138q0 17 -3.5 23.5
t-11.5 6.5q-37 0 -105 -53q-105 -82 -135 -100q-91 -54 -180 -54q-62 0 -106 38q-50 43 -50 117q0 75 72 192.5t123 117.5q13 0 25.5 -7t12.5 -19q0 -26 -74 -71t-74 -113q0 -67 51.5 -111.5t131.5 -44.5q64 0 134 35.5t158 114.5q32 29 88 84q66 65 90 65q14 0 22 -8
q12 -12 12 -40zM614 129h-73q-176 0 -318.5 -47t-142.5 -113q0 -28 27 -50q38 -31 118 -31q125 0 232 70q99 65 157 171z" />
    <glyph glyph-name="Z" unicode="Z" horiz-adv-x="942" 
d="M942 672q0 -22 -30 -65q-44 -64 -155 -176q1 0 30.5 -3.5t29.5 -10.5q0 -17 -37.5 -48.5t-57.5 -31.5q-26 0 -52 12l-116 -95q242 -41 317 -87q41 -25 41 -69l-11 -119q0 -14 -3 -19t-16 -5t-14.5 14.5t-2.5 27.5q-7 41 -125 89q-125 51 -290 87q-105 -90 -205 -139
q-81 -40 -139 -40q-57 0 -85 32q-21 24 -21 58q0 74 98 135t225 61q39 0 74 -3t116 -14l118 99q-19 6 -36 16q-26 15 -26 30q0 6 4 11l43 58q5 6 11 6t36.5 -15t46.5 -21q24 23 59 70q43 58 43 80q0 30 -46 39.5t-117 9.5h-55q-134 0 -203 -12q-116 -20 -169 -81
q-5 -6 -25 -40q-13 -23 -23 -23q-6 0 -8 9t-2 21v13q0 129 79 176q90 54 354 54q345 0 345 -91zM411 180q-39 11 -74 16.5t-72 5.5q-109 0 -175 -38q-59 -34 -59 -80q0 -25 14 -40q18 -20 56 -20q67 0 159 50q77 42 151 106z" />
    <glyph glyph-name="bracketleft" unicode="[" horiz-adv-x="360" 
d="M352 573l-7 -35h-80l-119 -656h80l-7 -35h-181l132 726h182z" />
    <glyph glyph-name="backslash" unicode="\" horiz-adv-x="412" 
d="M381 -110l-45 -21l-305 696l46 20z" />
    <glyph glyph-name="bracketright" unicode="]" horiz-adv-x="359" 
d="M321 573l-132 -726h-181l6 35h80l120 656h-81l7 35h181z" />
    <glyph glyph-name="asciicircum" unicode="^" horiz-adv-x="384" 
d="M353 358h-59l-102 133l-101 -133h-60l161 215z" />
    <glyph glyph-name="underscore" unicode="_" horiz-adv-x="630" 
d="M630 -237h-630v51h630v-51z" />
    <glyph glyph-name="grave" unicode="`" horiz-adv-x="290" 
d="M270 375q-1 -4 -3 -8t-10 -4q-30 0 -92 53q-65 56 -65 88q0 21 16 35t42 14q30 0 39 -27q8 -32 16 -63q12 -33 29 -48q28 -25 28 -40z" />
    <glyph glyph-name="a" unicode="a" horiz-adv-x="555" 
d="M555 123q0 -6 -18 -18l-161 -108q-15 -11 -29 -16t-33 -5q-26 0 -37 17q-7 11 -7 25q0 15 9 33t20 36q24 38 24 56q0 8 -18 18q-63 -78 -107 -117q-75 -68 -133 -68q-33 0 -49 21t-16 56q0 71 71 136q78 72 180 72l38 -1q7 16 21 30q18 18 36 18q33 0 33 -38
q0 -23 -17 -50q20 -7 33 -19q20 -19 20 -49l-1 -23q-2 -9 -4 -21.5t-2 -15.5q0 -17 9 -17q10 0 16 3l96 45q5 2 10.5 4.5t8.5 2.5q4 0 7 -7zM290 170q0 5 -5 11q-8 10 -10 13q-5 9 -5 22q0 11 6 23h-8q-54 0 -92.5 -31.5t-38.5 -71.5q0 -23 14.5 -33t31.5 -10q21 0 64 28
t43 49z" />
    <glyph glyph-name="b" unicode="b" horiz-adv-x="399" 
d="M399 160q0 -6 -31.5 -15t-64.5 -12q0 -65 -43.5 -117.5t-107.5 -52.5q-67 0 -109.5 36t-42.5 83q0 19 6.5 38t17.5 41l205 378q12 22 22 30t18 8q11 0 19 -14.5t8 -49.5q0 -72 -25 -121q-18 -35 -65 -83.5t-93 -95.5q-37 -41 -37 -64q0 -24 58.5 -60.5t95.5 -36.5
q26 0 41 28q12 22 12 45l-1 8q-41 0 -68 8q-36 11 -36 34q0 26 30 67q18 25 31 25q18 0 40 -24q59 -65 96 -78q9 -3 15 -3q9 0 9 -2z" />
    <glyph glyph-name="c" unicode="c" horiz-adv-x="363" 
d="M363 131q0 -32 -107.5 -92t-150.5 -60q-46 0 -75.5 34.5t-29.5 82.5q0 76 102 140q94 59 186 59q26 0 36 -10.5t10 -27.5q0 -14 -12 -23t-32 -9q-55 0 -69 14q-7 7 -26 7q-33 0 -58 -28t-25 -62q0 -31 17 -53q21 -27 61 -27q30 0 72 18q24 10 48 25q38 21 45 21q6 0 8 -9
z" />
    <glyph glyph-name="d" unicode="d" horiz-adv-x="568" 
d="M576 495q0 -61 -32 -113q-27 -44 -107 -123q-49 -49 -64 -67q-26 -31 -26 -49q0 -22 39.5 -48t76.5 -26q26 0 49 17q25 23 37 34q8 6 12 6q7 0 7 -9q0 -4 -2.5 -7.5t-8.5 -11.5l-33 -37q-43 -49 -74 -70q-40 -28 -81 -28q-36 0 -61 20q-28 23 -28 64q0 24 2.5 40.5
t6.5 33.5q-93 -93 -100 -99q-65 -55 -116 -55q-34 0 -53.5 28t-19.5 69q0 101 122 168q96 53 175 53q8 0 12 -5q1 -1 3 -6q0 -27 -96 -42t-96 -89q0 -25 15 -40t34 -15q28 0 65 24q24 15 70 55q36 103 115 249q90 165 126 165q15 0 23 -19.5t8 -66.5z" />
    <glyph glyph-name="e" unicode="e" horiz-adv-x="357" 
d="M357 131q0 -5 -10 -15q-56 -60 -117.5 -100t-101.5 -40q-48 0 -86 31q-42 35 -42 89q0 82 91 157q85 70 165 70q26 0 38 -16q9 -12 9 -31q0 -43 -66 -87q-74 -50 -167 -50q0 -31 51 -47q42 -13 97 -13q28 0 49.5 9t51.5 34q24 19 29 19q9 0 9 -10zM195 229q0 11 -5 18
q-8 10 -24 10q-25 0 -51.5 -27.5t-39.5 -59.5q62 0 91 17.5t29 41.5z" />
    <glyph glyph-name="f" unicode="f" horiz-adv-x="347" 
d="M385 502q0 -103 -45 -151q-125 -134 -142 -158q8 -1 26.5 -3t38.5 -2q24 0 47 2t48 8h7l2 -5q0 -20 -56 -41q-65 -25 -147 -25q0 -52 2.5 -69.5t2.5 -44.5q0 -83 -43 -200q-46 -126 -88 -126q-15 0 -25 19q-13 25 -13 80q0 91 33 179q8 22 75 164q-100 0 -100 31
q0 14 27.5 34.5t40.5 20.5q9 0 31.5 -5.5t34.5 -7.5q33 68 110 236q45 98 62 126q22 37 41 37q15 0 22.5 -23t7.5 -76z" />
    <glyph glyph-name="g" unicode="g" horiz-adv-x="513" 
d="M513 137q-3 -11 -42 -47q-121 -112 -132 -125q-55 -126 -123 -205q-59 -69 -93 -69q-16 0 -31 25t-15 54q0 25 18 49t74 75l150 134q2 6 3 12.5t1 20.5v19q0 14 -9 31q-4 6 -17 24q-9 -7 -18 -3q-39 -49 -83 -85q-70 -58 -124 -58q-33 0 -52.5 20t-19.5 57q0 83 91 150
q81 60 153 60h31h14q14 30 26.5 40.5t25.5 10.5q14 0 26 -6.5t12 -23.5q0 -13 -5 -29.5t-11 -29.5q14 -12 23 -30q13 -26 13 -59q0 -21 -6 -44t-17 -46q44 29 91 65q30 23 37 23t9 -5v-5zM276 252q-56 0 -95.5 -26t-39.5 -66q0 -21 10.5 -38.5t36.5 -17.5q25 0 46 16
q14 11 25 28q-4 7 -7 15.5t-3 17.5q0 8 11 33q3 7 16 38z" />
    <glyph glyph-name="h" unicode="h" horiz-adv-x="563" 
d="M563 136q0 -5 -18 -21q-22 -20 -38 -35q-52 -52 -68 -65q-47 -38 -81 -38q-20 0 -36 13q-20 16 -23 43l-14 110q-3 23 -3 24q-4 19 -25 19q-8 0 -16.5 -5.5t-15.5 -12.5l-128 -132q-13 -13 -24 -21q-21 -15 -35 -15q-18 0 -28 27.5t-10 67.5q0 27 62 159.5t129 242.5
q77 127 107 127q18 0 24 -17t6 -38q0 -72 -35 -133.5t-129 -148.5q-20 -18 -39 -36q-40 -38 -40 -57q0 -17 15.5 -44t31.5 -27q18 0 28 10l115 110q24 23 31 28q22 17 34 17q21 0 32.5 -14.5t15.5 -55.5l11 -95q2 -22 5 -28q7 -16 23 -16t70 34q26 17 41 27.5t20 6.5t5 -11z
" />
    <glyph glyph-name="i" unicode="i" horiz-adv-x="317" 
d="M314 404q0 -9 -23 -21.5t-48 -12.5q-28 0 -44 17t-16 37q0 8 9 15l52 43q1 1 4 1.5t6 1.5q9 0 34.5 -37.5t25.5 -43.5zM317 128q0 -6 -13 -16t-19 -14l-53 -41q-50 -38 -85 -55q-29 -14 -54 -14q-43 0 -68 31t-25 72q0 55 60.5 137.5t100.5 82.5q18 0 27.5 -12t9.5 -29
q0 -22 -55.5 -63t-55.5 -66q0 -19 23.5 -36t65.5 -17q41 0 71 23.5t61 23.5q9 0 9 -7z" />
    <glyph glyph-name="j" unicode="j" horiz-adv-x="356" 
d="M313 396q0 -9 -23 -21.5t-47 -12.5q-29 0 -47 21q-14 17 -14 33q0 7 10 15l52 43l9 3q10 0 35 -35t25 -46zM356 121q0 -5 -5.5 -10.5t-20.5 -19.5q-26 -24 -61 -65q-61 -72 -92 -106q-28 -111 -63 -174q-40 -72 -80 -72q-11 0 -20.5 8t-12.5 24t-3 22q0 7 2 21
q9 60 49.5 123t104.5 114q4 16 4 62q0 47 -28 78.5t-57 31.5q-19 0 -22 -13.5t-37 -13.5q-5 0 -7 9q0 16 71 68.5t96 52.5q23 0 40 -19q22 -25 22 -71q0 -38 -16 -85q-12 -35 -24 -69q103 80 124.5 96.5t28.5 16.5t7 -9z" />
    <glyph glyph-name="k" unicode="k" horiz-adv-x="506" 
d="M506 130l-7 -10l-149 -122q-20 -16 -41 -16q-18 0 -30.5 9t-22.5 23l-92 135q-19 -22 -69 -103q-28 -46 -52 -46q-15 0 -29 16t-14 40q0 44 59 181.5t124 248.5q75 126 108 126q18 0 25 -25q4 -15 4 -45q0 -53 -19 -97q-24 -55 -89 -119q-76 -75 -112 -116
q-29 -33 -29 -45q0 -8 15 -27q10 -13 22 -23q62 75 135 141q94 84 139 84q27 0 38 -15q8 -10 8 -26q0 -46 -53 -66q-38 -14 -101 -14q-10 0 -20 -0.5t-10 -7.5q0 -5 7 -16l70 -94q10 -13 16 -18q12 -10 26 -10q11 0 27 6.5t49.5 25.5t41.5 24q14 8 19 8q3 0 6 -7z" />
    <glyph glyph-name="l" unicode="l" horiz-adv-x="319" 
d="M319 120q-5 -7 -11 -13q-10 -10 -32 -28q-67 -55 -108 -77t-78 -22q-36 0 -61 23q-29 27 -29 75q0 35 55.5 165.5t113.5 228.5q70 118 105 118q18 0 25 -20q4 -12 4 -34q0 -87 -21 -129q-17 -35 -90 -109q-64 -62 -88 -85q-41 -40 -41 -55q0 -22 44.5 -47t89.5 -25
q54 0 59 21.5t57 21.5q6 0 6 -9z" />
    <glyph glyph-name="m" unicode="m" horiz-adv-x="798" 
d="M798 132q0 -16 -85 -80.5t-112 -64.5q-20 0 -32 16t-19 50l-12 74q-7 45 -31 45q-12 0 -99 -81q-35 -34 -72.5 -68t-57.5 -34q-9 0 -16 4q-13 8 -13 27q0 5 2 12.5t5 14.5l38 98q6 15 6 27q0 11 -3.5 17t-14.5 6q-19 0 -110 -83q-131 -120 -143 -120q-16 0 -22.5 16.5
t-6.5 42.5q0 84 23 132q20 41 69 78q30 23 52.5 31.5t37.5 8.5q12 0 12 -13q0 -6 -3.5 -15t-5.5 -14l-37 -73q-12 -22 -14 -28q-6 -15 -6 -28q0 -6 2 -8.5t8 -4.5q10 0 34 22q29 29 41 40q38 37 82 69q61 44 88 44q42 0 42 -42q0 -13 -6 -31t-21 -55q-10 -25 -10 -33
q0 -13 7 -13t16 9l120 106q23 20 35 26t26 6q30 0 41 -29q6 -15 9.5 -58t5.5 -53q7 -36 28 -36q18 0 65 26.5t48 26.5q9 0 9 -10z" />
    <glyph glyph-name="n" unicode="n" horiz-adv-x="540" 
d="M533 123l-135 -108q-17 -14 -26 -19q-16 -9 -32 -9q-12 0 -19 3q-15 7 -18 25l-21 112q-5 25 -13 35.5t-16 10.5q-7 0 -25.5 -14.5t-73.5 -64.5q-39 -36 -77 -71q-34 -30 -52 -30q-25 0 -25 61q0 76 15.5 120t49.5 68l44 32q13 9 29.5 17.5t27.5 8.5q29 0 29 -17
q0 -12 -45 -80q-22 -33 -22 -68v-7q1 -11 11 -11q7 0 19 11q25 25 50 49q41 40 75 64t52 24q21 0 32 -16q6 -9 11 -31l22 -111q2 -9 6 -14t15 -5q20 0 40 16q47 38 70 38q9 0 9 -8q0 -5 -7 -11z" />
    <glyph glyph-name="o" unicode="o" horiz-adv-x="423" 
d="M433 227q0 -12 -21 -30q-26 -22 -66 -30q-12 -81 -83 -140t-145 -59q-55 0 -86.5 30.5t-31.5 79.5q0 79 84 148q70 57 135 66q8 1 15 -7q0 -41 -63.5 -53t-63.5 -75q0 -31 29.5 -56t73.5 -25q43 0 73 25t41 65q-16 -4 -51 -4q-26 0 -39.5 9.5t-13.5 26.5q0 25 14 58.5
t29 33.5q9 0 16 -4q2 -1 25 -21t31 -25q26 -18 57 -18q23 0 30 1.5t11 3.5z" />
    <glyph glyph-name="p" unicode="p" horiz-adv-x="538" 
d="M508 232q0 -87 -99 -172q-89 -76 -150 -76q-21 0 -28 19q-2 8 -2 12t3.5 20.5t7.5 23.5q9 15 28 15t41.5 -9.5t30.5 -9.5q24 0 44 26t20 65q0 24 -11 39q-14 19 -36 19q-78 0 -143 -140q-19 -41 -58 -161q-35 -108 -56 -149q-33 -66 -72 -66q-16 0 -28 11q-17 15 -17 44
q0 34 18 75q31 72 120 184l3 118q0 25 -5 38q-9 24 -35 24q-14 0 -46 -19q-1 -1 -12 -7.5t-16 -6.5q-2 1 -5 2t-4 4q-3 8 9 16l124 103q13 10 27 15.5t26 5.5q13 0 18.5 -13t5.5 -28q0 -40 -8 -83t-36 -134l51 80q41 64 65 95q75 96 148 96q33 0 53 -16q24 -20 24 -60z" />
    <glyph glyph-name="q" unicode="q" horiz-adv-x="443" 
d="M383 172q0 -33 -16 -77q-22 -60 -83 -171q-21 -39 -43 -82q-25 -50 -25 -75q0 -10 1 -16l-116 -52q-9 -4 -19 -4q-12 0 -19.5 8.5t-7.5 20.5q0 16 140 215q118 168 118 205q0 22 -14 36q-35 -72 -93 -124q-63 -56 -119 -56q-39 0 -63 25t-24 62q0 73 80 134.5t157 61.5
q13 0 13 -10q0 -8 -9.5 -10.5t-21.5 -5.5q-50 -16 -74 -47q-19 -24 -19 -52q0 -26 14.5 -44t39.5 -18q28 0 57 27.5t49 75.5q-11 16 -19 42t-8 48q0 19 14 32t31 13q19 0 30 -12t11 -28q0 -15 -8 -39q25 -29 35.5 -48t10.5 -35z" />
    <glyph glyph-name="r" unicode="r" horiz-adv-x="369" 
d="M369 117q0 -24 -83 -84t-120 -60q-33 0 -59 25t-26 62q0 42 43 84q31 28 47 42t16 22t-28.5 13t-68.5 5l-66 -46q-11 -7 -17 -7q-7 5 -7 7q0 8 7 13l46 43q-7 7 -7 11q0 9 27 35l56 50q17 15 39 15l6 -4q3 -5 0 -11q-8 -11 -15 -21q0 -10 36 -10l48 1q29 0 38 -4.5
t9 -15.5v-12q0 -24 -11 -32q-21 -14 -43.5 -28.5t-41.5 -32.5q-28 -26 -28 -44q0 -24 27 -46t63 -22q18 0 40 12.5t51 38.5q8 8 15 8t7 -7z" />
    <glyph glyph-name="s" unicode="s" horiz-adv-x="331" 
d="M281 171q0 -55 -74.5 -127.5t-133.5 -72.5q-33 0 -53 21t-20 57q0 28 16.5 45.5t37.5 17.5q30 0 35 -38.5t41 -38.5q20 0 42 25t22 48t-25 51q-13 15 -51 46l-78 -52q-5 -3 -10.5 -5.5t-7.5 -2.5q-9 0 -9 9q0 5 15 17l67 56q-9 9 -9 20q2 8 4 9l98 79q11 8 19 8
q9 0 16 -5q12 -9 12 -22q0 -6 -3 -10.5t-11 -13t-8 -15.5q0 -5 13.5 -13t18.5 -12q15 -12 25.5 -35t10.5 -46z" />
    <glyph glyph-name="t" unicode="t" horiz-adv-x="320" 
d="M320 122q0 -29 -90.5 -84.5t-136.5 -55.5q-33 0 -59 27t-26 69t60 147q-34 0 -51 9t-17 21t14 33.5t26 21.5q8 0 30.5 -7t34.5 -8q36 69 49 90q57 91 116 91q18 0 27.5 -7.5t9.5 -16.5q0 -29 -130 -169q30 -5 55 -5q30 0 59 6l15 2q7 -2 7 -5q0 -17 -52.5 -37.5
t-104.5 -20.5q-12 0 -18 1q-9 -14 -20.5 -43t-11.5 -41q0 -19 29 -36.5t70 -17.5q22 0 39 7.5t34 18t21 12.5q10 6 13 6q3 -1 5.5 -2t2.5 -6z" />
    <glyph glyph-name="u" unicode="u" horiz-adv-x="541" 
d="M541 129q0 -5 -12 -17q-17 -17 -64 -56q-42 -35 -70 -53q-42 -27 -69 -27q-29 0 -51 25q-25 28 -25 77q-53 -61 -100 -87q-35 -20 -66 -20q-34 0 -59 27t-25 66q0 51 58 140.5t100 89.5q14 0 28 -12t14 -27q0 -20 -23 -43q-11 -11 -26 -21q-20 -15 -40 -29
q-18 -15 -18 -32q0 -16 24 -31t64 -15q29 0 52 14q36 22 83 84q21 29 43 59q26 32 50 32q14 0 28 -10t14 -23t-9 -26.5t-22 -26.5q-31 -30 -42 -40q-18 -17 -18 -26q0 -12 18.5 -24.5t42.5 -12.5q28 0 55 16l54 38q11 0 11 -9z" />
    <glyph glyph-name="v" unicode="v" horiz-adv-x="449" 
d="M449 126q0 -7 -14 -11.5t-30 -4.5q-19 0 -35 5.5t-28 13.5q-49 -58 -104 -108q-77 -69 -116 -69q-34 0 -48.5 31.5t-14.5 80.5l-3 64q0 3 -0.5 5.5t-1.5 4.5q-4 0 -11 -5.5t-8 -6.5q-19 -14 -26 -14q-9 0 -9 6q0 7 11 18l32 30q40 41 53 55q35 36 49 36q16 0 26 -5.5
t10 -24.5q0 -30 -5.5 -47.5t-5.5 -44.5q0 -34 12.5 -51t31.5 -17q24 0 60 29q27 22 49 48q-12 11 -17 23.5t-5 27.5q0 34 33.5 67.5t66.5 33.5q18 0 28.5 -9.5t10.5 -22.5q0 -23 -35 -64q-16 -19 -16 -36q0 -10 5 -16t21 -6h12q11 0 16.5 -3t5.5 -13z" />
    <glyph glyph-name="w" unicode="w" horiz-adv-x="570" 
d="M570 181q0 -5 -30.5 -14t-61.5 -9l1 -30q0 -89 -46 -155q-42 -61 -88 -61q-57 0 -61 88.5t-57 88.5q-12 0 -25 -10q-37 -27 -74 -53q-43 -27 -79 -27q-20 0 -32 12q-17 17 -17 54q0 93 52 159q69 88 141 88q25 0 25 -20q0 -5 -3.5 -12t-13.5 -20q-39 -45 -53 -63
q-25 -31 -25 -52q0 -15 9 -22t17 -7q6 0 28 6l46 14l17 3q47 0 79 -49t69 -49q27 0 45.5 26.5t18.5 68.5l-2 22q-45 0 -84.5 19t-39.5 40q0 14 23 42t39 28q12 0 34 -19q16 -15 33 -30q32 -27 65 -41z" />
    <glyph glyph-name="x" unicode="x" horiz-adv-x="419" 
d="M419 128q0 -27 -83.5 -87t-130.5 -60q-27 0 -41 17.5t-22 59.5l-9 50l-85 -105q-9 -11 -16.5 -18t-14.5 -7t-12 9.5t-5 18.5q0 22 23 42q53 41 110 85l-12 66q-3 16 -5 20q-6 13 -18 13q-8 0 -20.5 -9.5t-33.5 -28t-28 -18.5q-9 3 -10 7q-3 7 12 20l105 93q20 18 42 18
q20 0 37 -11.5t20 -35.5l8 -55l87 81q13 13 24.5 20.5t17.5 7.5q20 0 20 -13q0 -17 -1 -22.5t-6 -12.5q-64 -35 -92 -52.5t-48 -36.5q6 -56 12 -76q13 -41 40 -41q17 0 83 43q7 4 23 16t21 12q8 0 8 -10z" />
    <glyph glyph-name="y" unicode="y" horiz-adv-x="505" 
d="M505 139q0 -3 -3 -6.5t-8 -7.5l-212 -165q-92 -157 -152 -221q-47 -50 -83 -50q-18 0 -29 7q-18 11 -18 36q0 52 78.5 130.5t202.5 158.5q5 14 9 27.5t4 26.5q0 34 -8 46t-19 12q-14 0 -85 -65q-41 -39 -66.5 -53.5t-45.5 -14.5q-28 0 -47 21q-22 24 -22 66q0 32 15 63
q11 22 34 52q78 101 114 101q31 0 31 -32q0 -14 -44 -55t-44 -57q0 -17 15 -34t39 -17q23 0 42.5 11.5t43.5 34.5q65 69 92 97q46 48 66 48q15 0 25 -12q7 -9 7 -22q0 -33 -34 -103q-27 -55 -58 -103q68 41 136 83q11 6 15 6q9 0 9 -9z" />
    <glyph glyph-name="z" unicode="z" horiz-adv-x="395" 
d="M395 136q0 -24 -50.5 -43.5t-101.5 -19.5q-38 0 -77 10q-15 -13 -26.5 -30t-11.5 -31q0 -30 48 -56q41 -22 72 -22q18 0 29 13t11 27q0 21 -7 29t-7 13q0 10 9 10q14 0 23 -22.5t9 -48.5q0 -42 -37 -75t-86 -33q-55 0 -109.5 38t-54.5 77q0 33 94 123q-10 1 -18.5 5
t-8.5 10q0 11 9.5 23.5t21.5 12.5q9 0 14 -1t29 -9q24 17 24 41q0 8 -10 12t-20 4l-79 5l-58 -44l-13 -7h-6q-1 1 -3.5 3t-3.5 3q0 8 7 14l43 41q-5 8 -5 18q0 11 46 55t64 44q20 0 20 -13q0 -11 -5.5 -16.5t-5.5 -9.5q6 -4 9 -4l66 -4q33 0 48 -13q11 -10 11 -24
q0 -16 -37 -58q-31 -35 -54 -54q15 -3 37.5 -6t39.5 -3q50 0 77 15q15 8 28 8q6 0 6 -7z" />
    <glyph glyph-name="braceleft" unicode="{" horiz-adv-x="400" 
d="M392 573l-6 -25q-53 -5 -76 -46q-14 -24 -23 -85q-13 -85 -40 -124q-38 -55 -131 -83q39 -11 65 -33q31 -26 31 -60q0 -32 -11 -69q-25 -84 -25 -126q0 -22 16.5 -35.5t39.5 -13.5l-6 -26q-89 0 -129 39q-26 25 -26 58q0 15 4 35t14 57q5 17 10 41.5t5 41.5q0 43 -16 60
t-50 17l7 29q44 0 72 29q34 36 51.5 126t44.5 125q53 68 179 68z" />
    <glyph glyph-name="bar" unicode="|" horiz-adv-x="177" 
d="M116 -306h-55v1147h55v-1147z" />
    <glyph glyph-name="braceright" unicode="}" horiz-adv-x="393" 
d="M355 225l-6 -29q-59 0 -89 -53q-20 -35 -32.5 -111.5t-42.5 -115.5q-54 -69 -177 -69l5 26q51 0 75 45q16 29 22 85q11 84 37 124q38 58 131 83q-39 13 -65 35q-32 27 -32 58q0 32 1.5 47.5t10.5 47.5q0 1 13 44q5 15 7 31v26q-3 24 -20 36.5t-36 12.5l5 25q81 0 123 -33
q34 -27 34 -63q0 -23 -6 -47q-14 -54 -18 -72q-7 -29 -7 -57q0 -43 22 -62q16 -14 45 -14z" />
    <glyph glyph-name="asciitilde" unicode="~" horiz-adv-x="447" 
d="M409 390q0 -25 -31 -67q-37 -49 -75 -49q-31 0 -71 24q-88 53 -96 53q-12 0 -25.5 -5.5t-26.5 -20.5q-11 -15 -15 -20q-7 -9 -17 -9q-14 0 -14 20q0 32 42.5 70.5t79.5 38.5q44 0 60 -38t102 -38q24 0 45 30q8 14 12.5 21t13.5 7q16 0 16 -17z" />
    <glyph glyph-name="c128" horiz-adv-x="798" 
d="M798 687q-19 -75 -74 -112q-78 -52 -248 -52q-34 0 -77 5q-80 -127 -121 -217q-25 -56 -36 -101q85 83 178 142q122 77 206 77q48 0 80 -25q43 -34 43 -105q0 -99 -75 -215q-70 -109 -169 -185t-173 -76q-38 0 -61.5 22.5t-23.5 63.5q0 53 40 86t104 33q27 0 27 -2
q0 -13 -38.5 -47.5t-38.5 -70.5q0 -19 9.5 -28t21.5 -9q77 0 171.5 146.5t94.5 268.5q0 52 -22 76q-17 19 -46 19q-59 0 -155 -77q-73 -59 -133 -131q-33 -40 -58 -81t-35 -58q-15 -24 -26.5 -29t-36.5 -5q-22 0 -33 8q-17 12 -17 47q0 34 46 119q33 62 74 121l161 236
q-152 0 -238 15q-60 16 -66 17q-9 10 -31 49.5t-22 47.5q9 3 12 3q179 0 192 -7t224 -7q140 0 226 13q112 32 135 37h9q2 -2 0 -12z" />
    <glyph glyph-name="c128" unicode="&#x402;" horiz-adv-x="798" 
d="M798 687q-19 -75 -74 -112q-78 -52 -248 -52q-34 0 -77 5q-80 -127 -121 -217q-25 -56 -36 -101q85 83 178 142q122 77 206 77q48 0 80 -25q43 -34 43 -105q0 -99 -75 -215q-70 -109 -169 -185t-173 -76q-38 0 -61.5 22.5t-23.5 63.5q0 53 40 86t104 33q27 0 27 -2
q0 -13 -38.5 -47.5t-38.5 -70.5q0 -19 9.5 -28t21.5 -9q77 0 171.5 146.5t94.5 268.5q0 52 -22 76q-17 19 -46 19q-59 0 -155 -77q-73 -59 -133 -131q-33 -40 -58 -81t-35 -58q-15 -24 -26.5 -29t-36.5 -5q-22 0 -33 8q-17 12 -17 47q0 34 46 119q33 62 74 121l161 236
q-152 0 -238 15q-60 16 -66 17q-9 10 -31 49.5t-22 47.5q9 3 12 3q179 0 192 -7t224 -7q140 0 226 13q112 32 135 37h9q2 -2 0 -12z" />
    <glyph glyph-name="c129" horiz-adv-x="742" 
d="M862 701l-30 -74l-157 -24q-57 -156 -113 -270q-80 -163 -163 -250q-103 -109 -214 -109q-74 0 -126 47q-59 53 -59 143q0 102 94 178.5t213 76.5h41q19 0 30.5 -3t11.5 -15q0 -11 -22 -16q-29 -4 -40 -6q-90 -18 -149.5 -79.5t-59.5 -137.5q0 -62 25 -100t66 -38
q87 0 158 104q48 71 111 230q72 183 103 237q-56 -15 -98.5 -22.5t-90.5 -7.5h-75q-88 0 -141 64q-41 49 -41 96q0 6 4 9t7 3q4 0 30 -18q18 -12 39 -18t66 -10.5t76 -4.5h35h31q89 0 125.5 1.5t92.5 6.5q25 32 51 49q30 20 56 20q11 0 11 -14q0 -4 -9 -9.5t-14 -11.5
q-14 -16 -22 -35q43 0 65 1.5t82 6.5z" />
    <glyph glyph-name="c129" unicode="&#x403;" horiz-adv-x="742" 
d="M862 701l-30 -74l-157 -24q-57 -156 -113 -270q-80 -163 -163 -250q-103 -109 -214 -109q-74 0 -126 47q-59 53 -59 143q0 102 94 178.5t213 76.5h41q19 0 30.5 -3t11.5 -15q0 -11 -22 -16q-29 -4 -40 -6q-90 -18 -149.5 -79.5t-59.5 -137.5q0 -62 25 -100t66 -38
q87 0 158 104q48 71 111 230q72 183 103 237q-56 -15 -98.5 -22.5t-90.5 -7.5h-75q-88 0 -141 64q-41 49 -41 96q0 6 4 9t7 3q4 0 30 -18q18 -12 39 -18t66 -10.5t76 -4.5h35h31q89 0 125.5 1.5t92.5 6.5q25 32 51 49q30 20 56 20q11 0 11 -14q0 -4 -9 -9.5t-14 -11.5
q-14 -16 -22 -35q43 0 65 1.5t82 6.5z" />
    <glyph glyph-name="quotesinglbase" unicode="&#x201a;" 
d="M180 -9q0 -26 -47.5 -71.5t-73.5 -45.5q-4 0 -7 7q0 5 8 13q19 18 36.5 34.5t24 27t6.5 19.5q0 12 -7 12q-13 0 -16.5 -7.5t-14.5 -7.5q-20 0 -35 19t-15 38q0 15 10 22l53 43q9 6 10 6q16 0 42 -46.5t26 -62.5z" />
    <glyph glyph-name="florin" unicode="&#x192;" horiz-adv-x="359" 
d="M359 118q0 -8 -12.5 -21.5t-46.5 -41.5t-73 -52q-51 -31 -77 -31q-20 0 -35 18.5t-15 53.5q0 8 2 17.5t8 29.5t17 43q8 16 9 24v4q-4 3 -5 3t-2 1q-30 0 -62 -15q-31 -17 -62 -33l-5 7q0 10 11 17l148 98q19 12 36.5 21t32.5 9q14 0 20.5 -10t6.5 -20t-4 -19l-37 -94
q-6 -14 -6 -34q0 -18 11 -24.5t22 -6.5q19 0 50 20q25 16 46 35q7 7 15 7q7 0 7 -6z" />
    <glyph glyph-name="florin" unicode="&#x453;" horiz-adv-x="359" 
d="M359 118q0 -8 -12.5 -21.5t-46.5 -41.5t-73 -52q-51 -31 -77 -31q-20 0 -35 18.5t-15 53.5q0 8 2 17.5t8 29.5t17 43q8 16 9 24v4q-4 3 -5 3t-2 1q-30 0 -62 -15q-31 -17 -62 -33l-5 7q0 10 11 17l148 98q19 12 36.5 21t32.5 9q14 0 20.5 -10t6.5 -20t-4 -19l-37 -94
q-6 -14 -6 -34q0 -18 11 -24.5t22 -6.5q19 0 50 20q25 16 46 35q7 7 15 7q7 0 7 -6z" />
    <glyph glyph-name="quotedblbase" unicode="&#x201e;" horiz-adv-x="396" 
d="M358 -9q0 -26 -47.5 -71.5t-73.5 -45.5q-4 0 -7 7q0 47 15 60q8 7 32 7q15 0 21.5 4t6.5 23q0 10 -8 10q-4 0 -15 -6.5t-15 -6.5q-20 0 -34.5 18.5t-14.5 37.5q0 15 9 23l53 43q9 6 10 6q16 0 42 -46.5t26 -62.5zM180 -9q0 -26 -47.5 -71.5t-73.5 -45.5q-4 0 -7 7
q0 49 51 63q24 7 24 30q0 11 -9 11l-6 -2q-8 -5 -13 -8t-10 -3q-21 0 -35.5 17.5t-14.5 38.5q0 16 10 23l53 43q9 6 10 6q16 0 42 -46.5t26 -62.5z" />
    <glyph glyph-name="ellipsis" unicode="&#x2026;" horiz-adv-x="569" 
d="M538 11q0 -9 -23 -21.5t-47 -12.5t-42.5 15.5t-18.5 33.5q0 11 10 20l52 43q13 11 41 -21t28 -57zM350 11q0 -9 -23 -21.5t-47 -12.5t-42.5 15.5t-18.5 33.5q0 11 10 20l52 43q13 11 41 -21t28 -57zM162 11q0 -9 -23 -21.5t-47 -12.5t-42.5 15.5t-18.5 33.5q0 11 10 20
l52 43q13 11 41 -21t28 -57z" />
    <glyph glyph-name="dagger" unicode="&#x2020;" horiz-adv-x="574" 
d="M543 407l-18 -36q-2 -4 -4 -7.5t-14 -3.5q-20 0 -30 1q-49 5 -70 5l-69 -1q-68 -112 -96 -229q-19 -78 -19 -146q0 -19 -2 -24.5t-17 -9.5l-84 -20q-16 -4 -27 -4q-15 0 -15 19q0 127 203 412q-95 0 -146 -8q-43 -10 -86 -19q-18 0 -18 16q0 7 7 14l84 78q16 15 33 19
t85 4q19 0 42 -2t49 -5q26 36 45 58q36 42 48 42h28l11 -2q0 -3 -40 -53q-21 -27 -38 -53q106 -16 135 -24.5t23 -20.5z" />
    <glyph glyph-name="daggerdbl" unicode="&#x2021;" horiz-adv-x="573" 
d="M573 496q0 -41 -27.5 -67.5t-64.5 -26.5q-22 0 -30 14t-8 30q0 17 10 31q5 6 22 20q12 9 19 16q12 13 12 24q0 18 -10 26t-28 8q-54 0 -107 -69q-58 -75 -58 -170l89 -4l-2 -27l-91 4q-8 -59 -26 -114q-10 -31 -26 -67q42 -40 80 -61.5t76 -21.5q58 0 96 48q33 41 39 96
q1 14 2.5 30t10.5 16q6 0 7.5 -6.5t1.5 -13.5q0 -94 -55 -169q-63 -86 -161 -86q-53 0 -95 25q-36 21 -59 56q-26 -30 -62.5 -48.5t-69.5 -18.5q-40 0 -53 34q-5 14 -5 29q0 47 43.5 86.5t108.5 39.5q11 0 19.5 -2.5t24.5 -8.5q10 29 17 66.5t12 95.5l-61 2l2 27l66 -3
q12 94 83 172q75 83 164 83q47 0 72 -29q22 -26 22 -66zM165 66q-24 28 -60 28q-34 0 -53 -18t-19 -40q0 -19 10 -28t26 -9q27 0 58 26q22 19 38 41z" />
    <glyph glyph-name="perthousand" unicode="&#x2030;" horiz-adv-x="1180" 
d="M1226 227q0 -12 -19 -28q-25 -21 -68 -32q-12 -80 -80.5 -138.5t-147.5 -58.5q-62 0 -93 36q-25 29 -25 75q0 80 89 150q77 61 130 61q8 0 15 -7q0 -41 -63.5 -53t-63.5 -75q0 -31 29.5 -56t73.5 -25q43 0 73 25t41 65q-16 -4 -51 -4q-26 0 -39.5 9.5t-13.5 26.5
q0 25 14 58.5t29 33.5q9 0 16 -4q2 -1 25 -21t31 -25q26 -18 57 -18q23 0 30 1.5t11 3.5zM846 220q-4 -12 -23 -26q-25 -18 -63 -27q-11 -80 -80.5 -138.5t-147.5 -58.5q-62 0 -93 36q-25 29 -25 75q0 84 95 154q78 57 124 57q8 0 15 -7q0 -41 -63.5 -53t-63.5 -75
q0 -31 29.5 -56t73.5 -25t74 24.5t39 65.5q-16 -4 -50 -4q-26 0 -39.5 9.5t-13.5 26.5q0 25 14 58.5t29 33.5q9 0 15.5 -3.5t25.5 -21.5q24 -22 43 -32.5t45 -10.5q19 0 25.5 1.5t14.5 3.5v-7zM433 441q0 -12 -19 -28q-25 -21 -68 -32q-12 -80 -80.5 -138.5t-147.5 -58.5
q-62 0 -93 36q-25 29 -25 75q0 80 89 150q77 61 130 61q8 0 15 -7q0 -43 -63.5 -54t-63.5 -74q0 -31 29.5 -56t73.5 -25q42 0 73 25t41 65q-16 -4 -51 -4q-26 0 -39.5 9.5t-13.5 26.5q0 25 14 58.5t29 33.5q9 0 16 -4q2 -1 25 -21t31 -25q26 -18 57 -18l17 1q7 0 13 1t11 3z
M636 504l-530 -635l-29 22l529 637z" />
    <glyph glyph-name="Scaron" unicode="&#x160;" horiz-adv-x="1463" 
d="M1463 376q0 -16 -26 -38q-30 -26 -68 -32q-15 -138 -114 -248q-105 -117 -236 -117q-70 0 -121 41q-62 50 -62 143q0 38 3.5 77.5t10.5 84.5q12 83 28 200q11 82 11 105q0 19 -7.5 32t-24.5 13q-127 0 -241 -176q-95 -164 -189 -328q-118 -176 -258 -176q-84 0 -129 56
q-40 50 -40 130q0 103 93.5 179.5t213.5 76.5h41q17 0 29.5 -3t12.5 -16q0 -10 -19 -13q-104 -24 -149 -50q-104 -60 -104 -175q0 -67 22.5 -102.5t61.5 -35.5q75 0 152.5 124.5t153.5 249.5q98 137 189 214q69 59 131 80q34 12 66 12q42 0 66 -16q36 -24 36 -82
q0 -41 -2 -60t-3 -31l-25 -237q-1 -10 -1.5 -19.5t-0.5 -22.5v-13q2 -9 2 -13q8 -67 53 -101q37 -28 90 -28q67 0 132.5 66.5t89.5 153.5q-26 -23 -55.5 -34.5t-54.5 -11.5q-68 0 -93 22q-15 13 -15 36q0 36 49 66t107 30q38 0 57.5 -8t35.5 -34q28 4 60 26q16 11 30 11
q5 0 10 -5q0 -2 1 -3z" />
    <glyph glyph-name="Scaron" unicode="&#x409;" horiz-adv-x="1463" 
d="M1463 376q0 -16 -26 -38q-30 -26 -68 -32q-15 -138 -114 -248q-105 -117 -236 -117q-70 0 -121 41q-62 50 -62 143q0 38 3.5 77.5t10.5 84.5q12 83 28 200q11 82 11 105q0 19 -7.5 32t-24.5 13q-127 0 -241 -176q-95 -164 -189 -328q-118 -176 -258 -176q-84 0 -129 56
q-40 50 -40 130q0 103 93.5 179.5t213.5 76.5h41q17 0 29.5 -3t12.5 -16q0 -10 -19 -13q-104 -24 -149 -50q-104 -60 -104 -175q0 -67 22.5 -102.5t61.5 -35.5q75 0 152.5 124.5t153.5 249.5q98 137 189 214q69 59 131 80q34 12 66 12q42 0 66 -16q36 -24 36 -82
q0 -41 -2 -60t-3 -31l-25 -237q-1 -10 -1.5 -19.5t-0.5 -22.5v-13q2 -9 2 -13q8 -67 53 -101q37 -28 90 -28q67 0 132.5 66.5t89.5 153.5q-26 -23 -55.5 -34.5t-54.5 -11.5q-68 0 -93 22q-15 13 -15 36q0 36 49 66t107 30q38 0 57.5 -8t35.5 -34q28 4 60 26q16 11 30 11
q5 0 10 -5q0 -2 1 -3z" />
    <glyph glyph-name="guilsinglleft" unicode="&#x2039;" horiz-adv-x="249" 
d="M249 301l-114 -137l57 -131l-14 -10l-140 141l201 147z" />
    <glyph glyph-name="OE" unicode="&#x152;" horiz-adv-x="1337" 
d="M1337 369q0 -17 -32.5 -41.5t-61.5 -29.5q-15 -151 -146 -261q-122 -102 -256 -102q-84 0 -135.5 48.5t-51.5 133.5q0 51 19.5 100.5t58.5 93.5q-75 -36 -135 -53q-73 -21 -143 -21q-74 -144 -179.5 -239.5t-189.5 -95.5q-39 0 -62 29q-18 23 -23 55q-1 4 -1 13
q1 14 1 22q6 49 40 99q47 69 135 121q113 66 279 97q45 81 89 169q-31 -29 -65 -29q-38 0 -65.5 31t-27.5 68q0 15 14 15q5 0 15 -2.5t17 -2.5q21 0 65 40q49 44 98 89q10 0 16 -3l73 -45q6 -5 6 -11q0 -9 -36 -58q-26 -35 -43 -65q-23 -39 -45 -77q-26 -47 -51 -105l286 49
q42 49 117 150.5t100 131.5q46 55 65 55q8 0 14.5 -5t8 -13t1.5 -15q0 -9 -1 -13q-10 -86 -64 -155q-35 -45 -114 -107q-94 -74 -124.5 -125.5t-30.5 -107.5q0 -70 49 -112q45 -38 113 -38q91 0 169 68t102 159q-23 -20 -43 -30q-31 -16 -67 -16q-58 0 -83 14.5t-25 42.5
q0 38 54.5 67.5t101.5 29.5q36 0 56.5 -8.5t36.5 -34.5q28 4 54 28q11 10 36 10q5 0 10 -5q0 -2 1 -3zM402 229q-192 -17 -292 -98q-78 -63 -78 -135q0 -27 18 -44t46 -17q64 0 152.5 84t153.5 210z" />
    <glyph glyph-name="OE" unicode="&#x40a;" horiz-adv-x="1337" 
d="M1337 369q0 -17 -32.5 -41.5t-61.5 -29.5q-15 -151 -146 -261q-122 -102 -256 -102q-84 0 -135.5 48.5t-51.5 133.5q0 51 19.5 100.5t58.5 93.5q-75 -36 -135 -53q-73 -21 -143 -21q-74 -144 -179.5 -239.5t-189.5 -95.5q-39 0 -62 29q-18 23 -23 55q-1 4 -1 13
q1 14 1 22q6 49 40 99q47 69 135 121q113 66 279 97q45 81 89 169q-31 -29 -65 -29q-38 0 -65.5 31t-27.5 68q0 15 14 15q5 0 15 -2.5t17 -2.5q21 0 65 40q49 44 98 89q10 0 16 -3l73 -45q6 -5 6 -11q0 -9 -36 -58q-26 -35 -43 -65q-23 -39 -45 -77q-26 -47 -51 -105l286 49
q42 49 117 150.5t100 131.5q46 55 65 55q8 0 14.5 -5t8 -13t1.5 -15q0 -9 -1 -13q-10 -86 -64 -155q-35 -45 -114 -107q-94 -74 -124.5 -125.5t-30.5 -107.5q0 -70 49 -112q45 -38 113 -38q91 0 169 68t102 159q-23 -20 -43 -30q-31 -16 -67 -16q-58 0 -83 14.5t-25 42.5
q0 38 54.5 67.5t101.5 29.5q36 0 56.5 -8.5t36.5 -34.5q28 4 54 28q11 10 36 10q5 0 10 -5q0 -2 1 -3zM402 229q-192 -17 -292 -98q-78 -63 -78 -135q0 -27 18 -44t46 -17q64 0 152.5 84t153.5 210z" />
    <glyph glyph-name="c141" horiz-adv-x="1121" 
d="M1121 153q0 -75 -56 -130q-66 -64 -179 -64q-111 0 -209 69q-80 56 -147 157q-53 80 -86 169q-62 -58 -172 -176q-92 -99 -126 -128q-58 -50 -99 -50q-25 0 -36 12.5t-11 29.5q0 30 27 82q40 77 143 215q17 22 34 45t15 42q-38 -3 -71.5 34.5t-33.5 66.5q0 10 13 10
q4 0 15 -5t25 -5q112 0 112 93.5t158 93.5q15 0 15 -18q0 -78 -47 -145q-31 -44 -102.5 -107t-90.5 -90l-84 -117l-24 -33q-13 -18 -13 -27l1 -8q2 -2 3.5 -2.5l4.5 -1.5q7 0 24.5 12t84.5 62q88 65 206 151q232 169 367 240q122 64 196 64q52 0 76 -27q21 -24 21 -71
q0 -66 -79 -147q-75 -76 -121 -76q-9 0 -9 8q0 5 7 12q39 37 56 70q13 26 13 49q0 48 -25 74q-21 22 -51 22q-60 0 -169 -61q-85 -48 -158 -106q75 -177 196.5 -298.5t224.5 -121.5q57 0 96.5 36.5t39.5 89.5q0 19 -4 36t-4 24q0 6 5 9t12 0q9 -4 12.5 -25t3.5 -38z" />
    <glyph glyph-name="c141" unicode="&#x40c;" horiz-adv-x="1121" 
d="M1121 153q0 -75 -56 -130q-66 -64 -179 -64q-111 0 -209 69q-80 56 -147 157q-53 80 -86 169q-62 -58 -172 -176q-92 -99 -126 -128q-58 -50 -99 -50q-25 0 -36 12.5t-11 29.5q0 30 27 82q40 77 143 215q17 22 34 45t15 42q-38 -3 -71.5 34.5t-33.5 66.5q0 10 13 10
q4 0 15 -5t25 -5q112 0 112 93.5t158 93.5q15 0 15 -18q0 -78 -47 -145q-31 -44 -102.5 -107t-90.5 -90l-84 -117l-24 -33q-13 -18 -13 -27l1 -8q2 -2 3.5 -2.5l4.5 -1.5q7 0 24.5 12t84.5 62q88 65 206 151q232 169 367 240q122 64 196 64q52 0 76 -27q21 -24 21 -71
q0 -66 -79 -147q-75 -76 -121 -76q-9 0 -9 8q0 5 7 12q39 37 56 70q13 26 13 49q0 48 -25 74q-21 22 -51 22q-60 0 -169 -61q-85 -48 -158 -106q75 -177 196.5 -298.5t224.5 -121.5q57 0 96.5 36.5t39.5 89.5q0 19 -4 36t-4 24q0 6 5 9t12 0q9 -4 12.5 -25t3.5 -38z" />
    <glyph glyph-name="c142" horiz-adv-x="825" 
d="M825 63q0 -7 -7.5 -13.5t-13.5 -11.5l-73 -63q-12 -10 -30 -19.5t-32 -9.5q-19 0 -31 9q-21 16 -28 58l-43 270q-8 44 -11 53q-12 31 -40 31q-27 0 -122 -87q-77 -71 -127 -127q-29 -32 -51 -67q-16 -26 -31 -51t-26.5 -30t-35.5 -5q-23 0 -33 6q-20 12 -20 49
q0 36 51 123q28 49 75 117l161 236q-24 2 -140 12q-74 6 -112 12l-52 8q-9 10 -31 49.5t-22 47.5q9 3 13 3q9 0 56 -4t88 -4q48 0 84 -1q178 -5 188 -5q188 0 282 26l78 24h9q2 -2 0 -12q-18 -71 -68 -109q-74 -56 -229 -56q-51 0 -102 6q-45 -70 -89 -155q-50 -97 -68 -155
q268 206 337 206q52 0 79 -34q17 -22 23 -57l26 -172l8 -74q8 -40 34 -40q17 0 35 12.5t32 12.5q9 -3 9 -9z" />
    <glyph glyph-name="c142" unicode="&#x40b;" horiz-adv-x="825" 
d="M825 63q0 -7 -7.5 -13.5t-13.5 -11.5l-73 -63q-12 -10 -30 -19.5t-32 -9.5q-19 0 -31 9q-21 16 -28 58l-43 270q-8 44 -11 53q-12 31 -40 31q-27 0 -122 -87q-77 -71 -127 -127q-29 -32 -51 -67q-16 -26 -31 -51t-26.5 -30t-35.5 -5q-23 0 -33 6q-20 12 -20 49
q0 36 51 123q28 49 75 117l161 236q-24 2 -140 12q-74 6 -112 12l-52 8q-9 10 -31 49.5t-22 47.5q9 3 13 3q9 0 56 -4t88 -4q48 0 84 -1q178 -5 188 -5q188 0 282 26l78 24h9q2 -2 0 -12q-18 -71 -68 -109q-74 -56 -229 -56q-51 0 -102 6q-45 -70 -89 -155q-50 -97 -68 -155
q268 206 337 206q52 0 79 -34q17 -22 23 -57l26 -172l8 -74q8 -40 34 -40q17 0 35 12.5t32 12.5q9 -3 9 -9z" />
    <glyph glyph-name="c143" horiz-adv-x="1093" 
d="M1093 226q0 -6 -12 -16l-109 -92q-27 -23 -53 -36t-43 -13q-49 0 -68 91q-15 72 -15 232q-144 -212 -299 -309q-132 -83 -273 -83q-88 0 -133 42q-38 36 -38 92q0 67 52 166q41 74 63 113q-35 -3 -66 22.5t-31 45.5q0 6 8.5 4.5t19.5 -2.5q13 0 23.5 5t43.5 32
q25 21 48 42q52 50 94 100q49 58 51 58q9 0 17.5 -30t8.5 -63q0 -75 -52 -132q-29 -32 -85 -63q-68 -38 -98 -106q-20 -45 -20 -88q0 -56 40 -88t114 -32q97 0 187 33.5t168 101.5q59 52 98 102q56 72 56 124q0 61 40 86q25 16 60 16q19 0 22 -116t16 -210q7 -46 17.5 -62
t31.5 -16q11 0 24 8l72 43q11 6 14 6q6 0 6 -8zM725 71q0 -10 -15 -17q-46 -22 -81 -88q-21 -38 -38 -99q-30 -105 -41 -113q-6 -3 -14.5 -3.5t-13.5 -0.5q-24 0 -44.5 22.5t-25 40.5t-4.5 30q0 15 3 30q18 90 93 152q69 57 137 57q23 0 33.5 -2t10.5 -9z" />
    <glyph glyph-name="c143" unicode="&#x40f;" horiz-adv-x="1093" 
d="M1093 226q0 -6 -12 -16l-109 -92q-27 -23 -53 -36t-43 -13q-49 0 -68 91q-15 72 -15 232q-144 -212 -299 -309q-132 -83 -273 -83q-88 0 -133 42q-38 36 -38 92q0 67 52 166q41 74 63 113q-35 -3 -66 22.5t-31 45.5q0 6 8.5 4.5t19.5 -2.5q13 0 23.5 5t43.5 32
q25 21 48 42q52 50 94 100q49 58 51 58q9 0 17.5 -30t8.5 -63q0 -75 -52 -132q-29 -32 -85 -63q-68 -38 -98 -106q-20 -45 -20 -88q0 -56 40 -88t114 -32q97 0 187 33.5t168 101.5q59 52 98 102q56 72 56 124q0 61 40 86q25 16 60 16q19 0 22 -116t16 -210q7 -46 17.5 -62
t31.5 -16q11 0 24 8l72 43q11 6 14 6q6 0 6 -8zM725 71q0 -10 -15 -17q-46 -22 -81 -88q-21 -38 -38 -99q-30 -105 -41 -113q-6 -3 -14.5 -3.5t-13.5 -0.5q-24 0 -44.5 22.5t-25 40.5t-4.5 30q0 15 3 30q18 90 93 152q69 57 137 57q23 0 33.5 -2t10.5 -9z" />
    <glyph glyph-name="c144" horiz-adv-x="414" 
d="M414 198q0 -119 -66 -221q-76 -118 -191 -118q-40 0 -61 11q-14 7 -22 21q118 41 162 75q73 56 73 154q0 32 -10.5 50t-25.5 18q-9 0 -19.5 -5.5t-19.5 -14.5l-137 -132q-14 -14 -27 -23q-19 -13 -32 -13q-18 0 -28 27.5t-10 67.5q0 41 43 131q32 68 113 208q-33 0 -66 6
t-38 20v12q3 8 26 24t41 25q9 -3 32.5 -10t45.5 -7q38 68 64 97q21 23 37 23q18 0 24 -17t6 -38q0 -42 -10 -75q28 0 53 5t31 5q8 -2 8 -4v-4q-4 -14 -42.5 -32t-72.5 -23q-40 -60 -97 -118q-41 -39 -81 -77q-33 -33 -33 -52q0 -18 16 -44.5t32 -26.5q17 0 28 10l121 110
q22 20 35 29q23 16 43 16q27 0 41 -26.5t14 -63.5z" />
    <glyph glyph-name="c144" unicode="&#x452;" horiz-adv-x="414" 
d="M414 198q0 -119 -66 -221q-76 -118 -191 -118q-40 0 -61 11q-14 7 -22 21q118 41 162 75q73 56 73 154q0 32 -10.5 50t-25.5 18q-9 0 -19.5 -5.5t-19.5 -14.5l-137 -132q-14 -14 -27 -23q-19 -13 -32 -13q-18 0 -28 27.5t-10 67.5q0 41 43 131q32 68 113 208q-33 0 -66 6
t-38 20v12q3 8 26 24t41 25q9 -3 32.5 -10t45.5 -7q38 68 64 97q21 23 37 23q18 0 24 -17t6 -38q0 -42 -10 -75q28 0 53 5t31 5q8 -2 8 -4v-4q-4 -14 -42.5 -32t-72.5 -23q-40 -60 -97 -118q-41 -39 -81 -77q-33 -33 -33 -52q0 -18 16 -44.5t32 -26.5q17 0 28 10l121 110
q22 20 35 29q23 16 43 16q27 0 41 -26.5t14 -63.5z" />
    <glyph glyph-name="quoteleft" unicode="&#x2018;" 
d="M169 459l-53 -43q-9 -6 -10 -6q-16 0 -42 46.5t-26 62.5q0 26 47.5 71.5t73.5 45.5q4 0 7 -7q0 -5 -8 -13l-38 -36q-15 -15 -22 -26t-7 -19q0 -11 6 -11q3 0 17 7.5t17 7.5q20 0 33.5 -18t13.5 -39q0 -17 -9 -23z" />
    <glyph glyph-name="quoteright" unicode="&#x2019;" 
d="M180 527q0 -26 -47.5 -71.5t-73.5 -45.5q-4 0 -7 7q0 5 8 13q19 18 37 35.5t24 27t6 18.5q0 11 -7 11q-9 0 -15.5 -7t-15.5 -7q-20 0 -34.5 18.5t-14.5 37.5q0 15 9 23l53 43q9 6 10 6q16 0 42 -46.5t26 -62.5z" />
    <glyph glyph-name="quotedblleft" unicode="&#x201c;" horiz-adv-x="396" 
d="M347 452l-53 -43q-9 -6 -10 -6q-16 0 -42 46.5t-26 62.5q0 26 47.5 71.5t73.5 45.5q4 0 7 -7q0 -5 -8 -13l-38 -36q-15 -15 -22 -26t-7 -19q0 -11 6 -11q3 0 11 7t21 7q20 0 34.5 -18.5t14.5 -37.5q0 -15 -9 -23zM169 452l-53 -43q-9 -6 -10 -6q-16 0 -42 46.5t-26 62.5
q0 26 47.5 71.5t73.5 45.5q4 0 7 -7q0 -5 -8 -13q-19 -18 -36.5 -34.5t-24 -27.5t-6.5 -19q0 -10 7 -10q1 0 11.5 6.5t19.5 6.5q20 0 34.5 -18.5t14.5 -37.5q0 -15 -9 -23z" />
    <glyph glyph-name="quotedblright" unicode="&#x201d;" horiz-adv-x="396" 
d="M358 520q0 -26 -47.5 -71.5t-73.5 -45.5q-4 0 -7 7q0 6 37.5 41.5t37.5 52.5q0 2 -2 5t-3 5q-3 0 -11 -4q-18 -9 -22 -9q-20 0 -34.5 18.5t-14.5 37.5q0 15 9 23l53 43q9 6 10 6q16 0 42 -46.5t26 -62.5zM180 520q0 -26 -47.5 -71.5t-73.5 -45.5q-4 0 -7 7q0 5 8 13
l38 36q29 28 29 45q0 3 -3 7q-2 1 -3 3q-3 0 -9 -4q-15 -9 -23 -9q-20 0 -34.5 18.5t-14.5 37.5q0 15 9 23l53 43q9 6 10 6q16 0 42 -46.5t26 -62.5z" />
    <glyph glyph-name="bullet" unicode="&#x2022;" horiz-adv-x="292" 
d="M254 225q0 -54 -29 -89t-80 -35q-59 0 -87 48q-20 35 -20 76q0 67 37 100q30 27 70 27q42 0 71 -26q38 -34 38 -101z" />
    <glyph glyph-name="endash" unicode="&#x2013;" horiz-adv-x="487" 
d="M441 192h-395v51h395v-51z" />
    <glyph glyph-name="emdash" unicode="&#x2014;" horiz-adv-x="583" 
d="M545 145h-507v51h507v-51z" />
    <glyph glyph-name="trademark" unicode="&#x2122;" horiz-adv-x="667" 
d="M636 405h-127v12q18 0 24 9t6 32v127l-89 -182h-7l-90 181v-126q0 -22 6.5 -31.5t24.5 -9.5v-12h-93v12q19 0 28 7.5t9 16.5v155q0 27 -8 33q-3 2 -29 8v12h99l76 -157l78 157h92v-12q-11 -2 -24 -5t-13 -36v-138q0 -21 6 -31t31 -10v-12zM265 574h-12q-4 25 -17.5 38.5
t-37.5 13.5h-19v-185q0 -9 8.5 -16.5t28.5 -7.5v-12h-135v12q19 0 28 7.5t9 16.5v185h-20q-25 0 -35.5 -10.5t-19.5 -41.5h-12l7 75h221z" />
    <glyph glyph-name="scaron" unicode="&#x161;" horiz-adv-x="581" 
d="M581 144q0 -11 -20.5 -26t-43.5 -18q-22 -58 -64.5 -93t-87.5 -35q-27 0 -47 17q-25 22 -25 66l1 31q3 24 6.5 49t3.5 36q0 10 -3 16q-6 12 -23 12q-16 0 -43.5 -25.5t-90.5 -96.5q-14 -17 -28 -33q-10 -11 -32 -31q-8 -8 -21 -15t-25 -7q-15 0 -26.5 17.5t-11.5 47.5
q0 45 23 77t53 32q16 0 24 -8t8 -20q0 -17 -15 -34q-7 -8 -7 -15q0 -8 11 -8q8 0 26 15t72 69q61 61 106.5 94.5t68.5 33.5q17 0 26 -7q14 -11 14 -35l-2 -20q-6 -43 -11 -78t-5 -46q0 -29 16 -45q13 -13 31 -13q17 0 32.5 16t22.5 36q-23 2 -39 18t-16 38q0 15 11.5 26.5
t29.5 11.5q19 0 31.5 -17.5t12.5 -46.5q17 0 27 11t23 11q3 0 6 -5q0 -2 1 -3z" />
    <glyph glyph-name="scaron" unicode="&#x459;" horiz-adv-x="581" 
d="M581 144q0 -11 -20.5 -26t-43.5 -18q-22 -58 -64.5 -93t-87.5 -35q-27 0 -47 17q-25 22 -25 66l1 31q3 24 6.5 49t3.5 36q0 10 -3 16q-6 12 -23 12q-16 0 -43.5 -25.5t-90.5 -96.5q-14 -17 -28 -33q-10 -11 -32 -31q-8 -8 -21 -15t-25 -7q-15 0 -26.5 17.5t-11.5 47.5
q0 45 23 77t53 32q16 0 24 -8t8 -20q0 -17 -15 -34q-7 -8 -7 -15q0 -8 11 -8q8 0 26 15t72 69q61 61 106.5 94.5t68.5 33.5q17 0 26 -7q14 -11 14 -35l-2 -20q-6 -43 -11 -78t-5 -46q0 -29 16 -45q13 -13 31 -13q17 0 32.5 16t22.5 36q-23 2 -39 18t-16 38q0 15 11.5 26.5
t29.5 11.5q19 0 31.5 -17.5t12.5 -46.5q17 0 27 11t23 11q3 0 6 -5q0 -2 1 -3z" />
    <glyph glyph-name="guilsinglright" unicode="&#x203a;" horiz-adv-x="248" 
d="M210 172l-200 -149l-10 10l115 139l-58 129l15 10z" />
    <glyph glyph-name="oe" unicode="&#x153;" horiz-adv-x="586" 
d="M586 144q0 -19 -35 -35q-16 -8 -29 -9q-20 -52 -59 -88q-44 -40 -93 -40q-41 0 -69 18q-44 28 -44 93q-2 15 -10 13l-34 -15q-17 -8 -43 -15.5t-43 -11.5q-25 -3 -32.5 -3.5t-9.5 -11.5q-6 -24 -9 -28q-11 -18 -37 -18q-18 0 -28.5 26.5t-10.5 68.5v33q0 84 59 136
q48 43 98 43q28 0 28 -17q0 -75 -29.5 -89t-35.5 -59v-11l3 -6q3 -3 10 -1q36 7 54 12t56 22q22 10 29 29t16 36q14 27 29 37q9 6 30 11.5t40.5 10t26.5 4.5q23 0 23 -13q-1 -3 -1 -6q-6 -20 -28 -53q-12 -16 -24 -34.5t-12 -35.5q0 -28 20.5 -50.5t50.5 -22.5q14 0 28 10
t26 26q-24 4 -38.5 20.5t-14.5 35.5q0 15 11.5 26.5t29.5 11.5q19 0 31.5 -17.5t12.5 -46.5q15 0 27 11t23 11q7 0 7 -8z" />
    <glyph glyph-name="oe" unicode="&#x45a;" horiz-adv-x="586" 
d="M586 144q0 -19 -35 -35q-16 -8 -29 -9q-20 -52 -59 -88q-44 -40 -93 -40q-41 0 -69 18q-44 28 -44 93q-2 15 -10 13l-34 -15q-17 -8 -43 -15.5t-43 -11.5q-25 -3 -32.5 -3.5t-9.5 -11.5q-6 -24 -9 -28q-11 -18 -37 -18q-18 0 -28.5 26.5t-10.5 68.5v33q0 84 59 136
q48 43 98 43q28 0 28 -17q0 -75 -29.5 -89t-35.5 -59v-11l3 -6q3 -3 10 -1q36 7 54 12t56 22q22 10 29 29t16 36q14 27 29 37q9 6 30 11.5t40.5 10t26.5 4.5q23 0 23 -13q-1 -3 -1 -6q-6 -20 -28 -53q-12 -16 -24 -34.5t-12 -35.5q0 -28 20.5 -50.5t50.5 -22.5q14 0 28 10
t26 26q-24 4 -38.5 20.5t-14.5 35.5q0 15 11.5 26.5t29.5 11.5q19 0 31.5 -17.5t12.5 -46.5q15 0 27 11t23 11q7 0 7 -8z" />
    <glyph glyph-name="c157" horiz-adv-x="514" 
d="M514 106q0 -7 -79 -65q-28 -21 -63 -45q-20 -14 -30 -19q-18 -9 -34 -9t-28 5q-20 8 -33 29l-82 132q-33 -33 -72 -92q-28 -42 -40 -42q-17 0 -33 14q-20 17 -20 44q0 42 47 149q52 118 86 118q15 0 33.5 -15t18.5 -31q0 -9 -7 -19q-2 -3 -34 -38q-15 -17 -30 -35
t-15 -33q0 -14 4 -24t11 -18q89 90 156 142q52 41 89 57q25 11 41 11q45 0 45 -43q0 -34 -32.5 -53t-83.5 -19h-43q-9 0 -20 -0.5t-11 -6.5l7 -16l65 -98q10 -14 16 -20q11 -10 24 -10q21 0 71 28.5t67 28.5q5 0 8 -5q0 -1 1 -2z" />
    <glyph glyph-name="c157" unicode="&#x45c;" horiz-adv-x="514" 
d="M514 106q0 -7 -79 -65q-28 -21 -63 -45q-20 -14 -30 -19q-18 -9 -34 -9t-28 5q-20 8 -33 29l-82 132q-33 -33 -72 -92q-28 -42 -40 -42q-17 0 -33 14q-20 17 -20 44q0 42 47 149q52 118 86 118q15 0 33.5 -15t18.5 -31q0 -9 -7 -19q-2 -3 -34 -38q-15 -17 -30 -35
t-15 -33q0 -14 4 -24t11 -18q89 90 156 142q52 41 89 57q25 11 41 11q45 0 45 -43q0 -34 -32.5 -53t-83.5 -19h-43q-9 0 -20 -0.5t-11 -6.5l7 -16l65 -98q10 -14 16 -20q11 -10 24 -10q21 0 71 28.5t67 28.5q5 0 8 -5q0 -1 1 -2z" />
    <glyph glyph-name="c158" horiz-adv-x="563" 
d="M563 136q0 -4 -26 -28l-72 -68q-28 -27 -48 -41q-32 -22 -59 -22q-21 0 -38 14t-21 42l-15 122q-1 14 -3 18q-5 13 -24 13q-10 0 -19 -6q-3 -2 -13 -12l-128 -132q-13 -13 -24 -21q-21 -15 -35 -15q-18 0 -28 27.5t-10 67.5q0 31 19 79q15 39 55 113q31 59 82 147
q-33 0 -66 6t-38 20v12q3 8 26 24t41 25q9 -3 32.5 -10t45.5 -7q38 68 64 97q21 23 37 23q18 0 24 -17t6 -38q0 -42 -10 -75q47 0 62 5t22 5q8 -2 8 -4v-4q-4 -15 -42 -32.5t-73 -22.5q-37 -57 -103 -122q-107 -106 -107 -125q0 -18 15 -44.5t32 -26.5q18 0 28 10l115 110
q46 45 71 45q24 0 34 -25q4 -10 8 -45l11 -95q2 -22 5 -28q7 -16 23 -16t70 34q26 17 41 27.5t20 6.5t5 -11z" />
    <glyph glyph-name="c158" unicode="&#x45b;" horiz-adv-x="563" 
d="M563 136q0 -4 -26 -28l-72 -68q-28 -27 -48 -41q-32 -22 -59 -22q-21 0 -38 14t-21 42l-15 122q-1 14 -3 18q-5 13 -24 13q-10 0 -19 -6q-3 -2 -13 -12l-128 -132q-13 -13 -24 -21q-21 -15 -35 -15q-18 0 -28 27.5t-10 67.5q0 31 19 79q15 39 55 113q31 59 82 147
q-33 0 -66 6t-38 20v12q3 8 26 24t41 25q9 -3 32.5 -10t45.5 -7q38 68 64 97q21 23 37 23q18 0 24 -17t6 -38q0 -42 -10 -75q47 0 62 5t22 5q8 -2 8 -4v-4q-4 -15 -42 -32.5t-73 -22.5q-37 -57 -103 -122q-107 -106 -107 -125q0 -18 15 -44.5t32 -26.5q18 0 28 10l115 110
q46 45 71 45q24 0 34 -25q4 -10 8 -45l11 -95q2 -22 5 -28q7 -16 23 -16t70 34q26 17 41 27.5t20 6.5t5 -11z" />
    <glyph glyph-name="Ydieresis" unicode="&#x178;" horiz-adv-x="541" 
d="M541 129q0 -4 -15 -19q-65 -63 -121 -100q-52 -34 -79 -34q-31 0 -53.5 29.5t-22.5 72.5q-53 -61 -100 -87q-35 -20 -66 -20q-33 0 -57 26q-27 29 -27 76q0 53 61 137t97 84q14 0 28 -12t14 -27q0 -20 -23 -43q-11 -11 -26 -21q-20 -15 -40 -29q-18 -15 -18 -32
q0 -16 24 -31t64 -15q29 0 52 14q36 22 83 84q21 29 43 59q26 32 50 32q14 0 28 -10t14 -23t-9 -26.5t-22 -26.5q-31 -30 -42 -40q-18 -17 -18 -26q0 -11 19.5 -24t41.5 -13q35 0 64 27t45 27q11 0 11 -9zM225 -50q-16 -84 -40 -119q-17 -24 -36 -24t-32 9t-13 23
q0 19 34 61q26 32 55 59q8 7 12.5 9t9.5 3q3 -1 6 -3t4 -7v-11z" />
    <glyph glyph-name="Ydieresis" unicode="&#x45f;" horiz-adv-x="541" 
d="M541 129q0 -4 -15 -19q-65 -63 -121 -100q-52 -34 -79 -34q-31 0 -53.5 29.5t-22.5 72.5q-53 -61 -100 -87q-35 -20 -66 -20q-33 0 -57 26q-27 29 -27 76q0 53 61 137t97 84q14 0 28 -12t14 -27q0 -20 -23 -43q-11 -11 -26 -21q-20 -15 -40 -29q-18 -15 -18 -32
q0 -16 24 -31t64 -15q29 0 52 14q36 22 83 84q21 29 43 59q26 32 50 32q14 0 28 -10t14 -23t-9 -26.5t-22 -26.5q-31 -30 -42 -40q-18 -17 -18 -26q0 -11 19.5 -24t41.5 -13q35 0 64 27t45 27q11 0 11 -9zM225 -50q-16 -84 -40 -119q-17 -24 -36 -24t-32 9t-13 23
q0 19 34 61q26 32 55 59q8 7 12.5 9t9.5 3q3 -1 6 -3t4 -7v-11z" />
    <glyph glyph-name="nonbreakingspace" unicode="&#xa0;" horiz-adv-x="500" 
 />
    <glyph glyph-name="exclamdown" unicode="&#xa1;" horiz-adv-x="909" 
d="M907 822q0 -39 -123 -107t-203 -68q-68 0 -107 42q-33 35 -33 83t27.5 113t50.5 65q21 0 21 -13q0 -34 -12 -50t-12 -40q0 -43 43.5 -78.5t102.5 -35.5q44 0 95 17.5t94 50.5q13 10 26.5 20.5t20.5 10.5q9 0 9 -10zM909 627q0 -66 -76 -228q-68 -144 -135 -242
q58 0 80 -9q15 -6 15 -16q0 -14 -18 -14q-3 0 -32 5t-65 5q-50 -71 -113 -130q-77 -72 -165 -114q-105 -50 -213 -50q-84 0 -135.5 27.5t-51.5 71.5q0 86 134 151q155 75 414 75l85 -1q35 70 62 144q34 93 34 138q0 17 -3.5 23.5t-11.5 6.5q-37 0 -105 -53
q-105 -82 -135 -100q-91 -54 -180 -54q-62 0 -106 38q-50 43 -50 117q0 86 75 198t120 112q13 0 25.5 -7t12.5 -19q0 -75 -75.5 -93t-75.5 -98q0 -61 51.5 -105t130.5 -44q73 0 153 44q65 36 143 106q33 30 88 84q66 65 90 65q17 0 25 -12t8 -22zM614 129h-73
q-141 0 -283 -36q-177 -45 -177 -115q0 -37 30 -61q37 -29 114 -29q124 0 232 71q100 66 157 170z" />
    <glyph glyph-name="exclamdown" unicode="&#x40e;" horiz-adv-x="909" 
d="M907 822q0 -39 -123 -107t-203 -68q-68 0 -107 42q-33 35 -33 83t27.5 113t50.5 65q21 0 21 -13q0 -34 -12 -50t-12 -40q0 -43 43.5 -78.5t102.5 -35.5q44 0 95 17.5t94 50.5q13 10 26.5 20.5t20.5 10.5q9 0 9 -10zM909 627q0 -66 -76 -228q-68 -144 -135 -242
q58 0 80 -9q15 -6 15 -16q0 -14 -18 -14q-3 0 -32 5t-65 5q-50 -71 -113 -130q-77 -72 -165 -114q-105 -50 -213 -50q-84 0 -135.5 27.5t-51.5 71.5q0 86 134 151q155 75 414 75l85 -1q35 70 62 144q34 93 34 138q0 17 -3.5 23.5t-11.5 6.5q-37 0 -105 -53
q-105 -82 -135 -100q-91 -54 -180 -54q-62 0 -106 38q-50 43 -50 117q0 86 75 198t120 112q13 0 25.5 -7t12.5 -19q0 -75 -75.5 -93t-75.5 -98q0 -61 51.5 -105t130.5 -44q73 0 153 44q65 36 143 106q33 30 88 84q66 65 90 65q17 0 25 -12t8 -22zM614 129h-73
q-141 0 -283 -36q-177 -45 -177 -115q0 -37 30 -61q37 -29 114 -29q124 0 232 71q100 66 157 170z" />
    <glyph glyph-name="cent" unicode="&#xa2;" horiz-adv-x="505" 
d="M436 409q-24 -41 -66 -67t-85 -26q-28 0 -42 21q-10 15 -10 34q0 22 19 68.5t34 46.5q5 0 7 -4t2 -8l-3 -10q-4 -7 -7 -12t-3 -9q0 -19 30.5 -34.5t72.5 -15.5q12 0 28 6q3 1 23 10zM505 139q0 -3 -3 -6.5t-8 -7.5l-212 -165q-92 -157 -152 -221q-47 -50 -83 -50
q-18 0 -29 7q-18 11 -18 36q0 52 78.5 130.5t202.5 158.5q5 14 9 27.5t4 26.5q0 34 -8 46t-19 12q-14 0 -85 -65q-41 -39 -66.5 -53.5t-45.5 -14.5q-28 0 -47 21q-22 24 -22 66q0 32 15 63q11 22 34 52q78 101 114 101q31 0 31 -32q0 -14 -44 -55t-44 -57q0 -17 15 -34
t39 -17q23 0 42.5 11.5t43.5 34.5q65 69 92 97q46 48 66 48q15 0 25 -12q7 -9 7 -22q0 -33 -34 -103q-27 -55 -58 -103q68 41 136 83q11 6 15 6q9 0 9 -9z" />
    <glyph glyph-name="cent" unicode="&#x45e;" horiz-adv-x="505" 
d="M436 409q-24 -41 -66 -67t-85 -26q-28 0 -42 21q-10 15 -10 34q0 22 19 68.5t34 46.5q5 0 7 -4t2 -8l-3 -10q-4 -7 -7 -12t-3 -9q0 -19 30.5 -34.5t72.5 -15.5q12 0 28 6q3 1 23 10zM505 139q0 -3 -3 -6.5t-8 -7.5l-212 -165q-92 -157 -152 -221q-47 -50 -83 -50
q-18 0 -29 7q-18 11 -18 36q0 52 78.5 130.5t202.5 158.5q5 14 9 27.5t4 26.5q0 34 -8 46t-19 12q-14 0 -85 -65q-41 -39 -66.5 -53.5t-45.5 -14.5q-28 0 -47 21q-22 24 -22 66q0 32 15 63q11 22 34 52q78 101 114 101q31 0 31 -32q0 -14 -44 -55t-44 -57q0 -17 15 -34
t39 -17q23 0 42.5 11.5t43.5 34.5q65 69 92 97q46 48 66 48q15 0 25 -12q7 -9 7 -22q0 -33 -34 -103q-27 -55 -58 -103q68 41 136 83q11 6 15 6q9 0 9 -9z" />
    <glyph glyph-name="sterling" unicode="&#xa3;" horiz-adv-x="622" 
d="M652 620q0 -54 -55 -190.5t-137 -290.5q59 24 109.5 45.5t58.5 21.5q5 0 6 -3t2 -8q0 -9 -120 -78q-79 -45 -142 -124q-37 -61 -74 -121.5t-70 -89.5q-38 -34 -78 -34q-33 0 -51 21q-13 15 -13 35q0 69 115 173q99 89 196 136q63 99 106 216q40 110 40 173q0 65 -56 82
q-29 9 -128 9q-192 0 -243 -36q-28 -19 -40 -103q-3 -14 -11 -14q-6 0 -11.5 7t-5.5 26q0 145 96 202q78 46 248 46q119 0 177 -17q81 -24 81 -84z" />
    <glyph glyph-name="sterling" unicode="&#x408;" horiz-adv-x="622" 
d="M652 620q0 -54 -55 -190.5t-137 -290.5q59 24 109.5 45.5t58.5 21.5q5 0 6 -3t2 -8q0 -9 -120 -78q-79 -45 -142 -124q-37 -61 -74 -121.5t-70 -89.5q-38 -34 -78 -34q-33 0 -51 21q-13 15 -13 35q0 69 115 173q99 89 196 136q63 99 106 216q40 110 40 173q0 65 -56 82
q-29 9 -128 9q-192 0 -243 -36q-28 -19 -40 -103q-3 -14 -11 -14q-6 0 -11.5 7t-5.5 26q0 145 96 202q78 46 248 46q119 0 177 -17q81 -24 81 -84z" />
    <glyph glyph-name="currency" unicode="&#xa4;" horiz-adv-x="539" 
d="M508 76l-41 -43l-73 73q-23 -20 -57.5 -31t-67.5 -11q-44 0 -81 16q-22 9 -44 26l-71 -73l-42 43l72 72q-9 12 -18 28q-24 45 -24 96q0 43 17 82q9 22 25 43l-72 72l42 43l71 -72q27 19 55 29q34 13 70 13q30 0 63 -10t62 -32l73 72l41 -43l-71 -72q18 -26 30 -58t12 -67
q0 -68 -42 -124zM419 273q0 64 -43.5 108.5t-106.5 44.5q-62 0 -105 -44t-43 -109t43 -109t105 -44q63 0 106.5 44.5t43.5 108.5z" />
    <glyph glyph-name="yen" unicode="&#xa5;" horiz-adv-x="1003" 
d="M1003 761q0 -112 -35 -152q-39 -45 -150 -45q-107 0 -172 9q-58 -167 -103 -262q-72 -149 -154 -231q-101 -100 -220 -100q-73 0 -121 50t-48 128q0 110 98 191.5t236 81.5q22 0 32.5 -2t10.5 -14q0 -62 -20 -87q-16 -20 -50 -20q-14 0 -36 4q-50 9 -64 9q-42 0 -62 -29
q-26 -37 -26 -129q0 -60 28.5 -97t69.5 -37q88 0 143 88q36 58 85 211q56 175 96 254q-65 9 -97 13q-56 7 -95 7l-33 73q30 0 95 -2t77 -2q159 0 239 4t144 17q39 8 53 19.5t14 24.5q0 5 -2 13t-2 11q0 10 10.5 14.5t45.5 4.5q13 0 13 -18z" />
    <glyph glyph-name="yen" unicode="&#x490;" horiz-adv-x="1003" 
d="M1003 761q0 -112 -35 -152q-39 -45 -150 -45q-107 0 -172 9q-58 -167 -103 -262q-72 -149 -154 -231q-101 -100 -220 -100q-73 0 -121 50t-48 128q0 110 98 191.5t236 81.5q22 0 32.5 -2t10.5 -14q0 -62 -20 -87q-16 -20 -50 -20q-14 0 -36 4q-50 9 -64 9q-42 0 -62 -29
q-26 -37 -26 -129q0 -60 28.5 -97t69.5 -37q88 0 143 88q36 58 85 211q56 175 96 254q-65 9 -97 13q-56 7 -95 7l-33 73q30 0 95 -2t77 -2q159 0 239 4t144 17q39 8 53 19.5t14 24.5q0 5 -2 13t-2 11q0 10 10.5 14.5t45.5 4.5q13 0 13 -18z" />
    <glyph glyph-name="brokenbar" unicode="&#xa6;" horiz-adv-x="264" 
d="M233 206q0 -9 -23 -21.5t-47 -12.5t-42.5 15.5t-18.5 33.5q0 11 10 20l52 43q13 11 41 -21t28 -57zM162 11q0 -9 -23 -21.5t-47 -12.5t-42.5 15.5t-18.5 33.5q0 11 10 20l52 43q13 11 41 -21t28 -57z" />
    <glyph glyph-name="section" unicode="&#xa7;" horiz-adv-x="493" 
d="M455 430q0 -22 -18 -41t-46 -25q7 16 7 27q0 27 -16 44t-47 17q-28 0 -53.5 -15.5t-25.5 -28.5q0 -15 25 -32l123 -78q31 -19 31 -45q0 -25 -18 -52q-25 -37 -76 -63q16 -9 23.5 -23.5t7.5 -31.5q0 -56 -70 -105.5t-155 -49.5q-60 0 -88 25q-21 19 -21 48q0 26 21 56.5
t47 30.5q9 -2 9 -6t-4 -8q-8 -8 -10 -12.5t-6.5 -19t-4.5 -23.5q0 -19 22 -33q28 -18 76 -18q51 0 80 19.5t29 47.5q0 15 -11 24q-1 1 -25 15l-103 59q-16 8 -31 17q-18 14 -18 38q0 36 29 76q24 32 55 53q-32 17 -32 41q0 38 59 80q64 45 134 45q49 0 75 -15.5t26 -37.5z
M362 204q0 13 -19 27q-9 7 -30 18l-106 59q-11 -8 -23.5 -26.5t-12.5 -28.5q0 -11 10 -20q3 -3 35 -22l110 -61q12 10 24 27t12 27z" />
    <glyph glyph-name="dieresis" unicode="&#xa8;" horiz-adv-x="825" 
d="M781 831q0 -13 -29 -27t-52 -14q-30 0 -50.5 18.5t-20.5 39.5q0 15 11 25l60 52q14 13 47.5 -25.5t33.5 -68.5zM544 831q0 -13 -29 -27t-52 -14q-30 0 -51 18t-21 40q0 14 12 25l61 52q13 12 46.5 -24.5t33.5 -69.5zM795 245q0 -103 -133 -199q-149 -108 -354 -108
q-158 0 -239 73q-69 62 -69 156t104 163q82 55 195 77q-38 20 -59 40q-29 28 -29 56q0 40 32 89q42 64 118 102q98 49 238 49q84 0 129 -30q37 -25 37 -60q0 -31 -45.5 -74.5t-75.5 -43.5q-18 0 -18 15q0 23 22 29t22 39q0 32 -39.5 46.5t-95.5 14.5q-104 0 -183.5 -32.5
t-79.5 -70.5q0 -77 47 -107q36 -23 103 -23q21 0 56 3t45 3q27 0 27 -12q0 -9 -13 -25l-38 -51q-10 -14 -33 -14q-25 0 -67 15t-61 22q-105 -13 -163 -65q-51 -46 -51 -104q0 -73 62 -129q79 -71 225 -71q140 0 234 63q83 56 83 122q0 31 -22.5 48.5t-52.5 17.5
q-32 0 -57 -14q-25 -16 -50 -31q-12 0 -12 12q0 31 58 67t108 36q42 0 68.5 -24.5t26.5 -69.5z" />
    <glyph glyph-name="dieresis" unicode="&#x401;" horiz-adv-x="825" 
d="M781 831q0 -13 -29 -27t-52 -14q-30 0 -50.5 18.5t-20.5 39.5q0 15 11 25l60 52q14 13 47.5 -25.5t33.5 -68.5zM544 831q0 -13 -29 -27t-52 -14q-30 0 -51 18t-21 40q0 14 12 25l61 52q13 12 46.5 -24.5t33.5 -69.5zM795 245q0 -103 -133 -199q-149 -108 -354 -108
q-158 0 -239 73q-69 62 -69 156t104 163q82 55 195 77q-38 20 -59 40q-29 28 -29 56q0 40 32 89q42 64 118 102q98 49 238 49q84 0 129 -30q37 -25 37 -60q0 -31 -45.5 -74.5t-75.5 -43.5q-18 0 -18 15q0 23 22 29t22 39q0 32 -39.5 46.5t-95.5 14.5q-104 0 -183.5 -32.5
t-79.5 -70.5q0 -77 47 -107q36 -23 103 -23q21 0 56 3t45 3q27 0 27 -12q0 -9 -13 -25l-38 -51q-10 -14 -33 -14q-25 0 -67 15t-61 22q-105 -13 -163 -65q-51 -46 -51 -104q0 -73 62 -129q79 -71 225 -71q140 0 234 63q83 56 83 122q0 31 -22.5 48.5t-52.5 17.5
q-32 0 -57 -14q-25 -16 -50 -31q-12 0 -12 12q0 31 58 67t108 36q42 0 68.5 -24.5t26.5 -69.5z" />
    <glyph glyph-name="copyright" unicode="&#xa9;" horiz-adv-x="764" 
d="M733 331q0 -145 -103 -247t-247 -102q-146 0 -249 102t-103 247t103 248t249 103q143 0 246.5 -103.5t103.5 -247.5zM681 331q0 114 -74 203q-86 104 -224 104q-140 0 -227 -104q-75 -90 -75 -203q0 -125 89 -216t213 -91q122 0 210 90t88 217zM566 227q-34 -59 -77 -86
t-102 -27q-92 0 -153 56q-67 61 -67 161q0 94 59.5 152.5t150.5 58.5q38 0 56 -7q40 -16 68 -16q7 0 11.5 5.5t7.5 15.5h20l7 -132h-26q-16 49 -41 72q-28 26 -74 26q-50 0 -81.5 -47t-31.5 -125q0 -66 27 -109q34 -55 102 -55q39 0 71 19t47 52z" />
    <glyph glyph-name="ordfeminine" unicode="&#xaa;" horiz-adv-x="777" 
d="M775 605q0 -9 -19 -11l-83 -11q-8 -1 -11 -1q-53 0 -53 64q0 60 20 96q17 30 44 30h83q18 0 18 -23q0 -12 -15.5 -51t-15.5 -54q0 -14 16 -25t16 -14zM777 224q0 -79 -97 -152q-104 -79 -238 -79q-109 0 -185 70q-84 78 -84 207q0 32 6 62t18 66q-122 12 -169 40
q-28 17 -28 41q0 23 7 50t21 27q3 0 69 -25q38 -14 87 -23l52 -9q55 107 153 189q110 93 209 93q10 0 16.5 -2t6.5 -12q0 -63 -42 -66q-84 -7 -110 -20q-83 -43 -154 -196q62 -11 134 -18.5t145 -7.5h50l44 2q10 0 10 -7q0 -24 -92 -50.5t-187 -26.5q-34 0 -66.5 3.5
t-73.5 9.5q-5 -13 -8 -29t-3 -32q0 -107 117 -172q97 -54 207 -54q84 0 127 53q32 39 32 86q0 15 11 15q10 0 12.5 -9.5t2.5 -23.5z" />
    <glyph glyph-name="ordfeminine" unicode="&#x404;" horiz-adv-x="777" 
d="M775 605q0 -9 -19 -11l-83 -11q-8 -1 -11 -1q-53 0 -53 64q0 60 20 96q17 30 44 30h83q18 0 18 -23q0 -12 -15.5 -51t-15.5 -54q0 -14 16 -25t16 -14zM777 224q0 -79 -97 -152q-104 -79 -238 -79q-109 0 -185 70q-84 78 -84 207q0 32 6 62t18 66q-122 12 -169 40
q-28 17 -28 41q0 23 7 50t21 27q3 0 69 -25q38 -14 87 -23l52 -9q55 107 153 189q110 93 209 93q10 0 16.5 -2t6.5 -12q0 -63 -42 -66q-84 -7 -110 -20q-83 -43 -154 -196q62 -11 134 -18.5t145 -7.5h50l44 2q10 0 10 -7q0 -24 -92 -50.5t-187 -26.5q-34 0 -66.5 3.5
t-73.5 9.5q-5 -13 -8 -29t-3 -32q0 -107 117 -172q97 -54 207 -54q84 0 127 53q32 39 32 86q0 15 11 15q10 0 12.5 -9.5t2.5 -23.5z" />
    <glyph glyph-name="guillemotleft" unicode="&#xab;" horiz-adv-x="327" 
d="M327 277l-86 -113l38 -115l-12 -7l-97 122l148 122zM249 301l-114 -137l57 -131l-14 -10l-140 141l201 147z" />
    <glyph glyph-name="logicalnot" unicode="&#xac;" horiz-adv-x="497" 
d="M466 86h-47v81h-388v47h435v-128z" />
    <glyph glyph-name="minus" unicode="&#xad;" horiz-adv-x="353" 
d="M315 195q-9 16 -74 27.5t-102 11.5q-19 0 -27.5 -3t-22.5 -17l-44 -47q-7 -7 -7 -14q0 -14 21 -14q11 0 32 2t31 2h63q35 0 55 -3t39 -3q12 0 18 11l18 36q3 6 0 11z" />
    <glyph glyph-name="registered" unicode="&#xae;" horiz-adv-x="760" 
d="M729 332q0 -145 -102.5 -247.5t-247.5 -102.5q-146 0 -247 102t-101 248q0 144 101 247t247 103q144 0 247 -103t103 -247zM679 332q0 126 -88.5 215.5t-211.5 89.5t-210.5 -89.5t-87.5 -215.5q0 -127 87.5 -216.5t210.5 -89.5q124 0 212 90t88 216zM569 139h-131
l-84 177h-6v-120q0 -11 2 -16q8 -22 42 -19v-22h-191v22q28 -3 39 12q7 9 7 23v279q0 20 -11 26.5t-35 6.5v22h210q64 0 96.5 -29.5t32.5 -74.5q0 -48 -33 -74q-22 -17 -52 -22l74 -137q9 -16 12 -19q9 -9 28 -13v-22zM439 434q0 35 -19.5 50.5t-54.5 15.5l-17 -1v-152h35
q27 0 43 28q13 23 13 59z" />
    <glyph glyph-name="macron" unicode="&#xaf;" horiz-adv-x="602" 
d="M563 821q0 -11 -26.5 -26t-54.5 -15q-32 0 -51.5 20.5t-19.5 44.5q0 9 11 18l61 52q2 2 10 4q10 0 40 -38.5t30 -59.5zM326 821q0 -13 -29 -27t-52 -14q-31 0 -51.5 20.5t-20.5 44.5q0 6 12 18l61 52q2 2 4.5 2.5t5.5 1.5q10 0 40 -45t30 -53zM602 620q0 -50 -69 -221
q-61 -151 -107 -236q-63 -116 -106 -162q-46 -50 -95 -50q-47 0 -94.5 35t-47.5 76q0 23 25.5 65t39.5 42q33 0 43 -37.5t68 -37.5q93 0 169 163q65 139 65 243q0 11 -0.5 21.5t-5.5 21.5q-14 33 -53 44q-24 7 -71 7q-174 0 -227 -13q-93 -23 -106 -107q-1 -11 -2.5 -22.5
t-10.5 -11.5q-6 0 -11.5 7t-5.5 26q0 152 107 207q79 41 262 41q101 0 158 -19q75 -25 75 -82z" />
    <glyph glyph-name="macron" unicode="&#x407;" horiz-adv-x="602" 
d="M563 821q0 -11 -26.5 -26t-54.5 -15q-32 0 -51.5 20.5t-19.5 44.5q0 9 11 18l61 52q2 2 10 4q10 0 40 -38.5t30 -59.5zM326 821q0 -13 -29 -27t-52 -14q-31 0 -51.5 20.5t-20.5 44.5q0 6 12 18l61 52q2 2 4.5 2.5t5.5 1.5q10 0 40 -45t30 -53zM602 620q0 -50 -69 -221
q-61 -151 -107 -236q-63 -116 -106 -162q-46 -50 -95 -50q-47 0 -94.5 35t-47.5 76q0 23 25.5 65t39.5 42q33 0 43 -37.5t68 -37.5q93 0 169 163q65 139 65 243q0 11 -0.5 21.5t-5.5 21.5q-14 33 -53 44q-24 7 -71 7q-174 0 -227 -13q-93 -23 -106 -107q-1 -11 -2.5 -22.5
t-10.5 -11.5q-6 0 -11.5 7t-5.5 26q0 152 107 207q79 41 262 41q101 0 158 -19q75 -25 75 -82z" />
    <glyph glyph-name="degree" unicode="&#xb0;" horiz-adv-x="240" 
d="M209 451q0 -37 -26 -63t-63 -26t-63 26t-26 63t26 63t63 26q36 0 62.5 -25.5t26.5 -63.5zM170 451q0 20 -15 35t-35 15t-35 -15t-15 -35t15 -35t35 -15t35 15t15 35z" />
    <glyph glyph-name="plusminus" unicode="&#xb1;" horiz-adv-x="468" 
d="M437 259h-175v-162h-56v162h-175v56h175v161h56v-161h175v-56zM437 0h-406v55h406v-55z" />
    <glyph glyph-name="twosuperior" unicode="&#xb2;" horiz-adv-x="622" 
d="M652 620q0 -50 -69 -221q-61 -151 -107 -236q-63 -116 -106 -162q-46 -50 -95 -50q-47 0 -94.5 35t-47.5 76q0 23 20.5 55.5t44.5 51.5q33 -38 47 -52q24 -23 64 -23q93 0 169 163q65 139 65 243q0 46 -21 66q-30 28 -109 28q-214 0 -278 -34q-45 -24 -57 -106
q-3 -14 -11 -14q-6 0 -11.5 7t-5.5 26q0 144 97 202q80 48 249 48q140 0 203 -30q53 -25 53 -73z" />
    <glyph glyph-name="twosuperior" unicode="&#x406;" horiz-adv-x="622" 
d="M652 620q0 -50 -69 -221q-61 -151 -107 -236q-63 -116 -106 -162q-46 -50 -95 -50q-47 0 -94.5 35t-47.5 76q0 23 20.5 55.5t44.5 51.5q33 -38 47 -52q24 -23 64 -23q93 0 169 163q65 139 65 243q0 46 -21 66q-30 28 -109 28q-214 0 -278 -34q-45 -24 -57 -106
q-3 -14 -11 -14q-6 0 -11.5 7t-5.5 26q0 144 97 202q80 48 249 48q140 0 203 -30q53 -25 53 -73z" />
    <glyph glyph-name="threesuperior" unicode="&#xb3;" horiz-adv-x="317" 
d="M314 404q0 -9 -23 -21.5t-48 -12.5q-28 0 -44 17t-16 37q0 8 9 15l52 43q1 1 4 1.5t6 1.5q9 0 34.5 -37.5t25.5 -43.5zM317 128q0 -6 -13 -16t-19 -14l-53 -41q-50 -38 -85 -55q-29 -14 -54 -14q-43 0 -68 31t-25 72q0 55 60.5 137.5t100.5 82.5q18 0 27.5 -12t9.5 -29
q0 -22 -55.5 -63t-55.5 -66q0 -19 23.5 -36t65.5 -17q41 0 71 23.5t61 23.5q9 0 9 -7z" />
    <glyph glyph-name="threesuperior" unicode="&#x456;" horiz-adv-x="317" 
d="M314 404q0 -9 -23 -21.5t-48 -12.5q-28 0 -44 17t-16 37q0 8 9 15l52 43q1 1 4 1.5t6 1.5q9 0 34.5 -37.5t25.5 -43.5zM317 128q0 -6 -13 -16t-19 -14l-53 -41q-50 -38 -85 -55q-29 -14 -54 -14q-43 0 -68 31t-25 72q0 55 60.5 137.5t100.5 82.5q18 0 27.5 -12t9.5 -29
q0 -22 -55.5 -63t-55.5 -66q0 -19 23.5 -36t65.5 -17q41 0 71 23.5t61 23.5q9 0 9 -7z" />
    <glyph glyph-name="acute" unicode="&#xb4;" horiz-adv-x="400" 
d="M400 299q0 -33 -21 -63q-25 -35 -61 -35q-17 0 -27.5 10.5t-52.5 14.5q0 -97 -53.5 -172t-115.5 -75q-29 0 -47 17q-22 21 -22 62q0 58 36 112t101 86q0 29 14 48q19 26 45 26q15 0 29.5 -15.5t14.5 -34.5q23 3 32 3q8 0 22.5 -1.5t21.5 -1.5q21 0 30.5 7t18.5 21.5
t19 14.5q6 0 11 -5.5t5 -18.5zM149 160q0 17 -2 29.5t-7 28.5q-37 -16 -58 -45q-16 -23 -16 -42q0 -15 15 -28t29 -13q17 0 28 16.5t11 53.5z" />
    <glyph glyph-name="acute" unicode="&#x491;" horiz-adv-x="400" 
d="M400 299q0 -33 -21 -63q-25 -35 -61 -35q-17 0 -27.5 10.5t-52.5 14.5q0 -97 -53.5 -172t-115.5 -75q-29 0 -47 17q-22 21 -22 62q0 58 36 112t101 86q0 29 14 48q19 26 45 26q15 0 29.5 -15.5t14.5 -34.5q23 3 32 3q8 0 22.5 -1.5t21.5 -1.5q21 0 30.5 7t18.5 21.5
t19 14.5q6 0 11 -5.5t5 -18.5zM149 160q0 17 -2 29.5t-7 28.5q-37 -16 -58 -45q-16 -23 -16 -42q0 -15 15 -28t29 -13q17 0 28 16.5t11 53.5z" />
    <glyph glyph-name="mu" unicode="&#xb5;" horiz-adv-x="741" 
d="M741 129q0 -5 -7 -11.5t-8 -7.5l-121 -101q-15 -12 -39 -22.5t-41 -10.5q-32 0 -53.5 30.5t-21.5 71.5q-42 -47 -79 -73q-48 -34 -88 -34q-29 0 -52.5 20.5t-29.5 55.5q-42 -99 -72 -163q-59 -122 -94 -122q-14 0 -24.5 19t-10.5 51q0 63 60 130q124 138 139 158l88 120
q44 54 71 54q14 0 28 -11.5t14 -27.5q0 -12 -10 -26q-13 -18 -39 -38q-20 -15 -40 -29q-19 -16 -19 -32t25 -31t64 -15q29 0 52 14q36 22 83 84l40 56q29 35 53 35q12 0 27 -9t15 -24t-15 -35q-12 -13 -16 -18q-13 -15 -33 -32q-28 -25 -28 -34q0 -11 20 -24t42 -13
q39 0 57 27t52 27q11 0 11 -9z" />
    <glyph glyph-name="paragraph" unicode="&#xb6;" horiz-adv-x="782" 
d="M751 520q0 -13 -14 -17.5t-38 -4.5h-15.5t-14.5 1q-111 -162 -160 -303q-36 -104 -36 -192q0 -58 18 -78t18 -49q0 -18 -17 -25q-10 -4 -32 -4q-52 0 -73 39q-14 25 -14 60q0 52 31 131q28 72 89 183q48 88 138 238l-81 -2l-81 -163q-44 -87 -79 -143q-58 -92 -116 -141
q-74 -63 -152 -63q-32 0 -58 19q-33 24 -33 62q0 32 23 57t60 25q32 0 48 -19q12 -14 12 -30q0 -10 -5.5 -14.5t-24.5 -4.5h-17q-14 0 -22 -4.5t-8 -18.5q0 -16 11 -28t33 -12q47 0 99 53q44 45 87 121q25 45 67 136q-18 -8 -37.5 -12.5t-37.5 -4.5q-51 0 -85 30t-34 73
q0 76 96 105q72 22 216 22q50 0 127.5 -2.5t84.5 -2.5q14 0 20.5 -5.5t6.5 -11.5z" />
    <glyph glyph-name="periodcentered" unicode="&#x2219;" horiz-adv-x="207" 
d="M169 140q0 -9 -23 -21.5t-47 -12.5q-29 0 -47 21q-14 17 -14 33q0 7 10 15l52 43l9 3q10 0 35 -35t25 -46z" />
    <glyph glyph-name="cedilla" unicode="&#xb8;" horiz-adv-x="357" 
d="M395 397q0 -10 -26 -21q-20 -8 -35 -8q-24 0 -38.5 13.5t-14.5 32.5q0 7 8 13l46 37q13 10 36.5 -22.5t23.5 -44.5zM242 397q0 -10 -26 -21q-20 -8 -35 -8q-28 0 -40.5 15t-12.5 31q0 6 9 13l45 37l8 3q9 0 30.5 -25t21.5 -45zM357 133q0 -6 -8 -15q-2 -2 -18 -17
l-34 -31q-40 -36 -78 -60q-54 -34 -91 -34q-48 0 -86 31q-42 35 -42 89q0 82 91 157q85 70 165 70q25 0 36 -14t11 -37q0 -49 -74 -91t-159 -42q0 -31 51 -47q42 -13 97 -13q60 0 64 31t66 31q9 0 9 -8zM195 229q0 11 -5 18q-8 10 -24 10q-25 0 -51.5 -27.5t-39.5 -59.5
q62 0 91 17.5t29 41.5z" />
    <glyph glyph-name="cedilla" unicode="&#x451;" horiz-adv-x="357" 
d="M395 397q0 -10 -26 -21q-20 -8 -35 -8q-24 0 -38.5 13.5t-14.5 32.5q0 7 8 13l46 37q13 10 36.5 -22.5t23.5 -44.5zM242 397q0 -10 -26 -21q-20 -8 -35 -8q-28 0 -40.5 15t-12.5 31q0 6 9 13l45 37l8 3q9 0 30.5 -25t21.5 -45zM357 133q0 -6 -8 -15q-2 -2 -18 -17
l-34 -31q-40 -36 -78 -60q-54 -34 -91 -34q-48 0 -86 31q-42 35 -42 89q0 82 91 157q85 70 165 70q25 0 36 -14t11 -37q0 -49 -74 -91t-159 -42q0 -31 51 -47q42 -13 97 -13q60 0 64 31t66 31q9 0 9 -8zM195 229q0 11 -5 18q-8 10 -24 10q-25 0 -51.5 -27.5t-39.5 -59.5
q62 0 91 17.5t29 41.5z" />
    <glyph glyph-name="onesuperior" unicode="&#xb9;" horiz-adv-x="985" 
d="M970 291q0 -59 -49 -118q-54 -65 -121 -65q-35 0 -61 22q-31 26 -31 74q0 68 58 125t132 57q19 0 27.5 -5t8.5 -10q0 -6 -16 -10q-64 0 -92 -31q-20 -22 -20 -55q0 -21 11 -38q16 -24 50 -24q28 0 50.5 12.5t22.5 32.5q0 27 -22.5 39.5t-22.5 33.5q0 8 8 14t21 6
q17 0 31.5 -14.5t14.5 -45.5zM872 57q0 -12 -66.5 -43.5t-91.5 -31.5q-23 0 -39 15t-16 35q0 9 2 14l12 34q3 8 11 8q28 -11 57.5 -21.5t52.5 -10.5q28 0 42.5 4t22.5 4t13 -7zM899 488q0 -14 -12 -26.5t-33 -12.5q-26 0 -73 24q-23 12 -35 12q-38 0 -81 -99
q-22 -51 -56 -160q-39 -130 -47 -148q-33 -79 -73 -79q-23 0 -42 23q-22 27 -22 70l-12 270q0 17 -1.5 27t-10.5 10q-13 0 -39 -37.5t-94 -151.5l-60 -100q-83 -129 -129 -129q-22 0 -41 32q-23 38 -23 93q0 61 34.5 108.5t72.5 47.5q24 0 24 -23q0 -12 -8 -25.5t-13 -24
t-11 -27t-6 -34.5q0 -12 0.5 -24.5t6.5 -12.5q14 0 65 67.5t125 175.5q66 94 88 121q52 62 85 62q27 0 35 -24q5 -14 5 -49l11 -262q0 -13 1.5 -24t5.5 -11q9 0 37 78q16 47 33 95q34 96 71 148q58 83 135 83q44 0 67 -20q20 -17 20 -43z" />
    <glyph glyph-name="onesuperior" unicode="&#x2116;" horiz-adv-x="985" 
d="M970 291q0 -59 -49 -118q-54 -65 -121 -65q-35 0 -61 22q-31 26 -31 74q0 68 58 125t132 57q19 0 27.5 -5t8.5 -10q0 -6 -16 -10q-64 0 -92 -31q-20 -22 -20 -55q0 -21 11 -38q16 -24 50 -24q28 0 50.5 12.5t22.5 32.5q0 27 -22.5 39.5t-22.5 33.5q0 8 8 14t21 6
q17 0 31.5 -14.5t14.5 -45.5zM872 57q0 -12 -66.5 -43.5t-91.5 -31.5q-23 0 -39 15t-16 35q0 9 2 14l12 34q3 8 11 8q28 -11 57.5 -21.5t52.5 -10.5q28 0 42.5 4t22.5 4t13 -7zM899 488q0 -14 -12 -26.5t-33 -12.5q-26 0 -73 24q-23 12 -35 12q-38 0 -81 -99
q-22 -51 -56 -160q-39 -130 -47 -148q-33 -79 -73 -79q-23 0 -42 23q-22 27 -22 70l-12 270q0 17 -1.5 27t-10.5 10q-13 0 -39 -37.5t-94 -151.5l-60 -100q-83 -129 -129 -129q-22 0 -41 32q-23 38 -23 93q0 61 34.5 108.5t72.5 47.5q24 0 24 -23q0 -12 -8 -25.5t-13 -24
t-11 -27t-6 -34.5q0 -12 0.5 -24.5t6.5 -12.5q14 0 65 67.5t125 175.5q66 94 88 121q52 62 85 62q27 0 35 -24q5 -14 5 -49l11 -262q0 -13 1.5 -24t5.5 -11q9 0 37 78q16 47 33 95q34 96 71 148q58 83 135 83q44 0 67 -20q20 -17 20 -43z" />
    <glyph glyph-name="ordmasculine" unicode="&#xba;" horiz-adv-x="369" 
d="M346 288q-1 -4 -6 -14q-11 -22 -11 -30q0 -9 5 -11q6 -6 6 -8t-8 -4l-44 3q-10 0 -14 3q-10 7 -10 27q0 15 8.5 35t24.5 17l43 -7l6 -5v-6zM369 101q-2 -4 -4 -7q-8 -11 -20 -21l-34 -28q-32 -26 -74 -47q-63 -31 -119 -31q-49 0 -80 21q-38 26 -38 75q0 70 62 152
q75 99 175 99h21q6 0 9 -7q0 -25 -4 -34t-13 -9q-5 0 -19.5 4.5t-21.5 4.5q-18 0 -32 -11q-19 -15 -37 -51q39 -14 97 -20t58 -8q0 -6 -30.5 -15.5t-56.5 -9.5q-14 0 -33.5 2t-49.5 7q-3 -7 -8 -20.5t-5 -22.5q0 -26 26 -42t80 -16q78 0 107 30q15 15 36 15q8 0 8 -10z" />
    <glyph glyph-name="ordmasculine" unicode="&#x454;" horiz-adv-x="369" 
d="M346 288q-1 -4 -6 -14q-11 -22 -11 -30q0 -9 5 -11q6 -6 6 -8t-8 -4l-44 3q-10 0 -14 3q-10 7 -10 27q0 15 8.5 35t24.5 17l43 -7l6 -5v-6zM369 101q-2 -4 -4 -7q-8 -11 -20 -21l-34 -28q-32 -26 -74 -47q-63 -31 -119 -31q-49 0 -80 21q-38 26 -38 75q0 70 62 152
q75 99 175 99h21q6 0 9 -7q0 -25 -4 -34t-13 -9q-5 0 -19.5 4.5t-21.5 4.5q-18 0 -32 -11q-19 -15 -37 -51q39 -14 97 -20t58 -8q0 -6 -30.5 -15.5t-56.5 -9.5q-14 0 -33.5 2t-49.5 7q-3 -7 -8 -20.5t-5 -22.5q0 -26 26 -42t80 -16q78 0 107 30q15 15 36 15q8 0 8 -10z" />
    <glyph glyph-name="guillemotright" unicode="&#xbb;" horiz-adv-x="326" 
d="M288 172l-200 -149l-10 10l115 139l-58 129l15 10zM157 172l-148 -124l-9 9l85 115l-37 113l13 8z" />
    <glyph glyph-name="onequarter" unicode="&#xbc;" horiz-adv-x="356" 
d="M313 396q0 -9 -23 -21.5t-47 -12.5q-29 0 -47 21q-14 17 -14 33q0 7 10 15l52 43l9 3q10 0 35 -35t25 -46zM356 121q0 -5 -5.5 -10.5t-20.5 -19.5q-26 -24 -61 -65q-61 -72 -92 -106q-28 -111 -63 -174q-40 -72 -80 -72q-11 0 -20.5 8t-12.5 24t-3 22q0 7 2 21
q9 60 49.5 123t104.5 114q4 16 4 62q0 47 -28 78.5t-57 31.5q-19 0 -22 -13.5t-37 -13.5q-5 0 -7 9q0 16 71 68.5t96 52.5q23 0 40 -19q22 -25 22 -71q0 -38 -16 -85q-12 -35 -24 -69q103 80 124.5 96.5t28.5 16.5t7 -9z" />
    <glyph glyph-name="onequarter" unicode="&#x458;" horiz-adv-x="356" 
d="M313 396q0 -9 -23 -21.5t-47 -12.5q-29 0 -47 21q-14 17 -14 33q0 7 10 15l52 43l9 3q10 0 35 -35t25 -46zM356 121q0 -5 -5.5 -10.5t-20.5 -19.5q-26 -24 -61 -65q-61 -72 -92 -106q-28 -111 -63 -174q-40 -72 -80 -72q-11 0 -20.5 8t-12.5 24t-3 22q0 7 2 21
q9 60 49.5 123t104.5 114q4 16 4 62q0 47 -28 78.5t-57 31.5q-19 0 -22 -13.5t-37 -13.5q-5 0 -7 9q0 16 71 68.5t96 52.5q23 0 40 -19q22 -25 22 -71q0 -38 -16 -85q-12 -35 -24 -69q103 80 124.5 96.5t28.5 16.5t7 -9z" />
    <glyph glyph-name="onehalf" unicode="&#xbd;" horiz-adv-x="889" 
d="M889 236q0 -82 -78 -178q-81 -100 -205 -165q-140 -73 -287 -73q-157 0 -243 64q-76 57 -76 142q0 82 62 147q54 57 98 57q14 0 14 -14q0 -36 -10.5 -47t-30.5 -11q-16 1 -25 1q-22 0 -31 -11q-13 -16 -13 -60q0 -67 72 -115q84 -56 232 -56q176 0 315 80q133 76 133 163
q0 41 -41 59q-32 14 -84 14q-41 0 -75 -2q-118 -7 -128 -7q-139 0 -200 69q-43 49 -43 126q0 122 120 206q109 77 238 77q108 0 164 -41q46 -33 46 -82q0 -43 -30.5 -77.5t-69.5 -34.5q-21 0 -49.5 12t-43.5 30q37 26 56 46q29 31 29 58q0 21 -22 38q-29 22 -84 22
q-113 0 -195 -70q-74 -63 -74 -130q0 -37 15 -61q22 -36 71 -36q46 0 136 3t138 3q111 0 160 -45q39 -36 39 -101z" />
    <glyph glyph-name="onehalf" unicode="&#x405;" horiz-adv-x="889" 
d="M889 236q0 -82 -78 -178q-81 -100 -205 -165q-140 -73 -287 -73q-157 0 -243 64q-76 57 -76 142q0 82 62 147q54 57 98 57q14 0 14 -14q0 -36 -10.5 -47t-30.5 -11q-16 1 -25 1q-22 0 -31 -11q-13 -16 -13 -60q0 -67 72 -115q84 -56 232 -56q176 0 315 80q133 76 133 163
q0 41 -41 59q-32 14 -84 14q-41 0 -75 -2q-118 -7 -128 -7q-139 0 -200 69q-43 49 -43 126q0 122 120 206q109 77 238 77q108 0 164 -41q46 -33 46 -82q0 -43 -30.5 -77.5t-69.5 -34.5q-21 0 -49.5 12t-43.5 30q37 26 56 46q29 31 29 58q0 21 -22 38q-29 22 -84 22
q-113 0 -195 -70q-74 -63 -74 -130q0 -37 15 -61q22 -36 71 -36q46 0 136 3t138 3q111 0 160 -45q39 -36 39 -101z" />
    <glyph glyph-name="threequarters" unicode="&#xbe;" horiz-adv-x="331" 
d="M281 171q0 -55 -74.5 -127.5t-133.5 -72.5q-33 0 -53 21t-20 57q0 28 16.5 45.5t37.5 17.5q30 0 35 -38.5t41 -38.5q20 0 42 25t22 48t-25 51q-13 15 -51 46l-78 -52q-5 -3 -10.5 -5.5t-7.5 -2.5q-9 0 -9 9q0 5 15 17l67 56q-9 9 -9 20q2 8 4 9l98 79q11 8 19 8
q9 0 16 -5q12 -9 12 -22q0 -6 -3 -10.5t-11 -13t-8 -15.5q0 -5 13.5 -13t18.5 -12q15 -12 25.5 -35t10.5 -46z" />
    <glyph glyph-name="threequarters" unicode="&#x455;" horiz-adv-x="331" 
d="M281 171q0 -55 -74.5 -127.5t-133.5 -72.5q-33 0 -53 21t-20 57q0 28 16.5 45.5t37.5 17.5q30 0 35 -38.5t41 -38.5q20 0 42 25t22 48t-25 51q-13 15 -51 46l-78 -52q-5 -3 -10.5 -5.5t-7.5 -2.5q-9 0 -9 9q0 5 15 17l67 56q-9 9 -9 20q2 8 4 9l98 79q11 8 19 8
q9 0 16 -5q12 -9 12 -22q0 -6 -3 -10.5t-11 -13t-8 -15.5q0 -5 13.5 -13t18.5 -12q15 -12 25.5 -35t10.5 -46z" />
    <glyph glyph-name="questiondown" unicode="&#xbf;" horiz-adv-x="321" 
d="M344 396q0 -10 -26 -21q-19 -8 -35 -8q-22 0 -38.5 12.5t-16.5 27.5q0 12 10 19l46 37q13 10 36.5 -22.5t23.5 -44.5zM191 396q0 -10 -26 -21q-20 -8 -35 -8q-20 0 -37 13t-17 28q0 10 9 18l46 37q13 10 36.5 -22.5t23.5 -44.5zM316 124q-9 -23 -96 -79.5t-127 -56.5
q-43 0 -68 31t-25 72q0 59 63.5 139.5t100.5 80.5q16 0 25 -13t9 -28q0 -11 -10.5 -24t-44.5 -39.5t-35 -27.5q-21 -19 -21 -38q0 -17 16 -31q22 -19 62 -19q41 0 71 10.5t65 30.5q6 3 9 3t6 -4v-7z" />
    <glyph glyph-name="questiondown" unicode="&#x457;" horiz-adv-x="321" 
d="M344 396q0 -10 -26 -21q-19 -8 -35 -8q-22 0 -38.5 12.5t-16.5 27.5q0 12 10 19l46 37q13 10 36.5 -22.5t23.5 -44.5zM191 396q0 -10 -26 -21q-20 -8 -35 -8q-20 0 -37 13t-17 28q0 10 9 18l46 37q13 10 36.5 -22.5t23.5 -44.5zM316 124q-9 -23 -96 -79.5t-127 -56.5
q-43 0 -68 31t-25 72q0 59 63.5 139.5t100.5 80.5q16 0 25 -13t9 -28q0 -11 -10.5 -24t-44.5 -39.5t-35 -27.5q-21 -19 -21 -38q0 -17 16 -31q22 -19 62 -19q41 0 71 10.5t65 30.5q6 3 9 3t6 -4v-7z" />
    <glyph glyph-name="Agrave" unicode="&#xc0;" horiz-adv-x="1136" 
d="M1136 161q0 -33 -96.5 -97t-132.5 -64q-62 0 -83 137q-11 95 -17 137q-20 128 -23 141q-27 119 -91 119q-38 0 -108 -48q-55 -37 -130 -105q-53 -48 -105 -101q66 -14 150.5 -20t163.5 -6q48 0 67 5.5t33 9.5q8 0 8 -9q0 -23 -115 -57t-221 -34q-41 0 -80 3.5t-90 15.5
q-96 -127 -127 -164q-52 -63 -87 -91t-67 -28q-20 0 -29 11.5t-9 25.5q0 18 25 45q17 18 83 77q91 81 151 139q-16 6 -32 19t-16 25q0 9 29.5 41.5t38.5 32.5q4 0 30 -14q18 -10 42 -16q62 57 138 121q107 90 195 150q108 74 152 74q57 0 91 -88q11 -29 30 -100
q22 -133 36 -202q26 -126 72 -126q10 0 21.5 4t42.5 21q14 7 29 16t22 9q5 0 9 -9z" />
    <glyph glyph-name="Agrave" unicode="&#x410;" horiz-adv-x="1136" 
d="M1136 161q0 -33 -96.5 -97t-132.5 -64q-62 0 -83 137q-11 95 -17 137q-20 128 -23 141q-27 119 -91 119q-38 0 -108 -48q-55 -37 -130 -105q-53 -48 -105 -101q66 -14 150.5 -20t163.5 -6q48 0 67 5.5t33 9.5q8 0 8 -9q0 -23 -115 -57t-221 -34q-41 0 -80 3.5t-90 15.5
q-96 -127 -127 -164q-52 -63 -87 -91t-67 -28q-20 0 -29 11.5t-9 25.5q0 18 25 45q17 18 83 77q91 81 151 139q-16 6 -32 19t-16 25q0 9 29.5 41.5t38.5 32.5q4 0 30 -14q18 -10 42 -16q62 57 138 121q107 90 195 150q108 74 152 74q57 0 91 -88q11 -29 30 -100
q22 -133 36 -202q26 -126 72 -126q10 0 21.5 4t42.5 21q14 7 29 16t22 9q5 0 9 -9z" />
    <glyph glyph-name="Aacute" unicode="&#xc1;" horiz-adv-x="966" 
d="M966 212q0 -12 -8 -16t-24 -6l-46 -5q-41 -114 -218 -211q-172 -94 -327 -94q-64 0 -102 18q-44 21 -44 60q0 46 95 94q81 41 223 82q101 29 257 62q-17 24 -49 40q-52 27 -129 27q-91 0 -229 -48q-118 -41 -204 -91q-12 -17 -26.5 -71t-30.5 -54q-19 0 -36.5 43
t-17.5 95q0 78 96 184q68 75 188 166q48 36 122 87q-41 0 -126 -13q-110 -17 -242 -49h-9v5q2 16 7.5 35t23.5 49q56 20 138 42q108 29 196 44q119 20 215 20q72 0 123 -25q74 -37 102 -125q-56 15 -108 21.5t-108 6.5q-45 0 -80 -1t-73 -5q-126 -99 -205 -192
q-61 -72 -102 -150q100 77 220 114q95 29 187 29q151 0 220 -48q57 -40 57 -112l42 6q4 1 14 1q18 0 18 -15zM778 141v23q-217 -45 -342 -94q-93 -36 -130 -73q-21 -21 -21 -39q0 -20 13 -33q19 -19 62 -19q113 0 260 80t158 155z" />
    <glyph glyph-name="Aacute" unicode="&#x411;" horiz-adv-x="966" 
d="M966 212q0 -12 -8 -16t-24 -6l-46 -5q-41 -114 -218 -211q-172 -94 -327 -94q-64 0 -102 18q-44 21 -44 60q0 46 95 94q81 41 223 82q101 29 257 62q-17 24 -49 40q-52 27 -129 27q-91 0 -229 -48q-118 -41 -204 -91q-12 -17 -26.5 -71t-30.5 -54q-19 0 -36.5 43
t-17.5 95q0 78 96 184q68 75 188 166q48 36 122 87q-41 0 -126 -13q-110 -17 -242 -49h-9v5q2 16 7.5 35t23.5 49q56 20 138 42q108 29 196 44q119 20 215 20q72 0 123 -25q74 -37 102 -125q-56 15 -108 21.5t-108 6.5q-45 0 -80 -1t-73 -5q-126 -99 -205 -192
q-61 -72 -102 -150q100 77 220 114q95 29 187 29q151 0 220 -48q57 -40 57 -112l42 6q4 1 14 1q18 0 18 -15zM778 141v23q-217 -45 -342 -94q-93 -36 -130 -73q-21 -21 -21 -39q0 -20 13 -33q19 -19 62 -19q113 0 260 80t158 155z" />
    <glyph glyph-name="Acircumflex" unicode="&#xc2;" horiz-adv-x="1056" 
d="M1056 191q0 -12 -22 -12h-22q-18 0 -30 -3q-30 -113 -217 -211q-176 -92 -326 -92q-76 0 -113 24q-31 20 -31 53q0 58 154.5 120t420.5 119q-15 31 -41 38.5t-103 7.5h-59l-110 -1q-22 0 -33 2q-47 8 -47 48q0 29 31 54q2 2 132 72q73 40 106 69q54 47 54 99q0 29 -21 51
q-25 27 -65 27q-89 0 -212 -111q-116 -105 -243 -291q-42 -61 -115 -198q-40 -74 -67 -74q-24 0 -50.5 40.5t-26.5 71.5q0 41 28 88q23 38 73 90q40 42 103 100q21 39 35.5 91.5t14.5 96.5q0 35 -11.5 57t-33.5 38q-14 11 -14 21q0 11 14 11q28 0 55 -41q31 -46 31 -101
q0 -53 -16 -104q169 135 278.5 196t190.5 61q57 0 91 -27t34 -72t-36 -87q-28 -33 -89 -73q-35 -23 -112 -67q171 0 249 -24q106 -33 106 -120v-12q-2 -8 -2 -12l17 1q38 0 44 -2t6 -12zM876 141v23q-132 -28 -232 -58q-122 -36 -186 -72q-75 -41 -75 -83q0 -16 14 -28
q20 -17 61 -17q113 0 258 79q150 82 160 156z" />
    <glyph glyph-name="Acircumflex" unicode="&#x412;" horiz-adv-x="1056" 
d="M1056 191q0 -12 -22 -12h-22q-18 0 -30 -3q-30 -113 -217 -211q-176 -92 -326 -92q-76 0 -113 24q-31 20 -31 53q0 58 154.5 120t420.5 119q-15 31 -41 38.5t-103 7.5h-59l-110 -1q-22 0 -33 2q-47 8 -47 48q0 29 31 54q2 2 132 72q73 40 106 69q54 47 54 99q0 29 -21 51
q-25 27 -65 27q-89 0 -212 -111q-116 -105 -243 -291q-42 -61 -115 -198q-40 -74 -67 -74q-24 0 -50.5 40.5t-26.5 71.5q0 41 28 88q23 38 73 90q40 42 103 100q21 39 35.5 91.5t14.5 96.5q0 35 -11.5 57t-33.5 38q-14 11 -14 21q0 11 14 11q28 0 55 -41q31 -46 31 -101
q0 -53 -16 -104q169 135 278.5 196t190.5 61q57 0 91 -27t34 -72t-36 -87q-28 -33 -89 -73q-35 -23 -112 -67q171 0 249 -24q106 -33 106 -120v-12q-2 -8 -2 -12l17 1q38 0 44 -2t6 -12zM876 141v23q-132 -28 -232 -58q-122 -36 -186 -72q-75 -41 -75 -83q0 -16 14 -28
q20 -17 61 -17q113 0 258 79q150 82 160 156z" />
    <glyph glyph-name="Atilde" unicode="&#xc3;" horiz-adv-x="742" 
d="M862 701l-30 -74l-157 -24q-57 -156 -113 -270q-80 -163 -163 -250q-103 -109 -214 -109q-74 0 -126 47q-59 53 -59 143q0 102 94 178.5t213 76.5h41q19 0 30.5 -3t11.5 -15q0 -11 -22 -16q-29 -4 -40 -6q-90 -18 -149.5 -79.5t-59.5 -137.5q0 -62 25 -100t66 -38
q87 0 158 104q48 71 111 230q72 183 103 237q-56 -15 -98.5 -22.5t-90.5 -7.5h-75q-88 0 -141 64q-41 49 -41 96q0 6 4 9t7 3q4 0 30 -18q18 -12 39 -18t66 -10.5t76 -4.5h35h31q89 0 125.5 1.5t92.5 6.5q25 32 51 49q30 20 56 20q11 0 11 -14q0 -4 -9 -9.5t-14 -11.5
q-14 -16 -22 -35q43 0 65 1.5t82 6.5z" />
    <glyph glyph-name="Atilde" unicode="&#x413;" horiz-adv-x="742" 
d="M862 701l-30 -74l-157 -24q-57 -156 -113 -270q-80 -163 -163 -250q-103 -109 -214 -109q-74 0 -126 47q-59 53 -59 143q0 102 94 178.5t213 76.5h41q19 0 30.5 -3t11.5 -15q0 -11 -22 -16q-29 -4 -40 -6q-90 -18 -149.5 -79.5t-59.5 -137.5q0 -62 25 -100t66 -38
q87 0 158 104q48 71 111 230q72 183 103 237q-56 -15 -98.5 -22.5t-90.5 -7.5h-75q-88 0 -141 64q-41 49 -41 96q0 6 4 9t7 3q4 0 30 -18q18 -12 39 -18t66 -10.5t76 -4.5h35h31q89 0 125.5 1.5t92.5 6.5q25 32 51 49q30 20 56 20q11 0 11 -14q0 -4 -9 -9.5t-14 -11.5
q-14 -16 -22 -35q43 0 65 1.5t82 6.5z" />
    <glyph glyph-name="Adieresis" unicode="&#xc4;" horiz-adv-x="994" 
d="M964 645q0 -11 -32 -26q-56 -27 -84 -45q36 -45 58 -96q29 -67 29 -136q0 -163 -132 -268q-120 -95 -278 -95q-55 0 -85 18q-34 21 -34 66q0 27 23 78q17 38 40 77q-60 -17 -122 -17q-117 0 -197 82t-80 192q0 104 97 184q112 93 299 93q97 0 175 -27q100 -35 186 -119
q19 12 58 31q48 24 61 24q18 0 18 -16zM891 317q0 65 -32 116q-28 45 -84 85q-57 -47 -109.5 -106.5t-85.5 -115.5q77 21 137 65q22 16 35 16q11 0 11 -11q0 -22 -83 -70q-70 -40 -134 -65q-12 -22 -22 -57.5t-10 -54.5q0 -34 39 -49q27 -10 69 -10q109 0 186 68
q83 73 83 189zM742 541q-73 47 -155 73q-96 30 -202 30q-142 0 -216 -53q-58 -41 -58 -94q0 -84 110.5 -146.5t284.5 -62.5q31 45 75 96q75 88 161 157z" />
    <glyph glyph-name="Adieresis" unicode="&#x414;" horiz-adv-x="994" 
d="M964 645q0 -11 -32 -26q-56 -27 -84 -45q36 -45 58 -96q29 -67 29 -136q0 -163 -132 -268q-120 -95 -278 -95q-55 0 -85 18q-34 21 -34 66q0 27 23 78q17 38 40 77q-60 -17 -122 -17q-117 0 -197 82t-80 192q0 104 97 184q112 93 299 93q97 0 175 -27q100 -35 186 -119
q19 12 58 31q48 24 61 24q18 0 18 -16zM891 317q0 65 -32 116q-28 45 -84 85q-57 -47 -109.5 -106.5t-85.5 -115.5q77 21 137 65q22 16 35 16q11 0 11 -11q0 -22 -83 -70q-70 -40 -134 -65q-12 -22 -22 -57.5t-10 -54.5q0 -34 39 -49q27 -10 69 -10q109 0 186 68
q83 73 83 189zM742 541q-73 47 -155 73q-96 30 -202 30q-142 0 -216 -53q-58 -41 -58 -94q0 -84 110.5 -146.5t284.5 -62.5q31 45 75 96q75 88 161 157z" />
    <glyph glyph-name="Aring" unicode="&#xc5;" horiz-adv-x="825" 
d="M795 245q0 -103 -133 -199q-149 -108 -354 -108q-158 0 -239 73q-69 62 -69 156t104 163q82 55 195 77q-38 20 -59 40q-29 28 -29 56q0 40 32 89q42 64 118 102q98 49 238 49q84 0 129 -30q37 -25 37 -60q0 -31 -45.5 -74.5t-75.5 -43.5q-18 0 -18 15q0 23 22 29t22 39
q0 32 -39.5 46.5t-95.5 14.5q-104 0 -183.5 -32.5t-79.5 -70.5q0 -77 47 -107q36 -23 103 -23q21 0 56 3t45 3q27 0 27 -12q0 -9 -13 -25l-38 -51q-10 -14 -33 -14q-25 0 -67 15t-61 22q-105 -13 -163 -65q-51 -46 -51 -104q0 -73 62 -129q79 -71 225 -71q140 0 234 63
q83 56 83 122q0 31 -22.5 48.5t-52.5 17.5q-32 0 -57 -14q-25 -16 -50 -31q-12 0 -12 12q0 31 58 67t108 36q42 0 68.5 -24.5t26.5 -69.5z" />
    <glyph glyph-name="Aring" unicode="&#x415;" horiz-adv-x="825" 
d="M795 245q0 -103 -133 -199q-149 -108 -354 -108q-158 0 -239 73q-69 62 -69 156t104 163q82 55 195 77q-38 20 -59 40q-29 28 -29 56q0 40 32 89q42 64 118 102q98 49 238 49q84 0 129 -30q37 -25 37 -60q0 -31 -45.5 -74.5t-75.5 -43.5q-18 0 -18 15q0 23 22 29t22 39
q0 32 -39.5 46.5t-95.5 14.5q-104 0 -183.5 -32.5t-79.5 -70.5q0 -77 47 -107q36 -23 103 -23q21 0 56 3t45 3q27 0 27 -12q0 -9 -13 -25l-38 -51q-10 -14 -33 -14q-25 0 -67 15t-61 22q-105 -13 -163 -65q-51 -46 -51 -104q0 -73 62 -129q79 -71 225 -71q140 0 234 63
q83 56 83 122q0 31 -22.5 48.5t-52.5 17.5q-32 0 -57 -14q-25 -16 -50 -31q-12 0 -12 12q0 31 58 67t108 36q42 0 68.5 -24.5t26.5 -69.5z" />
    <glyph glyph-name="AE" unicode="&#xc6;" horiz-adv-x="1466" 
d="M1466 138q0 -76 -55 -130q-65 -64 -179 -64q-125 0 -230 83q-82 65 -147 175q-44 74 -73 156q-78 -63 -118 -126q-47 -74 -53.5 -143.5t-27.5 -82.5q-10 -6 -34 -6q-29 0 -40.5 16.5t-11.5 51.5q0 48 21 139q17 75 39 142q-205 -206 -290 -273q-97 -76 -165 -76
q-50 0 -76 33t-26 84q0 46 18 90t36 44q14 0 14 -9q0 -21 -14.5 -35.5t-14.5 -36.5q0 -30 24 -30q9 -1 16 -1q24 0 49 7q38 10 101 41q45 22 95 51q61 35 92 60q11 37 13.5 61t2.5 33v12q-2 9 -2 13q-7 63 -52.5 100.5t-101.5 37.5q-61 0 -80 -61q-9 -29 -35 -29q-8 0 -8 12
q0 81 44.5 143t110.5 62q59 0 102 -54q51 -64 51 -180q0 -31 -1.5 -62.5t-11.5 -71.5l121 83q44 114 119.5 192.5t147.5 78.5q16 0 25.5 -5.5t9.5 -22.5q0 -24 -52 -67q-183 -151 -216 -188q-20 -49 -31.5 -102.5t-11.5 -115.5q83 112 238 235q143 114 295.5 195.5
t230.5 81.5q45 0 71 -24.5t26 -73.5q0 -73 -81 -152q-73 -71 -119 -71q-6 0 -7.5 3.5t-2.5 5.5q0 13 37 48t37 91q0 33 -15 56q-20 31 -58 31q-48 0 -110 -28q-89 -40 -218 -139q77 -181 197 -300.5t225 -119.5q56 0 96 37t40 89q0 24 -4 36t-4 24q3 7 5 8q5 3 12 0
q8 -4 11.5 -25t3.5 -37z" />
    <glyph glyph-name="AE" unicode="&#x416;" horiz-adv-x="1466" 
d="M1466 138q0 -76 -55 -130q-65 -64 -179 -64q-125 0 -230 83q-82 65 -147 175q-44 74 -73 156q-78 -63 -118 -126q-47 -74 -53.5 -143.5t-27.5 -82.5q-10 -6 -34 -6q-29 0 -40.5 16.5t-11.5 51.5q0 48 21 139q17 75 39 142q-205 -206 -290 -273q-97 -76 -165 -76
q-50 0 -76 33t-26 84q0 46 18 90t36 44q14 0 14 -9q0 -21 -14.5 -35.5t-14.5 -36.5q0 -30 24 -30q9 -1 16 -1q24 0 49 7q38 10 101 41q45 22 95 51q61 35 92 60q11 37 13.5 61t2.5 33v12q-2 9 -2 13q-7 63 -52.5 100.5t-101.5 37.5q-61 0 -80 -61q-9 -29 -35 -29q-8 0 -8 12
q0 81 44.5 143t110.5 62q59 0 102 -54q51 -64 51 -180q0 -31 -1.5 -62.5t-11.5 -71.5l121 83q44 114 119.5 192.5t147.5 78.5q16 0 25.5 -5.5t9.5 -22.5q0 -24 -52 -67q-183 -151 -216 -188q-20 -49 -31.5 -102.5t-11.5 -115.5q83 112 238 235q143 114 295.5 195.5
t230.5 81.5q45 0 71 -24.5t26 -73.5q0 -73 -81 -152q-73 -71 -119 -71q-6 0 -7.5 3.5t-2.5 5.5q0 13 37 48t37 91q0 33 -15 56q-20 31 -58 31q-48 0 -110 -28q-89 -40 -218 -139q77 -181 197 -300.5t225 -119.5q56 0 96 37t40 89q0 24 -4 36t-4 24q3 7 5 8q5 3 12 0
q8 -4 11.5 -25t3.5 -37z" />
    <glyph glyph-name="Ccedilla" unicode="&#xc7;" horiz-adv-x="858" 
d="M850 173q0 -114 -136 -183q-130 -66 -327 -66q-185 0 -291 63q-96 57 -96 143q0 59 39 102q47 52 133 52q53 0 82 -22t29 -63q0 -8 -2.5 -13t-13.5 -5t-31 36t-66 36q-24 0 -41 -18q-24 -26 -24 -79q0 -80 95 -133.5t243 -53.5q125 0 197 60q63 52 63 129q0 69 -56 116
q-70 59 -207 59q-40 0 -55 9t-15 20q0 68 77 85q71 10 143 21q78 23 78 108q0 45 -14 70q-23 42 -82 42q-50 0 -103.5 -14.5t-96.5 -36.5q-20 -53 -63 -94t-87 -41q-22 0 -22 25q0 28 25.5 58.5t59.5 44.5q0 23 -9.5 45t-19.5 45q0 8 13 14l92 42q6 3 13 3q9 0 15 -7.5
t6 -27.5v-23q-2 -20 -12 -44q55 23 124.5 37t125.5 14q81 0 130.5 -35.5t49.5 -93.5q0 -76 -92 -128q-70 -39 -205 -70v-8q124 0 214 -44q120 -59 120 -176z" />
    <glyph glyph-name="Ccedilla" unicode="&#x417;" horiz-adv-x="858" 
d="M850 173q0 -114 -136 -183q-130 -66 -327 -66q-185 0 -291 63q-96 57 -96 143q0 59 39 102q47 52 133 52q53 0 82 -22t29 -63q0 -8 -2.5 -13t-13.5 -5t-31 36t-66 36q-24 0 -41 -18q-24 -26 -24 -79q0 -80 95 -133.5t243 -53.5q125 0 197 60q63 52 63 129q0 69 -56 116
q-70 59 -207 59q-40 0 -55 9t-15 20q0 68 77 85q71 10 143 21q78 23 78 108q0 45 -14 70q-23 42 -82 42q-50 0 -103.5 -14.5t-96.5 -36.5q-20 -53 -63 -94t-87 -41q-22 0 -22 25q0 28 25.5 58.5t59.5 44.5q0 23 -9.5 45t-19.5 45q0 8 13 14l92 42q6 3 13 3q9 0 15 -7.5
t6 -27.5v-23q-2 -20 -12 -44q55 23 124.5 37t125.5 14q81 0 130.5 -35.5t49.5 -93.5q0 -76 -92 -128q-70 -39 -205 -70v-8q124 0 214 -44q120 -59 120 -176z" />
    <glyph glyph-name="Egrave" unicode="&#xc8;" horiz-adv-x="1094" 
d="M1094 226q0 -3 -59 -54l-73 -62q-49 -41 -86 -41q-36 0 -53 45q-13 34 -13 84l-17 194q-144 -212 -299 -309q-132 -83 -273 -83q-88 0 -133 42q-38 36 -38 92q0 54 36 132q9 20 79 147q-35 -3 -66 22.5t-31 45.5q0 6 8.5 4.5t19.5 -2.5q13 0 23.5 5t43.5 32q25 21 48 42
q52 50 94 100q49 58 51 58q9 0 17.5 -30t8.5 -63q0 -75 -52 -132q-29 -32 -85 -63q-68 -38 -98 -106q-20 -45 -20 -88q0 -56 40 -88t114 -32t140 18t121 50q70 40 149 121q91 93 98 153t15 76q22 45 86 45q12 0 15.5 -15.5t3.5 -33.5l21 -276q4 -48 13 -63.5t27 -15.5
q13 0 27 6q24 11 76 45q8 5 14 5q7 0 7 -7z" />
    <glyph glyph-name="Egrave" unicode="&#x418;" horiz-adv-x="1094" 
d="M1094 226q0 -3 -59 -54l-73 -62q-49 -41 -86 -41q-36 0 -53 45q-13 34 -13 84l-17 194q-144 -212 -299 -309q-132 -83 -273 -83q-88 0 -133 42q-38 36 -38 92q0 54 36 132q9 20 79 147q-35 -3 -66 22.5t-31 45.5q0 6 8.5 4.5t19.5 -2.5q13 0 23.5 5t43.5 32q25 21 48 42
q52 50 94 100q49 58 51 58q9 0 17.5 -30t8.5 -63q0 -75 -52 -132q-29 -32 -85 -63q-68 -38 -98 -106q-20 -45 -20 -88q0 -56 40 -88t114 -32t140 18t121 50q70 40 149 121q91 93 98 153t15 76q22 45 86 45q12 0 15.5 -15.5t3.5 -33.5l21 -276q4 -48 13 -63.5t27 -15.5
q13 0 27 6q24 11 76 45q8 5 14 5q7 0 7 -7z" />
    <glyph glyph-name="Eacute" unicode="&#xc9;" horiz-adv-x="1094" 
d="M959 803q0 -36 -116 -104q-123 -72 -210 -72q-68 0 -107 42q-33 36 -33 83q0 49 27.5 113.5t50.5 64.5q21 0 21 -13q0 -30 -12 -48t-12 -41q0 -40 43 -74.5t103 -34.5q107 0 143 47t93 47q9 0 9 -10zM1094 226q0 -3 -59 -54l-73 -62q-49 -41 -86 -41q-36 0 -53 45
q-13 34 -13 84l-17 194q-144 -212 -299 -309q-132 -83 -273 -83q-88 0 -133 42q-38 36 -38 92q0 54 36 132q9 20 79 147q-35 -3 -66 22.5t-31 45.5q0 6 8.5 4.5t19.5 -2.5q13 0 23.5 5t43.5 32q25 21 48 42q52 50 94 100q49 58 51 58q9 0 17.5 -30t8.5 -63q0 -75 -52 -132
q-29 -32 -85 -63q-68 -38 -98 -106q-20 -45 -20 -88q0 -56 40 -88t114 -32t140 18t121 50q70 40 149 121q91 93 98 153t15 76q22 45 86 45q12 0 15.5 -15.5t3.5 -33.5l21 -276q4 -48 13 -63.5t27 -15.5q13 0 27 6q24 11 76 45q8 5 14 5q7 0 7 -7z" />
    <glyph glyph-name="Eacute" unicode="&#x419;" horiz-adv-x="1094" 
d="M959 803q0 -36 -116 -104q-123 -72 -210 -72q-68 0 -107 42q-33 36 -33 83q0 49 27.5 113.5t50.5 64.5q21 0 21 -13q0 -30 -12 -48t-12 -41q0 -40 43 -74.5t103 -34.5q107 0 143 47t93 47q9 0 9 -10zM1094 226q0 -3 -59 -54l-73 -62q-49 -41 -86 -41q-36 0 -53 45
q-13 34 -13 84l-17 194q-144 -212 -299 -309q-132 -83 -273 -83q-88 0 -133 42q-38 36 -38 92q0 54 36 132q9 20 79 147q-35 -3 -66 22.5t-31 45.5q0 6 8.5 4.5t19.5 -2.5q13 0 23.5 5t43.5 32q25 21 48 42q52 50 94 100q49 58 51 58q9 0 17.5 -30t8.5 -63q0 -75 -52 -132
q-29 -32 -85 -63q-68 -38 -98 -106q-20 -45 -20 -88q0 -56 40 -88t114 -32t140 18t121 50q70 40 149 121q91 93 98 153t15 76q22 45 86 45q12 0 15.5 -15.5t3.5 -33.5l21 -276q4 -48 13 -63.5t27 -15.5q13 0 27 6q24 11 76 45q8 5 14 5q7 0 7 -7z" />
    <glyph glyph-name="Ecircumflex" unicode="&#xca;" horiz-adv-x="1121" 
d="M1121 153q0 -75 -56 -130q-66 -64 -179 -64q-111 0 -209 69q-80 56 -147 157q-53 80 -86 169q-62 -58 -172 -176q-92 -99 -126 -128q-58 -50 -99 -50q-25 0 -36 12.5t-11 29.5q0 30 27 82q40 77 143 215q17 22 34 45t15 42q-38 -3 -71.5 34.5t-33.5 66.5q0 10 13 10
q4 0 15 -5t25 -5q112 0 112 93.5t158 93.5q15 0 15 -18q0 -78 -47 -145q-31 -44 -102.5 -107t-90.5 -90l-84 -117l-24 -33q-13 -18 -13 -27l1 -8q2 -2 3.5 -2.5l4.5 -1.5q7 0 24.5 12t84.5 62q88 65 206 151q232 169 367 240q122 64 196 64q52 0 76 -27q21 -24 21 -71
q0 -66 -79 -147q-75 -76 -121 -76q-9 0 -9 8q0 5 7 12q39 37 56 70q13 26 13 49q0 48 -25 74q-21 22 -51 22q-60 0 -169 -61q-85 -48 -158 -106q75 -177 196.5 -298.5t224.5 -121.5q57 0 96.5 36.5t39.5 89.5q0 19 -4 36t-4 24q0 6 5 9t12 0q9 -4 12.5 -25t3.5 -38z" />
    <glyph glyph-name="Ecircumflex" unicode="&#x41a;" horiz-adv-x="1121" 
d="M1121 153q0 -75 -56 -130q-66 -64 -179 -64q-111 0 -209 69q-80 56 -147 157q-53 80 -86 169q-62 -58 -172 -176q-92 -99 -126 -128q-58 -50 -99 -50q-25 0 -36 12.5t-11 29.5q0 30 27 82q40 77 143 215q17 22 34 45t15 42q-38 -3 -71.5 34.5t-33.5 66.5q0 10 13 10
q4 0 15 -5t25 -5q112 0 112 93.5t158 93.5q15 0 15 -18q0 -78 -47 -145q-31 -44 -102.5 -107t-90.5 -90l-84 -117l-24 -33q-13 -18 -13 -27l1 -8q2 -2 3.5 -2.5l4.5 -1.5q7 0 24.5 12t84.5 62q88 65 206 151q232 169 367 240q122 64 196 64q52 0 76 -27q21 -24 21 -71
q0 -66 -79 -147q-75 -76 -121 -76q-9 0 -9 8q0 5 7 12q39 37 56 70q13 26 13 49q0 48 -25 74q-21 22 -51 22q-60 0 -169 -61q-85 -48 -158 -106q75 -177 196.5 -298.5t224.5 -121.5q57 0 96.5 36.5t39.5 89.5q0 19 -4 36t-4 24q0 6 5 9t12 0q9 -4 12.5 -25t3.5 -38z" />
    <glyph glyph-name="Edieresis" unicode="&#xcb;" horiz-adv-x="1105" 
d="M1095 130q7 -11 7 -15q0 -5 -9 -10l-104 -69q-17 -11 -40 -22.5t-38 -13.5h-20q-33 5 -46 35q-9 22 -9 64v20.5t1 20.5q0 30 1.5 46t13 114.5t22.5 172.5q15 102 15 119q0 19 -7.5 32t-24.5 13q-54 0 -130 -78q-57 -59 -124 -158q-26 -38 -80 -127q-120 -196 -216 -268
q-66 -49 -143 -49q-88 0 -131 65q-33 49 -33 121q0 103 94 179.5t213 76.5h41q17 0 29.5 -3t12.5 -16q0 -8 -13 -12q-34 -6 -49 -9q-90 -18 -150 -79.5t-60 -137.5q0 -63 19.5 -100.5t57.5 -37.5q80 0 165 132l148 242q125 169 225 243q85 63 161 63q57 0 83 -34
q19 -25 19 -64q0 -41 -2 -60t-3 -31l-25 -237q-3 -29 -5 -51t-2 -47q0 -28 7 -40t34 -12q15 0 28 2.5t27 6.5q40 12 40 13z" />
    <glyph glyph-name="Edieresis" unicode="&#x41b;" horiz-adv-x="1105" 
d="M1095 130q7 -11 7 -15q0 -5 -9 -10l-104 -69q-17 -11 -40 -22.5t-38 -13.5h-20q-33 5 -46 35q-9 22 -9 64v20.5t1 20.5q0 30 1.5 46t13 114.5t22.5 172.5q15 102 15 119q0 19 -7.5 32t-24.5 13q-54 0 -130 -78q-57 -59 -124 -158q-26 -38 -80 -127q-120 -196 -216 -268
q-66 -49 -143 -49q-88 0 -131 65q-33 49 -33 121q0 103 94 179.5t213 76.5h41q17 0 29.5 -3t12.5 -16q0 -8 -13 -12q-34 -6 -49 -9q-90 -18 -150 -79.5t-60 -137.5q0 -63 19.5 -100.5t57.5 -37.5q80 0 165 132l148 242q125 169 225 243q85 63 161 63q57 0 83 -34
q19 -25 19 -64q0 -41 -2 -60t-3 -31l-25 -237q-3 -29 -5 -51t-2 -47q0 -28 7 -40t34 -12q15 0 28 2.5t27 6.5q40 12 40 13z" />
    <glyph glyph-name="Igrave" unicode="&#xcc;" horiz-adv-x="1543" 
d="M1543 153q0 -5 -6.5 -12.5t-23.5 -23.5l-94 -88q-14 -14 -33.5 -21.5t-32.5 -7.5q-72 0 -86 135q-5 50 -5 141q0 114 -8 169q-16 108 -64 108q-16 0 -40 -20q-34 -28 -86 -96q-60 -78 -159 -228q-24 -37 -64 -105q-43 -73 -64 -73q-29 0 -54 10q-31 13 -31 35q0 14 16 45
l70 134q88 173 113 231.5t25 92.5q0 58 -51 58q-55 0 -121 -59q-83 -74 -174 -230q-99 -170 -183 -265q-68 -77 -130 -106q-42 -20 -92 -20q-89 0 -132 65q-33 49 -33 121q0 103 94 179.5t213 76.5h41q17 0 29.5 -3t12.5 -16q0 -8 -13 -12q-34 -6 -49 -9q-90 -18 -150 -79.5
t-60 -137.5q0 -63 19.5 -100.5t57.5 -37.5q79 0 165 132l148 242q99 139 191 215q108 90 203 90q43 0 67 -25q21 -22 21 -57q0 -51 -38 -159q-34 -96 -69 -163q138 181 230 265t152 84q52 0 82 -62q23 -47 31 -129.5t8 -168.5q0 -62 5 -90q10 -56 41 -56q14 0 34.5 10
t45.5 24q14 8 20 8q11 0 11 -11z" />
    <glyph glyph-name="Igrave" unicode="&#x41c;" horiz-adv-x="1543" 
d="M1543 153q0 -5 -6.5 -12.5t-23.5 -23.5l-94 -88q-14 -14 -33.5 -21.5t-32.5 -7.5q-72 0 -86 135q-5 50 -5 141q0 114 -8 169q-16 108 -64 108q-16 0 -40 -20q-34 -28 -86 -96q-60 -78 -159 -228q-24 -37 -64 -105q-43 -73 -64 -73q-29 0 -54 10q-31 13 -31 35q0 14 16 45
l70 134q88 173 113 231.5t25 92.5q0 58 -51 58q-55 0 -121 -59q-83 -74 -174 -230q-99 -170 -183 -265q-68 -77 -130 -106q-42 -20 -92 -20q-89 0 -132 65q-33 49 -33 121q0 103 94 179.5t213 76.5h41q17 0 29.5 -3t12.5 -16q0 -8 -13 -12q-34 -6 -49 -9q-90 -18 -150 -79.5
t-60 -137.5q0 -63 19.5 -100.5t57.5 -37.5q79 0 165 132l148 242q99 139 191 215q108 90 203 90q43 0 67 -25q21 -22 21 -57q0 -51 -38 -159q-34 -96 -69 -163q138 181 230 265t152 84q52 0 82 -62q23 -47 31 -129.5t8 -168.5q0 -62 5 -90q10 -56 41 -56q14 0 34.5 10
t45.5 24q14 8 20 8q11 0 11 -11z" />
    <glyph glyph-name="Iacute" unicode="&#xcd;" horiz-adv-x="1260" 
d="M1260 668q0 -119 -133 -232q-146 -124 -357 -149q-6 -19 -8 -38.5t-2 -42.5q0 -109 96 -176q76 -53 151 -53q53 0 95 46q24 26 48 75q10 24 14.5 36t15.5 12q13 0 13 -16q0 -67 -81 -159q-94 -107 -203 -107q-94 0 -154.5 69.5t-60.5 176.5q0 35 7.5 78.5t24.5 88.5
q-155 -21 -269 -40q-73 -142 -174 -236q-106 -99 -195 -99q-43 0 -65.5 30t-22.5 69q0 98 103 187q124 107 354 150q45 81 89 169q-31 -29 -65 -29q-36 0 -64.5 31.5t-28.5 67.5q0 15 14 15q5 0 15 -2.5t17 -2.5q10 0 30 13q31 20 88 73q22 20 30 29q13 14 15 14q11 0 17 -3
l72 -45q6 -3 6 -11q0 -6 -86 -140q-53 -83 -89 -165q146 24 253 46q81 126 209 226q133 104 224 104q37 0 50 -25q7 -13 7 -35zM1209 625q0 45 -38 45q-62 0 -171.5 -82.5t-179.5 -179.5q148 0 245 44q75 34 115 93q29 43 29 80zM405 229q-192 -17 -292 -98
q-78 -63 -78 -135q0 -27 18 -44t46 -17q64 0 152.5 84t153.5 210z" />
    <glyph glyph-name="Iacute" unicode="&#x41d;" horiz-adv-x="1260" 
d="M1260 668q0 -119 -133 -232q-146 -124 -357 -149q-6 -19 -8 -38.5t-2 -42.5q0 -109 96 -176q76 -53 151 -53q53 0 95 46q24 26 48 75q10 24 14.5 36t15.5 12q13 0 13 -16q0 -67 -81 -159q-94 -107 -203 -107q-94 0 -154.5 69.5t-60.5 176.5q0 35 7.5 78.5t24.5 88.5
q-155 -21 -269 -40q-73 -142 -174 -236q-106 -99 -195 -99q-43 0 -65.5 30t-22.5 69q0 98 103 187q124 107 354 150q45 81 89 169q-31 -29 -65 -29q-36 0 -64.5 31.5t-28.5 67.5q0 15 14 15q5 0 15 -2.5t17 -2.5q10 0 30 13q31 20 88 73q22 20 30 29q13 14 15 14q11 0 17 -3
l72 -45q6 -3 6 -11q0 -6 -86 -140q-53 -83 -89 -165q146 24 253 46q81 126 209 226q133 104 224 104q37 0 50 -25q7 -13 7 -35zM1209 625q0 45 -38 45q-62 0 -171.5 -82.5t-179.5 -179.5q148 0 245 44q75 34 115 93q29 43 29 80zM405 229q-192 -17 -292 -98
q-78 -63 -78 -135q0 -27 18 -44t46 -17q64 0 152.5 84t153.5 210z" />
    <glyph glyph-name="Icircumflex" unicode="&#xce;" horiz-adv-x="918" 
d="M918 456q0 -97 -64 -204q-67 -111 -178 -182q-126 -80 -272 -80q-159 0 -256.5 85.5t-97.5 229.5q0 171 139 308q128 126 254 126q46 0 76.5 -18t43.5 -61q46 8 88 8q140 0 210 -69q57 -56 57 -143zM529 652q-4 26 -23 40.5t-50 14.5q-106 0 -189.5 -103.5t-83.5 -240.5
q0 -19 1 -38.5t4 -39.5q25 138 119 237q91 95 222 130zM859 373q0 81 -59 129q-65 53 -182 53q-130 0 -235 -60q-97 -55 -148 -145q-17 -30 -27 -62t-20 -30q25 -78 93 -123q74 -49 188 -49q156 0 276 93q114 89 114 194z" />
    <glyph glyph-name="Icircumflex" unicode="&#x41e;" horiz-adv-x="918" 
d="M918 456q0 -97 -64 -204q-67 -111 -178 -182q-126 -80 -272 -80q-159 0 -256.5 85.5t-97.5 229.5q0 171 139 308q128 126 254 126q46 0 76.5 -18t43.5 -61q46 8 88 8q140 0 210 -69q57 -56 57 -143zM529 652q-4 26 -23 40.5t-50 14.5q-106 0 -189.5 -103.5t-83.5 -240.5
q0 -19 1 -38.5t4 -39.5q25 138 119 237q91 95 222 130zM859 373q0 81 -59 129q-65 53 -182 53q-130 0 -235 -60q-97 -55 -148 -145q-17 -30 -27 -62t-20 -30q25 -78 93 -123q74 -49 188 -49q156 0 276 93q114 89 114 194z" />
    <glyph glyph-name="Idieresis" unicode="&#xcf;" horiz-adv-x="945" 
d="M945 159q0 -4 -1 -6q-5 -7 -26 -25l-87 -74q-13 -12 -35.5 -23t-38.5 -11q-25 0 -41 13q-25 20 -29 67l-27 336q0 39 -11 69q-16 43 -50 43q-20 0 -51 -21q-26 -18 -59 -50q-143 -141 -235 -277q-49 -77 -97 -153q-34 -48 -85 -48q-31 0 -51.5 10.5t-20.5 34.5
q0 91 73 193q68 81 137 162q74 88 74 142q0 16 -16 29q-21 17 -54 17q-25 0 -56 -7l-22 -2q0 24 29.5 69.5t56.5 45.5q43 0 85 -29q51 -36 51 -90q0 -40 -39 -121q-43 -90 -113 -192q158 169 270 253q119 89 194 89q38 0 66 -30t35 -77l31 -221q5 -46 11 -92q9 -43 39 -43
q18 0 41 19q12 10 40 10q12 0 12 -10z" />
    <glyph glyph-name="Idieresis" unicode="&#x41f;" horiz-adv-x="945" 
d="M945 159q0 -4 -1 -6q-5 -7 -26 -25l-87 -74q-13 -12 -35.5 -23t-38.5 -11q-25 0 -41 13q-25 20 -29 67l-27 336q0 39 -11 69q-16 43 -50 43q-20 0 -51 -21q-26 -18 -59 -50q-143 -141 -235 -277q-49 -77 -97 -153q-34 -48 -85 -48q-31 0 -51.5 10.5t-20.5 34.5
q0 91 73 193q68 81 137 162q74 88 74 142q0 16 -16 29q-21 17 -54 17q-25 0 -56 -7l-22 -2q0 24 29.5 69.5t56.5 45.5q43 0 85 -29q51 -36 51 -90q0 -40 -39 -121q-43 -90 -113 -192q158 169 270 253q119 89 194 89q38 0 66 -30t35 -77l31 -221q5 -46 11 -92q9 -43 39 -43
q18 0 41 19q12 10 40 10q12 0 12 -10z" />
    <glyph glyph-name="Eth" unicode="&#xd0;" horiz-adv-x="1158" 
d="M1158 520q0 -176 -179 -318.5t-391 -142.5q-128 0 -221.5 44.5t-93.5 96.5q0 15 15 29t33 14q63 0 74 -47q25 -104 188 -104q162 0 306.5 118.5t144.5 252.5q0 66 -53.5 107t-142.5 41q-132 0 -283 -91q-160 -96 -320 -284l-96 -266q-68 -159 -129 -159q-31 0 -55.5 20
t-24.5 55q0 39 52 116q40 59 112 142q52 60 108 117q46 107 93 230q-44 -27 -92 -27q-37 0 -66 25.5t-39 59.5q-2 8 0 10l6 1q8 0 20 -2.5t14 -2.5q83 0 158 125q35 59 84 59q11 0 23.5 -54t12.5 -74q0 -28 -24 -58q-20 -25 -50 -43q-30 -94 -68 -177q78 84 176 163
q120 97 236 155q140 70 251 70q97 0 159 -58t62 -143z" />
    <glyph glyph-name="Eth" unicode="&#x420;" horiz-adv-x="1158" 
d="M1158 520q0 -176 -179 -318.5t-391 -142.5q-128 0 -221.5 44.5t-93.5 96.5q0 15 15 29t33 14q63 0 74 -47q25 -104 188 -104q162 0 306.5 118.5t144.5 252.5q0 66 -53.5 107t-142.5 41q-132 0 -283 -91q-160 -96 -320 -284l-96 -266q-68 -159 -129 -159q-31 0 -55.5 20
t-24.5 55q0 39 52 116q40 59 112 142q52 60 108 117q46 107 93 230q-44 -27 -92 -27q-37 0 -66 25.5t-39 59.5q-2 8 0 10l6 1q8 0 20 -2.5t14 -2.5q83 0 158 125q35 59 84 59q11 0 23.5 -54t12.5 -74q0 -28 -24 -58q-20 -25 -50 -43q-30 -94 -68 -177q78 84 176 163
q120 97 236 155q140 70 251 70q97 0 159 -58t62 -143z" />
    <glyph glyph-name="Ntilde" unicode="&#xd1;" horiz-adv-x="918" 
d="M918 274q0 -115 -118 -196q-132 -90 -352 -90q-218 0 -321 98q-77 74 -77 184q0 126 108 237q92 94 235 155q130 55 229 55q45 0 67 -10.5t22 -27.5q0 -29 -16 -53q49 0 67 -11q13 -8 13 -23q0 -10 -17 -25l-106 -88q-3 -3 -108 -115q-48 -51 -86 -51q-23 0 -40 21
t-17 50q0 46 51 100q60 63 186 129q6 8 14.5 25.5t8.5 24.5q0 12 -11 19t-27 7q-75 0 -180 -49q-114 -53 -188 -129q-86 -88 -86 -178q0 -87 74 -145q91 -71 269 -71q216 0 310 54q72 41 72 111q0 8 -1.5 11.5t-1.5 16.5t10 13q11 0 14 -13t3 -36z" />
    <glyph glyph-name="Ntilde" unicode="&#x421;" horiz-adv-x="918" 
d="M918 274q0 -115 -118 -196q-132 -90 -352 -90q-218 0 -321 98q-77 74 -77 184q0 126 108 237q92 94 235 155q130 55 229 55q45 0 67 -10.5t22 -27.5q0 -29 -16 -53q49 0 67 -11q13 -8 13 -23q0 -10 -17 -25l-106 -88q-3 -3 -108 -115q-48 -51 -86 -51q-23 0 -40 21
t-17 50q0 46 51 100q60 63 186 129q6 8 14.5 25.5t8.5 24.5q0 12 -11 19t-27 7q-75 0 -180 -49q-114 -53 -188 -129q-86 -88 -86 -178q0 -87 74 -145q91 -71 269 -71q216 0 310 54q72 41 72 111q0 8 -1.5 11.5t-1.5 16.5t10 13q11 0 14 -13t3 -36z" />
    <glyph glyph-name="Ograve" unicode="&#xd2;" horiz-adv-x="1342" 
d="M1342 162q0 -8 -15 -20q-10 -8 -19 -15l-67 -59q-32 -28 -61 -40q-22 -9 -40 -9q-63 0 -73 135l-6 122l-14 148q-5 52 -18 76q-17 32 -51 32q-25 0 -83 -60q-45 -47 -110 -131q-36 -47 -96 -129q-34 -48 -67 -96q-49 -66 -97 -66q-24 0 -40 9t-16 29q0 28 56 113
q43 65 71 114q61 106 85 167q20 50 20 81q0 25 -15.5 37t-31.5 12q-38 0 -88 -34q-57 -39 -127 -117q-64 -71 -135 -175q-21 -31 -115 -177q-45 -69 -63 -86q-24 -22 -61 -22q-30 0 -47.5 12t-17.5 38q0 23 18 58q15 29 50 80q116 170 161 254q34 64 34 95q0 22 -17 37
q-21 18 -59 18q-16 0 -23.5 -1.5t-17 -6.5t-14.5 -8t-10 -3q-14 0 -14 11q0 7 4 15q4 5 4 6l33 59q11 20 18 25q12 10 39 10q48 0 84 -24q44 -30 44 -85q0 -36 -17 -79q-13 -34 -51 -104q-41 -74 -81 -148q74 89 142 159q99 102 184 162q104 74 174 74q43 0 68 -21t25 -55
q0 -55 -47 -170q-41 -99 -79 -159q94 127 204 229q135 125 208 125q59 0 88 -79q16 -44 33 -156q8 -83 16.5 -157.5t42.5 -74.5q17 0 47 17t39 17q7 0 9 -2.5t3 -6.5z" />
    <glyph glyph-name="Ograve" unicode="&#x422;" horiz-adv-x="1342" 
d="M1342 162q0 -8 -15 -20q-10 -8 -19 -15l-67 -59q-32 -28 -61 -40q-22 -9 -40 -9q-63 0 -73 135l-6 122l-14 148q-5 52 -18 76q-17 32 -51 32q-25 0 -83 -60q-45 -47 -110 -131q-36 -47 -96 -129q-34 -48 -67 -96q-49 -66 -97 -66q-24 0 -40 9t-16 29q0 28 56 113
q43 65 71 114q61 106 85 167q20 50 20 81q0 25 -15.5 37t-31.5 12q-38 0 -88 -34q-57 -39 -127 -117q-64 -71 -135 -175q-21 -31 -115 -177q-45 -69 -63 -86q-24 -22 -61 -22q-30 0 -47.5 12t-17.5 38q0 23 18 58q15 29 50 80q116 170 161 254q34 64 34 95q0 22 -17 37
q-21 18 -59 18q-16 0 -23.5 -1.5t-17 -6.5t-14.5 -8t-10 -3q-14 0 -14 11q0 7 4 15q4 5 4 6l33 59q11 20 18 25q12 10 39 10q48 0 84 -24q44 -30 44 -85q0 -36 -17 -79q-13 -34 -51 -104q-41 -74 -81 -148q74 89 142 159q99 102 184 162q104 74 174 74q43 0 68 -21t25 -55
q0 -55 -47 -170q-41 -99 -79 -159q94 127 204 229q135 125 208 125q59 0 88 -79q16 -44 33 -156q8 -83 16.5 -157.5t42.5 -74.5q17 0 47 17t39 17q7 0 9 -2.5t3 -6.5z" />
    <glyph glyph-name="Oacute" unicode="&#xd3;" horiz-adv-x="910" 
d="M910 613q0 -51 -41 -148q-33 -77 -88 -174q-43 -76 -83 -134q37 0 66.5 -5t29.5 -20q0 -13 -19 -13q-9 0 -37 4.5t-60 4.5q-82 -134 -217 -216t-268 -82q-95 0 -148 34q-45 29 -45 69q0 87 134 152q155 75 414 75l85 -1q35 69 62 143q34 93 34 138q0 17 -3.5 23.5
t-11.5 6.5q-11 0 -91 -58q-126 -93 -224 -128q-58 -21 -105 -21q-62 0 -106 38q-50 43 -50 117q0 75 72 192.5t123 117.5q13 0 25.5 -7t12.5 -19v-11q0 -18 -7 -30q-11 -20 -40 -30q-54 -20 -74 -41q-27 -29 -27 -72q0 -67 51.5 -111.5t131.5 -44.5q64 0 134 35.5t158 114.5
q32 29 88 84q66 65 90 65q14 0 22 -8q12 -12 12 -40zM614 129h-73q-176 0 -318.5 -47t-142.5 -113q0 -28 27 -50q38 -31 118 -31q125 0 232 70q99 65 157 171z" />
    <glyph glyph-name="Oacute" unicode="&#x423;" horiz-adv-x="910" 
d="M910 613q0 -51 -41 -148q-33 -77 -88 -174q-43 -76 -83 -134q37 0 66.5 -5t29.5 -20q0 -13 -19 -13q-9 0 -37 4.5t-60 4.5q-82 -134 -217 -216t-268 -82q-95 0 -148 34q-45 29 -45 69q0 87 134 152q155 75 414 75l85 -1q35 69 62 143q34 93 34 138q0 17 -3.5 23.5
t-11.5 6.5q-11 0 -91 -58q-126 -93 -224 -128q-58 -21 -105 -21q-62 0 -106 38q-50 43 -50 117q0 75 72 192.5t123 117.5q13 0 25.5 -7t12.5 -19v-11q0 -18 -7 -30q-11 -20 -40 -30q-54 -20 -74 -41q-27 -29 -27 -72q0 -67 51.5 -111.5t131.5 -44.5q64 0 134 35.5t158 114.5
q32 29 88 84q66 65 90 65q14 0 22 -8q12 -12 12 -40zM614 129h-73q-176 0 -318.5 -47t-142.5 -113q0 -28 27 -50q38 -31 118 -31q125 0 232 70q99 65 157 171z" />
    <glyph glyph-name="Ocircumflex" unicode="&#xd4;" horiz-adv-x="1253" 
d="M1233 475q0 -155 -155.5 -327t-287.5 -172q-59 0 -89 39q-24 31 -24 75q0 63 53 124.5t116 61.5q-46 -47 -56 -61q-24 -34 -24 -72q0 -28 20 -49q26 -28 76 -28q108 0 198 123q82 112 82 210q0 62 -25 97q-33 46 -90 46q-75 0 -176 -70q-23 -16 -100 -77q-6 1 -8 10
q63 93 146 155q98 74 191 74q78 0 119 -50q34 -42 34 -109zM867 710q0 -40 -33 -86q-13 -18 -62 -71q-99 -304 -119 -355q-81 -202 -182 -305q-128 -130 -310 -130q-54 0 -89 21q-42 25 -42 73q0 65 72 119q80 60 195 60q21 0 35.5 -3t14.5 -14q0 -63 -16.5 -87.5
t-45.5 -24.5q-16 0 -65 14q-25 7 -39 7q-24 0 -37 -18.5t-13 -66.5q0 -22 15 -32t39 -10q121 0 243 148q127 154 182 386q-51 -51 -119 -104q-85 -66 -159 -104q-92 -47 -157 -47q-60 0 -93 37t-33 114q0 147 147 303q157 166 330 166q71 0 102 -37q21 -25 21 -60
q0 -62 -85 -143q-81 -77 -129 -77q-4 0 -7 8q0 48 75.5 86.5t75.5 111.5q0 36 -21.5 56.5t-61.5 20.5q-122 0 -234 -126q-108 -121 -108 -238q0 -63 43 -94q34 -24 83 -24q57 0 118 29q100 48 225 173q53 187 58 199q38 94 116 131q15 7 35 15.5t26 8.5q5 0 7 -10.5t2 -19.5
z" />
    <glyph glyph-name="Ocircumflex" unicode="&#x424;" horiz-adv-x="1253" 
d="M1233 475q0 -155 -155.5 -327t-287.5 -172q-59 0 -89 39q-24 31 -24 75q0 63 53 124.5t116 61.5q-46 -47 -56 -61q-24 -34 -24 -72q0 -28 20 -49q26 -28 76 -28q108 0 198 123q82 112 82 210q0 62 -25 97q-33 46 -90 46q-75 0 -176 -70q-23 -16 -100 -77q-6 1 -8 10
q63 93 146 155q98 74 191 74q78 0 119 -50q34 -42 34 -109zM867 710q0 -40 -33 -86q-13 -18 -62 -71q-99 -304 -119 -355q-81 -202 -182 -305q-128 -130 -310 -130q-54 0 -89 21q-42 25 -42 73q0 65 72 119q80 60 195 60q21 0 35.5 -3t14.5 -14q0 -63 -16.5 -87.5
t-45.5 -24.5q-16 0 -65 14q-25 7 -39 7q-24 0 -37 -18.5t-13 -66.5q0 -22 15 -32t39 -10q121 0 243 148q127 154 182 386q-51 -51 -119 -104q-85 -66 -159 -104q-92 -47 -157 -47q-60 0 -93 37t-33 114q0 147 147 303q157 166 330 166q71 0 102 -37q21 -25 21 -60
q0 -62 -85 -143q-81 -77 -129 -77q-4 0 -7 8q0 48 75.5 86.5t75.5 111.5q0 36 -21.5 56.5t-61.5 20.5q-122 0 -234 -126q-108 -121 -108 -238q0 -63 43 -94q34 -24 83 -24q57 0 118 29q100 48 225 173q53 187 58 199q38 94 116 131q15 7 35 15.5t26 8.5q5 0 7 -10.5t2 -19.5
z" />
    <glyph glyph-name="Otilde" unicode="&#xd5;" horiz-adv-x="925" 
d="M925 676q0 -2 -6 -10q-20 -28 -40 -61.5t-40 -80.5t-20 -73q0 -17 4.5 -28.5t9.5 -21.5q0 -3 -8.5 -3h-13.5q-42 0 -66 16.5t-30 44.5l-213 -173q0 -202 53 -296q42 -75 110 -75q58 0 103 45l88 98q18 0 18 -13q0 -36 -67 -102q-80 -78 -160 -78q-46 0 -84 18
q-59 28 -100 95q-53 86 -73 230q-130 -97 -245 -185q-98 -75 -99 -76q-21 -15 -32 -15q-14 0 -14 36q0 39 66 83q159 105 319 211q-10 85 -10 157q0 77 4 92q8 30 47 51q13 7 37.5 12.5t38.5 5.5q4 0 9.5 -7t5.5 -16q0 -25 -13 -112q-6 -40 -6 -100l213 190q0 82 41 117
q35 30 102 30h44q16 -2 19.5 -2.5t7.5 -3.5z" />
    <glyph glyph-name="Otilde" unicode="&#x425;" horiz-adv-x="925" 
d="M925 676q0 -2 -6 -10q-20 -28 -40 -61.5t-40 -80.5t-20 -73q0 -17 4.5 -28.5t9.5 -21.5q0 -3 -8.5 -3h-13.5q-42 0 -66 16.5t-30 44.5l-213 -173q0 -202 53 -296q42 -75 110 -75q58 0 103 45l88 98q18 0 18 -13q0 -36 -67 -102q-80 -78 -160 -78q-46 0 -84 18
q-59 28 -100 95q-53 86 -73 230q-130 -97 -245 -185q-98 -75 -99 -76q-21 -15 -32 -15q-14 0 -14 36q0 39 66 83q159 105 319 211q-10 85 -10 157q0 77 4 92q8 30 47 51q13 7 37.5 12.5t38.5 5.5q4 0 9.5 -7t5.5 -16q0 -25 -13 -112q-6 -40 -6 -100l213 190q0 82 41 117
q35 30 102 30h44q16 -2 19.5 -2.5t7.5 -3.5z" />
    <glyph glyph-name="Odieresis" unicode="&#xd6;" horiz-adv-x="1094" 
d="M1094 177q0 -133 -137 -287t-248 -154q-33 0 -52 22.5t-19 66.5q0 66 57 118q49 45 90 45q24 0 24 -11q0 -4 -5 -11q-12 -16 -24 -31q-20 -27 -30 -46q-13 -26 -13 -53q0 -17 6 -27.5t21 -10.5q50 0 121 105.5t71 184.5l-4 16q-25 -18 -42 -26.5t-35 -8.5q-35 0 -52 42
q-13 33 -13 87l-17 194q-137 -197 -277 -294.5t-295 -97.5q-96 0 -140 49q-31 35 -31 85q0 62 53 165q12 24 62 114q-29 -3 -60.5 17t-36.5 44v7q2 4 33.5 1t101.5 71q76 83 153 167q9 0 17.5 -29.5t8.5 -63.5q0 -77 -51 -132q-28 -31 -87 -64t-91 -94q-26 -50 -26 -99
q0 -56 40 -88t113 -32q131 0 249 63q126 67 223 200q29 39 46 142q10 58 91 58q14 0 17 -19.5t3 -29.5l19 -277q0 -36 12.5 -57t36.5 -21q9 0 20 4t41 23q14 8 30 21q10 8 14 8q9 0 10.5 -4.5t1.5 -9.5v-42z" />
    <glyph glyph-name="Odieresis" unicode="&#x426;" horiz-adv-x="1094" 
d="M1094 177q0 -133 -137 -287t-248 -154q-33 0 -52 22.5t-19 66.5q0 66 57 118q49 45 90 45q24 0 24 -11q0 -4 -5 -11q-12 -16 -24 -31q-20 -27 -30 -46q-13 -26 -13 -53q0 -17 6 -27.5t21 -10.5q50 0 121 105.5t71 184.5l-4 16q-25 -18 -42 -26.5t-35 -8.5q-35 0 -52 42
q-13 33 -13 87l-17 194q-137 -197 -277 -294.5t-295 -97.5q-96 0 -140 49q-31 35 -31 85q0 62 53 165q12 24 62 114q-29 -3 -60.5 17t-36.5 44v7q2 4 33.5 1t101.5 71q76 83 153 167q9 0 17.5 -29.5t8.5 -63.5q0 -77 -51 -132q-28 -31 -87 -64t-91 -94q-26 -50 -26 -99
q0 -56 40 -88t113 -32q131 0 249 63q126 67 223 200q29 39 46 142q10 58 91 58q14 0 17 -19.5t3 -29.5l19 -277q0 -36 12.5 -57t36.5 -21q9 0 20 4t41 23q14 8 30 21q10 8 14 8q9 0 10.5 -4.5t1.5 -9.5v-42z" />
    <glyph glyph-name="multiply" unicode="&#xd7;" horiz-adv-x="989" 
d="M989 58q0 -39 -92 -107q-99 -73 -179 -73q-97 0 -161.5 64.5t-64.5 161.5q0 67 40 141q30 56 111 161q-99 -70 -128 -89q-72 -47 -130 -71q-69 -29 -128 -29q-62 0 -103 30q-48 35 -48 100q0 24 7 54.5t18 62.5q-40 0 -67 20q-34 25 -34 51q0 3 3 3.5t17 -1.5
q56 0 102 57q35 53 70 107q40 57 81 57q9 0 24 -41t15 -53q0 -51 -44 -107q-48 -61 -122 -89q0 -72 62 -114q54 -37 127 -37q63 0 128 30q80 37 168 120q83 91 113 120t49 29q18 0 26 -10.5t8 -24.5q0 -38 -16 -58q-24 -30 -110 -68q-62 -62 -95 -127q-39 -75 -39 -151
q0 -71 66 -144.5t137 -73.5q43 0 92 33q39 27 63 58q9 11 11.5 13t10.5 2q12 0 12 -7z" />
    <glyph glyph-name="multiply" unicode="&#x427;" horiz-adv-x="989" 
d="M989 58q0 -39 -92 -107q-99 -73 -179 -73q-97 0 -161.5 64.5t-64.5 161.5q0 67 40 141q30 56 111 161q-99 -70 -128 -89q-72 -47 -130 -71q-69 -29 -128 -29q-62 0 -103 30q-48 35 -48 100q0 24 7 54.5t18 62.5q-40 0 -67 20q-34 25 -34 51q0 3 3 3.5t17 -1.5
q56 0 102 57q35 53 70 107q40 57 81 57q9 0 24 -41t15 -53q0 -51 -44 -107q-48 -61 -122 -89q0 -72 62 -114q54 -37 127 -37q63 0 128 30q80 37 168 120q83 91 113 120t49 29q18 0 26 -10.5t8 -24.5q0 -38 -16 -58q-24 -30 -110 -68q-62 -62 -95 -127q-39 -75 -39 -151
q0 -71 66 -144.5t137 -73.5q43 0 92 33q39 27 63 58q9 11 11.5 13t10.5 2q12 0 12 -7z" />
    <glyph glyph-name="Oslash" unicode="&#xd8;" horiz-adv-x="1386" 
d="M1386 198q0 -5 -4 -10q-10 -12 -18 -22q-57 -70 -113 -115q-85 -68 -152 -68q-60 0 -98 39q-53 55 -53 180q-72 -89 -166 -149.5t-171 -60.5q-70 0 -102.5 47.5t-32.5 136.5q0 15 2 33.5t5 39.5q-100 -141 -187 -205q-69 -51 -124 -51q-47 0 -83 34q-39 37 -39 92
q0 48 27.5 109.5t96.5 157.5q-16 -2 -24 -2q-28 0 -52 13t-42 47q51 7 105 56q63 57 168 205q26 -23 34 -61q3 -15 3 -45q0 -50 -35 -103q-42 -63 -114 -96q-35 -42 -55 -92t-20 -94q0 -42 25 -67t68 -25q51 0 99 26q41 22 78 62q46 49 98 169q64 149 85 181q54 84 124 84
q33 0 33 -27q-64 -132 -111 -232q-53 -112 -53 -182q0 -61 34 -95q29 -29 72 -29q64 0 138.5 52t118.5 120l20 111q28 159 73 225q39 57 93 57q18 0 27 -4t9 -19q0 -90 -30 -155q-28 -51 -56 -101q-30 -64 -30 -153q0 -58 33.5 -95.5t90.5 -37.5q46 0 97 41q48 45 96 91
q12 0 12 -13z" />
    <glyph glyph-name="Oslash" unicode="&#x428;" horiz-adv-x="1386" 
d="M1386 198q0 -5 -4 -10q-10 -12 -18 -22q-57 -70 -113 -115q-85 -68 -152 -68q-60 0 -98 39q-53 55 -53 180q-72 -89 -166 -149.5t-171 -60.5q-70 0 -102.5 47.5t-32.5 136.5q0 15 2 33.5t5 39.5q-100 -141 -187 -205q-69 -51 -124 -51q-47 0 -83 34q-39 37 -39 92
q0 48 27.5 109.5t96.5 157.5q-16 -2 -24 -2q-28 0 -52 13t-42 47q51 7 105 56q63 57 168 205q26 -23 34 -61q3 -15 3 -45q0 -50 -35 -103q-42 -63 -114 -96q-35 -42 -55 -92t-20 -94q0 -42 25 -67t68 -25q51 0 99 26q41 22 78 62q46 49 98 169q64 149 85 181q54 84 124 84
q33 0 33 -27q-64 -132 -111 -232q-53 -112 -53 -182q0 -61 34 -95q29 -29 72 -29q64 0 138.5 52t118.5 120l20 111q28 159 73 225q39 57 93 57q18 0 27 -4t9 -19q0 -90 -30 -155q-28 -51 -56 -101q-30 -64 -30 -153q0 -58 33.5 -95.5t90.5 -37.5q46 0 97 41q48 45 96 91
q12 0 12 -13z" />
    <glyph glyph-name="Ugrave" unicode="&#xd9;" horiz-adv-x="1288" 
d="M1288 87q0 -120 -132 -278q-137 -164 -256 -164q-41 0 -59 34q-12 23 -12 54q0 65 58 118q50 46 90 46q23 0 23 -12q0 -35 -35.5 -61t-35.5 -78q0 -19 5 -29.5t22 -10.5q55 0 123.5 98t68.5 187q-13 -4 -24.5 -6t-24.5 -2q-59 0 -97 39q-54 55 -54 180
q-72 -89 -166 -149.5t-171 -60.5q-70 0 -102.5 47.5t-32.5 136.5q0 15 2 33.5t5 39.5q-101 -140 -186 -204q-69 -52 -125 -52q-47 0 -83 33q-39 36 -39 93q0 38 18 85q30 77 106 182q-16 -2 -24 -2q-28 0 -52 13t-42 47q48 7 86 38q29 24 78 87q80 102 109 136
q26 -23 34 -61q3 -15 3 -45q0 -51 -35 -104q-41 -62 -113 -95q-35 -41 -55.5 -91.5t-20.5 -94.5q0 -42 25 -67t68 -25q51 0 99 26q41 22 78 62q46 49 98 169q64 149 85 181q54 84 124 84q33 0 33 -27q-64 -132 -111 -232q-53 -112 -53 -182q0 -61 34 -95q29 -29 72 -29
q64 0 138.5 52t118.5 120q15 107 29 167q23 101 57 157q42 69 100 69q18 0 27 -4t9 -19q0 -17 -18 -67q-25 -66 -46 -122q-24 -66 -36.5 -130t-12.5 -112q0 -53 35.5 -82t86.5 -29q29 0 53 15q1 1 33 27q6 5 9 6.5t4 2.5q3 0 5 -6.5t2 -14.5v-22z" />
    <glyph glyph-name="Ugrave" unicode="&#x429;" horiz-adv-x="1288" 
d="M1288 87q0 -120 -132 -278q-137 -164 -256 -164q-41 0 -59 34q-12 23 -12 54q0 65 58 118q50 46 90 46q23 0 23 -12q0 -35 -35.5 -61t-35.5 -78q0 -19 5 -29.5t22 -10.5q55 0 123.5 98t68.5 187q-13 -4 -24.5 -6t-24.5 -2q-59 0 -97 39q-54 55 -54 180
q-72 -89 -166 -149.5t-171 -60.5q-70 0 -102.5 47.5t-32.5 136.5q0 15 2 33.5t5 39.5q-101 -140 -186 -204q-69 -52 -125 -52q-47 0 -83 33q-39 36 -39 93q0 38 18 85q30 77 106 182q-16 -2 -24 -2q-28 0 -52 13t-42 47q48 7 86 38q29 24 78 87q80 102 109 136
q26 -23 34 -61q3 -15 3 -45q0 -51 -35 -104q-41 -62 -113 -95q-35 -41 -55.5 -91.5t-20.5 -94.5q0 -42 25 -67t68 -25q51 0 99 26q41 22 78 62q46 49 98 169q64 149 85 181q54 84 124 84q33 0 33 -27q-64 -132 -111 -232q-53 -112 -53 -182q0 -61 34 -95q29 -29 72 -29
q64 0 138.5 52t118.5 120q15 107 29 167q23 101 57 157q42 69 100 69q18 0 27 -4t9 -19q0 -17 -18 -67q-25 -66 -46 -122q-24 -66 -36.5 -130t-12.5 -112q0 -53 35.5 -82t86.5 -29q29 0 53 15q1 1 33 27q6 5 9 6.5t4 2.5q3 0 5 -6.5t2 -14.5v-22z" />
    <glyph glyph-name="Uacute" unicode="&#xda;" horiz-adv-x="708" 
d="M708 369q0 -19 -33.5 -42.5t-59.5 -29.5q0 -147 -140 -258q-129 -103 -271 -103q-77 0 -126 38q-53 41 -53 116q0 105 92 212q96 111 267 196h-39q-78 8 -128 66q-37 52 -73 104q-44 55 -107 55q-28 0 -38.5 -18.5t-10.5 -44.5q0 -19 4 -42.5t19 -55.5q9 -19 20 -34.5
t11 -20.5q0 -10 -12 -10q-25 0 -47.5 58.5t-22.5 117.5q0 80 53 117q37 26 80 26q45 0 99 -55q48 -52 96 -103q63 -56 127 -56q47 0 125 24q53 17 107 34q8 2 12 0q7 -4 7 -11t-16 -27q-21 -26 -87 -96q-170 -45 -271 -114q-80 -55 -113 -123q-23 -47 -23 -100q0 -39 20 -70
q38 -59 130 -59q90 0 165 57q79 60 106 157q-23 -20 -43 -30q-31 -16 -67 -16q-64 0 -86 14.5t-22 42.5q0 40 56 70q49 26 100 26q36 0 56.5 -8t36.5 -34q33 4 46 21t44 17q10 0 10 -8z" />
    <glyph glyph-name="Uacute" unicode="&#x42a;" horiz-adv-x="708" 
d="M708 369q0 -19 -33.5 -42.5t-59.5 -29.5q0 -147 -140 -258q-129 -103 -271 -103q-77 0 -126 38q-53 41 -53 116q0 105 92 212q96 111 267 196h-39q-78 8 -128 66q-37 52 -73 104q-44 55 -107 55q-28 0 -38.5 -18.5t-10.5 -44.5q0 -19 4 -42.5t19 -55.5q9 -19 20 -34.5
t11 -20.5q0 -10 -12 -10q-25 0 -47.5 58.5t-22.5 117.5q0 80 53 117q37 26 80 26q45 0 99 -55q48 -52 96 -103q63 -56 127 -56q47 0 125 24q53 17 107 34q8 2 12 0q7 -4 7 -11t-16 -27q-21 -26 -87 -96q-170 -45 -271 -114q-80 -55 -113 -123q-23 -47 -23 -100q0 -39 20 -70
q38 -59 130 -59q90 0 165 57q79 60 106 157q-23 -20 -43 -30q-31 -16 -67 -16q-64 0 -86 14.5t-22 42.5q0 40 56 70q49 26 100 26q36 0 56.5 -8t36.5 -34q33 4 46 21t44 17q10 0 10 -8z" />
    <glyph glyph-name="Ucircumflex" unicode="&#xdb;" horiz-adv-x="1008" 
d="M1008 106q0 -23 -111 -66q-104 -40 -135 -40q-27 0 -36.5 21t-9.5 51q1 21 1 26q0 13 2 24t5 23l41 263q-40 -35 -81.5 -61.5t-89.5 -47.5q-13 -150 -147 -261q-124 -103 -255 -103q-92 0 -144 55q-48 51 -48 127q0 87 52 155q38 50 125 111q132 93 152 109
q-18 -5 -33 -5q-43 0 -85.5 33.5t-42.5 73.5q0 11 2 14.5t14 3.5q13 0 30 -7q10 -4 22 -4q45 0 134 65q66 48 114 96q10 10 24.5 23.5t23.5 13.5q18 0 22 -22q1 -4 1 -11q0 -9 -1 -13q-11 -94 -71 -165.5t-219 -181.5q-61 -42 -94 -87q-45 -61 -45 -134q0 -52 43.5 -88.5
t116.5 -36.5q91 0 166 57q80 61 105 157q-24 -21 -42 -30q-31 -16 -67 -16q-58 0 -83.5 15t-25.5 42q0 38 49.5 68.5t107.5 30.5q37 0 57.5 -11t35.5 -37q38 15 91 50t94 72l11 77q4 26 40 42q25 11 59 15h17q15 -3 15.5 -12t0.5 -16l-3 -20l-5 -26l-54 -333
q-2 -15 -3.5 -26t-1.5 -18q0 -30 9 -41t26 -11q25 0 45 4t53 21q9 5 16 5q10 0 10 -13z" />
    <glyph glyph-name="Ucircumflex" unicode="&#x42b;" horiz-adv-x="1008" 
d="M1008 106q0 -23 -111 -66q-104 -40 -135 -40q-27 0 -36.5 21t-9.5 51q1 21 1 26q0 13 2 24t5 23l41 263q-40 -35 -81.5 -61.5t-89.5 -47.5q-13 -150 -147 -261q-124 -103 -255 -103q-92 0 -144 55q-48 51 -48 127q0 87 52 155q38 50 125 111q132 93 152 109
q-18 -5 -33 -5q-43 0 -85.5 33.5t-42.5 73.5q0 11 2 14.5t14 3.5q13 0 30 -7q10 -4 22 -4q45 0 134 65q66 48 114 96q10 10 24.5 23.5t23.5 13.5q18 0 22 -22q1 -4 1 -11q0 -9 -1 -13q-11 -94 -71 -165.5t-219 -181.5q-61 -42 -94 -87q-45 -61 -45 -134q0 -52 43.5 -88.5
t116.5 -36.5q91 0 166 57q80 61 105 157q-24 -21 -42 -30q-31 -16 -67 -16q-58 0 -83.5 15t-25.5 42q0 38 49.5 68.5t107.5 30.5q37 0 57.5 -11t35.5 -37q38 15 91 50t94 72l11 77q4 26 40 42q25 11 59 15h17q15 -3 15.5 -12t0.5 -16l-3 -20l-5 -26l-54 -333
q-2 -15 -3.5 -26t-1.5 -18q0 -30 9 -41t26 -11q25 0 45 4t53 21q9 5 16 5q10 0 10 -13z" />
    <glyph glyph-name="Udieresis" unicode="&#xdc;" horiz-adv-x="689" 
d="M689 369q0 -17 -32 -41.5t-61 -29.5q-17 -136 -141.5 -251.5t-258.5 -115.5q-84 0 -140 52t-56 136q0 85 44 145q33 45 118 106q144 102 168 122q-18 -5 -33 -5q-47 0 -87.5 33.5t-40.5 73.5q0 11 2 14.5t14 3.5q13 0 30 -7q10 -4 22 -4q45 0 134 65q66 48 114 96
q10 10 24.5 23.5t23.5 13.5q18 0 22 -22q1 -4 1 -11q0 -9 -1 -13q-11 -94 -71 -165.5t-219 -181.5q-61 -42 -94 -87q-45 -61 -45 -134q0 -52 43.5 -88.5t116.5 -36.5q91 0 166 57q80 61 105 157q-24 -21 -42 -30q-31 -16 -67 -16q-58 0 -83.5 15t-25.5 42q0 35 45 66t99 31
q44 0 66 -8.5t39 -34.5q30 3 47.5 20.5t42.5 17.5q5 0 10 -5q0 -2 1 -3z" />
    <glyph glyph-name="Udieresis" unicode="&#x42c;" horiz-adv-x="689" 
d="M689 369q0 -17 -32 -41.5t-61 -29.5q-17 -136 -141.5 -251.5t-258.5 -115.5q-84 0 -140 52t-56 136q0 85 44 145q33 45 118 106q144 102 168 122q-18 -5 -33 -5q-47 0 -87.5 33.5t-40.5 73.5q0 11 2 14.5t14 3.5q13 0 30 -7q10 -4 22 -4q45 0 134 65q66 48 114 96
q10 10 24.5 23.5t23.5 13.5q18 0 22 -22q1 -4 1 -11q0 -9 -1 -13q-11 -94 -71 -165.5t-219 -181.5q-61 -42 -94 -87q-45 -61 -45 -134q0 -52 43.5 -88.5t116.5 -36.5q91 0 166 57q80 61 105 157q-24 -21 -42 -30q-31 -16 -67 -16q-58 0 -83.5 15t-25.5 42q0 35 45 66t99 31
q44 0 66 -8.5t39 -34.5q30 3 47.5 20.5t42.5 17.5q5 0 10 -5q0 -2 1 -3z" />
    <glyph glyph-name="Yacute" unicode="&#xdd;" horiz-adv-x="944" 
d="M944 285q-6 -22 -20 -22q-25 0 -44 15t-70 15q-77 -137 -227 -222q-138 -78 -270 -78q-63 0 -111 24q-32 16 -59 44q-19 -13 -39 -19.5t-39 -6.5q-28 0 -46.5 10t-18.5 21q16 12 43 35q32 28 63 81q9 16 21 40q8 16 22 49q5 11 8 11t16 -10l62 -48q14 -11 14 -30
q0 -23 -19 -52.5t-42 -48.5q30 -69 103 -69q109 0 224 70q132 80 199 215l-45 2q-70 0 -132 -19t-126 -39q-15 0 -51.5 30.5t-36.5 45.5q0 28 89.5 48t171.5 20t152 -20q3 10 4 22t1 27q0 83 -68 130q-60 41 -145 41q-130 0 -173.5 -44.5t-108.5 -44.5q-6 0 -6 10
q0 46 112 110q123 71 245 71q113 0 190 -60.5t77 -156.5q0 -73 -30 -136q27 -8 60 -22q46 -19 50 -30v-9z" />
    <glyph glyph-name="Yacute" unicode="&#x42d;" horiz-adv-x="944" 
d="M944 285q-6 -22 -20 -22q-25 0 -44 15t-70 15q-77 -137 -227 -222q-138 -78 -270 -78q-63 0 -111 24q-32 16 -59 44q-19 -13 -39 -19.5t-39 -6.5q-28 0 -46.5 10t-18.5 21q16 12 43 35q32 28 63 81q9 16 21 40q8 16 22 49q5 11 8 11t16 -10l62 -48q14 -11 14 -30
q0 -23 -19 -52.5t-42 -48.5q30 -69 103 -69q109 0 224 70q132 80 199 215l-45 2q-70 0 -132 -19t-126 -39q-15 0 -51.5 30.5t-36.5 45.5q0 28 89.5 48t171.5 20t152 -20q3 10 4 22t1 27q0 83 -68 130q-60 41 -145 41q-130 0 -173.5 -44.5t-108.5 -44.5q-6 0 -6 10
q0 46 112 110q123 71 245 71q113 0 190 -60.5t77 -156.5q0 -73 -30 -136q27 -8 60 -22q46 -19 50 -30v-9z" />
    <glyph glyph-name="Thorn" unicode="&#xde;" horiz-adv-x="1397" 
d="M1397 456q0 -96 -64 -203q-68 -113 -178 -183q-126 -80 -272 -80q-161 0 -257.5 85.5t-96.5 229.5q0 33 7 65.5t20 66.5q-113 -94 -237 -218q-135 -135 -161 -158q-69 -61 -109 -61q-21 0 -35 16t-14 31q0 21 26 67q19 33 79 121l128 186q-40 0 -73 35t-33 66q0 13 12 15
h8q6 -1 18.5 -5.5t23.5 -4.5q91 0 131 94t133 94q14 0 14 -50q0 -82 -37 -127q-61 -57 -121 -114q-111 -106 -217 -259q71 44 142 92q52 36 124 88q135 98 229 157q55 97 152 167t183 70q46 0 76.5 -18t43.5 -61q47 9 94 9q131 0 200 -65q61 -58 61 -148zM1008 652
q-3 26 -22.5 40.5t-50.5 14.5q-105 0 -189 -104t-84 -240q0 -19 1 -38.5t4 -39.5q25 138 119 237q91 95 222 130zM1338 373q0 81 -59 129q-65 53 -182 53q-128 0 -229 -56t-154 -149q-17 -30 -27 -62t-20 -30q25 -78 93 -123q74 -49 188 -49q156 0 276 93q114 89 114 194z
" />
    <glyph glyph-name="Thorn" unicode="&#x42e;" horiz-adv-x="1397" 
d="M1397 456q0 -96 -64 -203q-68 -113 -178 -183q-126 -80 -272 -80q-161 0 -257.5 85.5t-96.5 229.5q0 33 7 65.5t20 66.5q-113 -94 -237 -218q-135 -135 -161 -158q-69 -61 -109 -61q-21 0 -35 16t-14 31q0 21 26 67q19 33 79 121l128 186q-40 0 -73 35t-33 66q0 13 12 15
h8q6 -1 18.5 -5.5t23.5 -4.5q91 0 131 94t133 94q14 0 14 -50q0 -82 -37 -127q-61 -57 -121 -114q-111 -106 -217 -259q71 44 142 92q52 36 124 88q135 98 229 157q55 97 152 167t183 70q46 0 76.5 -18t43.5 -61q47 9 94 9q131 0 200 -65q61 -58 61 -148zM1008 652
q-3 26 -22.5 40.5t-50.5 14.5q-105 0 -189 -104t-84 -240q0 -19 1 -38.5t4 -39.5q25 138 119 237q91 95 222 130zM1338 373q0 81 -59 129q-65 53 -182 53q-128 0 -229 -56t-154 -149q-17 -30 -27 -62t-20 -30q25 -78 93 -123q74 -49 188 -49q156 0 276 93q114 89 114 194z
" />
    <glyph glyph-name="germandbls" unicode="&#xdf;" horiz-adv-x="994" 
d="M994 205q-7 -22 -87 -93q-87 -77 -125 -77q-37 0 -56 52q-12 32 -23 108l-31 209q-90 -162 -224 -277q-153 -131 -293 -131q-77 0 -119 48q-36 42 -36 107q0 88 70 148q57 49 109 49q18 0 18 -9q0 -21 -57 -40t-57 -99q0 -28 21 -50q31 -33 93 -33q124 0 249 85
q137 93 212 248q-59 -44 -130 -79q-91 -45 -147 -45t-84 40q-23 32 -23 76q0 88 90 170q103 94 248 94q32 0 74 -9t45 -21v-4q-2 -8 -9 -8l-24 5q-8 2 -21 3t-22 1q-100 0 -172 -60q-67 -56 -67 -117q0 -30 22.5 -45t58.5 -15q40 0 84.5 11.5t81.5 34.5l-3 38l75 58
q12 9 21 9q11 0 16 -15q0 -1 5 -22l42 -324q4 -31 16 -51q17 -29 40 -29q20 0 45 19q61 47 67 48h4l3 -3v-5z" />
    <glyph glyph-name="germandbls" unicode="&#x42f;" horiz-adv-x="994" 
d="M994 205q-7 -22 -87 -93q-87 -77 -125 -77q-37 0 -56 52q-12 32 -23 108l-31 209q-90 -162 -224 -277q-153 -131 -293 -131q-77 0 -119 48q-36 42 -36 107q0 88 70 148q57 49 109 49q18 0 18 -9q0 -21 -57 -40t-57 -99q0 -28 21 -50q31 -33 93 -33q124 0 249 85
q137 93 212 248q-59 -44 -130 -79q-91 -45 -147 -45t-84 40q-23 32 -23 76q0 88 90 170q103 94 248 94q32 0 74 -9t45 -21v-4q-2 -8 -9 -8l-24 5q-8 2 -21 3t-22 1q-100 0 -172 -60q-67 -56 -67 -117q0 -30 22.5 -45t58.5 -15q40 0 84.5 11.5t81.5 34.5l-3 38l75 58
q12 9 21 9q11 0 16 -15q0 -1 5 -22l42 -324q4 -31 16 -51q17 -29 40 -29q20 0 45 19q61 47 67 48h4l3 -3v-5z" />
    <glyph glyph-name="agrave" unicode="&#xe0;" horiz-adv-x="555" 
d="M555 123q0 -6 -18 -18l-161 -108q-15 -11 -29 -16t-33 -5q-26 0 -37 17q-7 11 -7 25q0 15 9 33t20 36q24 38 24 56q0 8 -18 18q-63 -78 -107 -117q-75 -68 -133 -68q-33 0 -49 21t-16 56q0 71 71 136q78 72 180 72l38 -1q7 16 21 30q18 18 36 18q33 0 33 -38
q0 -23 -17 -50q20 -7 33 -19q20 -19 20 -49l-1 -23q-2 -9 -4 -21.5t-2 -15.5q0 -17 9 -17q10 0 16 3l96 45q5 2 10.5 4.5t8.5 2.5q4 0 7 -7zM290 170q0 5 -5 11q-8 10 -10 13q-5 9 -5 22q0 11 6 23h-8q-54 0 -92.5 -31.5t-38.5 -71.5q0 -23 14.5 -33t31.5 -10q21 0 64 28
t43 49z" />
    <glyph glyph-name="agrave" unicode="&#x430;" horiz-adv-x="555" 
d="M555 123q0 -6 -18 -18l-161 -108q-15 -11 -29 -16t-33 -5q-26 0 -37 17q-7 11 -7 25q0 15 9 33t20 36q24 38 24 56q0 8 -18 18q-63 -78 -107 -117q-75 -68 -133 -68q-33 0 -49 21t-16 56q0 71 71 136q78 72 180 72l38 -1q7 16 21 30q18 18 36 18q33 0 33 -38
q0 -23 -17 -50q20 -7 33 -19q20 -19 20 -49l-1 -23q-2 -9 -4 -21.5t-2 -15.5q0 -17 9 -17q10 0 16 3l96 45q5 2 10.5 4.5t8.5 2.5q4 0 7 -7zM290 170q0 5 -5 11q-8 10 -10 13q-5 9 -5 22q0 11 6 23h-8q-54 0 -92.5 -31.5t-38.5 -71.5q0 -23 14.5 -33t31.5 -10q21 0 64 28
t43 49z" />
    <glyph glyph-name="aacute" unicode="&#xe1;" horiz-adv-x="348" 
d="M368 494q9 -8 24.5 -29t15.5 -27q0 -11 -8 -19q-19 -19 -19 -53l1 -16q0 -10 -8 -10q-19 0 -19 44q0 12 2 13t2 12l-1 4h-8q-39 -11 -61 -20q-35 -15 -68 -43q37 -41 53 -78.5t16 -84.5q0 -86 -57 -153q-53 -63 -113 -63q-47 0 -83.5 37.5t-36.5 89.5q0 73 68 132
q60 52 107 52q12 0 12 -9q0 -7 -12 -12q-38 -16 -60 -45t-22 -63q0 -28 16 -45t38 -17q42 0 76.5 40.5t34.5 92.5q0 42 -22 65q-15 16 -54 34q-19 9 -29 18q-16 14 -16 33q0 29 88.5 79t126.5 50q5 0 16 -9z" />
    <glyph glyph-name="aacute" unicode="&#x431;" horiz-adv-x="348" 
d="M368 494q9 -8 24.5 -29t15.5 -27q0 -11 -8 -19q-19 -19 -19 -53l1 -16q0 -10 -8 -10q-19 0 -19 44q0 12 2 13t2 12l-1 4h-8q-39 -11 -61 -20q-35 -15 -68 -43q37 -41 53 -78.5t16 -84.5q0 -86 -57 -153q-53 -63 -113 -63q-47 0 -83.5 37.5t-36.5 89.5q0 73 68 132
q60 52 107 52q12 0 12 -9q0 -7 -12 -12q-38 -16 -60 -45t-22 -63q0 -28 16 -45t38 -17q42 0 76.5 40.5t34.5 92.5q0 42 -22 65q-15 16 -54 34q-19 9 -29 18q-16 14 -16 33q0 29 88.5 79t126.5 50q5 0 16 -9z" />
    <glyph glyph-name="acircumflex" unicode="&#xe2;" horiz-adv-x="399" 
d="M399 160q0 -6 -31.5 -15t-64.5 -12q0 -65 -43.5 -117.5t-107.5 -52.5q-67 0 -109.5 36t-42.5 83q0 19 6.5 38t17.5 41l205 378q12 22 22 30t18 8q11 0 19 -14.5t8 -49.5q0 -72 -25 -121q-18 -35 -65 -83.5t-93 -95.5q-37 -41 -37 -64q0 -24 58.5 -60.5t95.5 -36.5
q24 0 38.5 22t14.5 48q0 8 -1 11q-41 0 -68 8q-36 11 -36 34q0 26 30 67q18 25 31 25q18 0 40 -24q59 -65 96 -78q9 -3 15 -3q9 0 9 -2z" />
    <glyph glyph-name="acircumflex" unicode="&#x432;" horiz-adv-x="399" 
d="M399 160q0 -6 -31.5 -15t-64.5 -12q0 -65 -43.5 -117.5t-107.5 -52.5q-67 0 -109.5 36t-42.5 83q0 19 6.5 38t17.5 41l205 378q12 22 22 30t18 8q11 0 19 -14.5t8 -49.5q0 -72 -25 -121q-18 -35 -65 -83.5t-93 -95.5q-37 -41 -37 -64q0 -24 58.5 -60.5t95.5 -36.5
q24 0 38.5 22t14.5 48q0 8 -1 11q-41 0 -68 8q-36 11 -36 34q0 26 30 67q18 25 31 25q18 0 40 -24q59 -65 96 -78q9 -3 15 -3q9 0 9 -2z" />
    <glyph glyph-name="atilde" unicode="&#xe3;" horiz-adv-x="359" 
d="M359 118q0 -8 -12.5 -21.5t-46.5 -41.5t-73 -52q-51 -31 -77 -31q-20 0 -35 18.5t-15 53.5q0 8 2 17.5t8 29.5t17 43q8 16 9 24v4q-4 3 -5 3t-2 1q-30 0 -62 -15q-31 -17 -62 -33l-5 7q0 10 11 17l148 98q19 12 36.5 21t32.5 9q14 0 20.5 -10t6.5 -20t-4 -19l-37 -94
q-6 -14 -6 -34q0 -18 11 -24.5t22 -6.5q19 0 50 20q25 16 46 35q7 7 15 7q7 0 7 -6z" />
    <glyph glyph-name="atilde" unicode="&#x433;" horiz-adv-x="359" 
d="M359 118q0 -8 -12.5 -21.5t-46.5 -41.5t-73 -52q-51 -31 -77 -31q-20 0 -35 18.5t-15 53.5q0 8 2 17.5t8 29.5t17 43q8 16 9 24v4q-4 3 -5 3t-2 1q-30 0 -62 -15q-31 -17 -62 -33l-5 7q0 10 11 17l148 98q19 12 36.5 21t32.5 9q14 0 20.5 -10t6.5 -20t-4 -19l-37 -94
q-6 -14 -6 -34q0 -18 11 -24.5t22 -6.5q19 0 50 20q25 16 46 35q7 7 15 7q7 0 7 -6z" />
    <glyph glyph-name="adieresis" unicode="&#xe4;" horiz-adv-x="454" 
d="M454 118q0 -5 -29 -30q-72 -61 -165 -144q-32 -53 -66 -100q-49 -67 -91 -107q-53 -50 -88 -50q-13 0 -25.5 13t-12.5 34q0 56 101 144q89 77 182 124q5 16 10.5 41.5t5.5 35.5q0 20 -8 29t-16 9q-6 0 -11.5 -4t-12.5 -12q-60 -63 -101 -88q-37 -22 -71 -22q-25 0 -39 17
t-14 43q0 69 72.5 137.5t158.5 68.5q23 0 51.5 -8t28.5 -19q-1 -2 -2 -4.5t-6 -2.5q-11 0 -17 4t-22 4q-49 0 -88 -31t-39 -65q0 -18 9 -26t19 -8q23 0 79 44q44 35 69 62q20 27 30 38q17 20 34 20q8 0 14.5 -7.5t6.5 -21.5q0 -17 -26 -75q-19 -43 -38 -78l-34 -66
q59 41 94 71q45 38 48 38q9 0 9 -8z" />
    <glyph glyph-name="adieresis" unicode="&#x434;" horiz-adv-x="454" 
d="M454 118q0 -5 -29 -30q-72 -61 -165 -144q-32 -53 -66 -100q-49 -67 -91 -107q-53 -50 -88 -50q-13 0 -25.5 13t-12.5 34q0 56 101 144q89 77 182 124q5 16 10.5 41.5t5.5 35.5q0 20 -8 29t-16 9q-6 0 -11.5 -4t-12.5 -12q-60 -63 -101 -88q-37 -22 -71 -22q-25 0 -39 17
t-14 43q0 69 72.5 137.5t158.5 68.5q23 0 51.5 -8t28.5 -19q-1 -2 -2 -4.5t-6 -2.5q-11 0 -17 4t-22 4q-49 0 -88 -31t-39 -65q0 -18 9 -26t19 -8q23 0 79 44q44 35 69 62q20 27 30 38q17 20 34 20q8 0 14.5 -7.5t6.5 -21.5q0 -17 -26 -75q-19 -43 -38 -78l-34 -66
q59 41 94 71q45 38 48 38q9 0 9 -8z" />
    <glyph glyph-name="aring" unicode="&#xe5;" horiz-adv-x="357" 
d="M357 131q0 -5 -10 -15q-56 -60 -117.5 -100t-101.5 -40q-48 0 -86 31q-42 35 -42 89q0 82 91 157q85 70 165 70q26 0 38 -16q9 -12 9 -31q0 -43 -66 -87q-74 -50 -167 -50q0 -31 51 -47q42 -13 97 -13q28 0 49.5 9t51.5 34q24 19 29 19q9 0 9 -10zM195 229q0 11 -5 18
q-8 10 -24 10q-25 0 -51.5 -27.5t-39.5 -59.5q62 0 91 17.5t29 41.5z" />
    <glyph glyph-name="aring" unicode="&#x435;" horiz-adv-x="357" 
d="M357 131q0 -5 -10 -15q-56 -60 -117.5 -100t-101.5 -40q-48 0 -86 31q-42 35 -42 89q0 82 91 157q85 70 165 70q26 0 38 -16q9 -12 9 -31q0 -43 -66 -87q-74 -50 -167 -50q0 -31 51 -47q42 -13 97 -13q28 0 49.5 9t51.5 34q24 19 29 19q9 0 9 -10zM195 229q0 11 -5 18
q-8 10 -24 10q-25 0 -51.5 -27.5t-39.5 -59.5q62 0 91 17.5t29 41.5z" />
    <glyph glyph-name="ae" unicode="&#xe6;" horiz-adv-x="802" 
d="M802 112q0 -4 -11 -13q-23 -17 -45 -34q-51 -40 -102 -79q-40 -28 -70 -28q-45 0 -71 45q-19 34 -32 103l-107 -111q-16 -17 -27 -25q-17 -12 -33 -12q-27 0 -27 28q0 9 5 21l55 125q3 7 7 18t4 20q0 12 -11 12q-10 0 -43 -26q-28 -22 -41 -36q-18 -70 -51 -106
q-38 -42 -102 -42q-38 0 -65 51q-6 11 -20.5 49.5t-14.5 48.5q0 11 8 11q5 0 11 -8q10 -13 15 -17q27 -19 66 -19q30 0 66.5 13t64.5 32q7 19 9.5 34t2.5 37q0 24 -5 39.5t-20 30.5q-13 -36 -43 -63t-58 -27q-16 0 -24.5 9.5t-8.5 24.5q0 31 41 70t78 39q32 0 46 -31t14 -83
q0 -34 -7 -63q38 33 94 75q68 51 83 51q20 0 20 -33q0 -27 -24 -92q-14 -38 -36 -85l143 141q58 57 102 81q32 17 56 17q22 0 30 -10.5t8 -22.5q0 -33 -53 -56.5t-118 -23.5q0 -64 20 -109.5t45 -45.5q19 0 78 33q41 23 68 42q13 9 24 9q4 0 6 -9z" />
    <glyph glyph-name="ae" unicode="&#x436;" horiz-adv-x="802" 
d="M802 112q0 -4 -11 -13q-23 -17 -45 -34q-51 -40 -102 -79q-40 -28 -70 -28q-45 0 -71 45q-19 34 -32 103l-107 -111q-16 -17 -27 -25q-17 -12 -33 -12q-27 0 -27 28q0 9 5 21l55 125q3 7 7 18t4 20q0 12 -11 12q-10 0 -43 -26q-28 -22 -41 -36q-18 -70 -51 -106
q-38 -42 -102 -42q-38 0 -65 51q-6 11 -20.5 49.5t-14.5 48.5q0 11 8 11q5 0 11 -8q10 -13 15 -17q27 -19 66 -19q30 0 66.5 13t64.5 32q7 19 9.5 34t2.5 37q0 24 -5 39.5t-20 30.5q-13 -36 -43 -63t-58 -27q-16 0 -24.5 9.5t-8.5 24.5q0 31 41 70t78 39q32 0 46 -31t14 -83
q0 -34 -7 -63q38 33 94 75q68 51 83 51q20 0 20 -33q0 -27 -24 -92q-14 -38 -36 -85l143 141q58 57 102 81q32 17 56 17q22 0 30 -10.5t8 -22.5q0 -33 -53 -56.5t-118 -23.5q0 -64 20 -109.5t45 -45.5q19 0 78 33q41 23 68 42q13 9 24 9q4 0 6 -9z" />
    <glyph glyph-name="ccedilla" unicode="&#xe7;" horiz-adv-x="322" 
d="M292 222q0 -18 -16 -35q-7 -7 -29 -24q-14 -10 -27 -20q-21 -16 -21 -27q0 -12 8 -26q26 -49 29 -56q14 -30 14 -49q0 -46 -62 -93q-71 -54 -161 -54q-37 0 -54 5q-26 8 -26 29q0 17 18.5 33.5t41.5 16.5q11 0 28 -15t21 -18q11 -7 19 -11t17 -4q23 0 41 16t18 36
q0 22 -10 45t-32 66q-14 27 -14 41q0 13 19 25l69 41q31 19 31 30q0 18 -12 26.5t-33 8.5q-26 0 -62 -21q-15 -9 -34.5 -22.5t-28.5 -19.5t-12 -6q-8 0 -8 13q3 5 5.5 8t18.5 15q73 55 108 75q44 25 80 25q31 0 45 -17q11 -13 11 -37z" />
    <glyph glyph-name="ccedilla" unicode="&#x437;" horiz-adv-x="322" 
d="M292 222q0 -18 -16 -35q-7 -7 -29 -24q-14 -10 -27 -20q-21 -16 -21 -27q0 -12 8 -26q26 -49 29 -56q14 -30 14 -49q0 -46 -62 -93q-71 -54 -161 -54q-37 0 -54 5q-26 8 -26 29q0 17 18.5 33.5t41.5 16.5q11 0 28 -15t21 -18q11 -7 19 -11t17 -4q23 0 41 16t18 36
q0 22 -10 45t-32 66q-14 27 -14 41q0 13 19 25l69 41q31 19 31 30q0 18 -12 26.5t-33 8.5q-26 0 -62 -21q-15 -9 -34.5 -22.5t-28.5 -19.5t-12 -6q-8 0 -8 13q3 5 5.5 8t18.5 15q73 55 108 75q44 25 80 25q31 0 45 -17q11 -13 11 -37z" />
    <glyph glyph-name="egrave" unicode="&#xe8;" horiz-adv-x="541" 
d="M541 129q0 -33 -92.5 -93t-122.5 -60q-29 0 -51 25q-25 28 -25 77q-53 -61 -100 -87q-35 -20 -66 -20q-34 0 -59 27t-25 66q0 51 58 140.5t100 89.5q14 0 28 -12t14 -27q0 -20 -23 -43q-11 -11 -26 -21q-20 -15 -40 -29q-18 -15 -18 -32q0 -16 24 -31t64 -15q29 0 52 14
q36 22 83 84q21 29 43 59q26 32 50 32q14 0 28 -10t14 -23t-9 -26.5t-22 -26.5q-31 -30 -42 -40q-18 -17 -18 -26q0 -12 18.5 -24.5t42.5 -12.5q28 0 55 16l54 38q11 0 11 -9z" />
    <glyph glyph-name="egrave" unicode="&#x438;" horiz-adv-x="541" 
d="M541 129q0 -33 -92.5 -93t-122.5 -60q-29 0 -51 25q-25 28 -25 77q-53 -61 -100 -87q-35 -20 -66 -20q-34 0 -59 27t-25 66q0 51 58 140.5t100 89.5q14 0 28 -12t14 -27q0 -20 -23 -43q-11 -11 -26 -21q-20 -15 -40 -29q-18 -15 -18 -32q0 -16 24 -31t64 -15q29 0 52 14
q36 22 83 84q21 29 43 59q26 32 50 32q14 0 28 -10t14 -23t-9 -26.5t-22 -26.5q-31 -30 -42 -40q-18 -17 -18 -26q0 -12 18.5 -24.5t42.5 -12.5q28 0 55 16l54 38q11 0 11 -9z" />
    <glyph glyph-name="eacute" unicode="&#xe9;" horiz-adv-x="541" 
d="M447 409q-26 -41 -63.5 -68t-74.5 -27q-28 0 -46.5 16.5t-18.5 45.5q0 20 18.5 65t33.5 45q5 0 7.5 -3.5t2.5 -8.5q0 -4 -4 -10.5t-7 -11.5t-3 -9q0 -18 25 -34.5t63 -16.5q15 0 32 5t35 12zM541 129q0 -33 -92.5 -93t-122.5 -60q-29 0 -51 25q-25 28 -25 77
q-53 -61 -100 -87q-35 -20 -66 -20q-34 0 -59 27t-25 66q0 51 58 140.5t100 89.5q14 0 28 -12t14 -27q0 -20 -23 -43q-11 -11 -26 -21q-20 -15 -40 -29q-18 -15 -18 -32q0 -16 24 -31t64 -15q29 0 52 14q36 22 83 84q21 29 43 59q26 32 50 32q14 0 28 -10t14 -23t-9 -26.5
t-22 -26.5q-31 -30 -42 -40q-18 -17 -18 -26q0 -12 18.5 -24.5t42.5 -12.5q28 0 55 16l54 38q11 0 11 -9z" />
    <glyph glyph-name="eacute" unicode="&#x439;" horiz-adv-x="541" 
d="M447 409q-26 -41 -63.5 -68t-74.5 -27q-28 0 -46.5 16.5t-18.5 45.5q0 20 18.5 65t33.5 45q5 0 7.5 -3.5t2.5 -8.5q0 -4 -4 -10.5t-7 -11.5t-3 -9q0 -18 25 -34.5t63 -16.5q15 0 32 5t35 12zM541 129q0 -33 -92.5 -93t-122.5 -60q-29 0 -51 25q-25 28 -25 77
q-53 -61 -100 -87q-35 -20 -66 -20q-34 0 -59 27t-25 66q0 51 58 140.5t100 89.5q14 0 28 -12t14 -27q0 -20 -23 -43q-11 -11 -26 -21q-20 -15 -40 -29q-18 -15 -18 -32q0 -16 24 -31t64 -15q29 0 52 14q36 22 83 84q21 29 43 59q26 32 50 32q14 0 28 -10t14 -23t-9 -26.5
t-22 -26.5q-31 -30 -42 -40q-18 -17 -18 -26q0 -12 18.5 -24.5t42.5 -12.5q28 0 55 16l54 38q11 0 11 -9z" />
    <glyph glyph-name="ecircumflex" unicode="&#xea;" horiz-adv-x="514" 
d="M514 106q0 -7 -79 -65q-28 -21 -63 -45q-20 -14 -30 -19q-18 -9 -34 -9t-28 5q-20 8 -33 29l-82 132q-33 -33 -72 -92q-28 -42 -40 -42q-17 0 -33 14q-20 17 -20 44q0 42 47 149q52 118 86 118q15 0 33.5 -15t18.5 -31q0 -9 -7 -19q-2 -3 -34 -38q-15 -17 -30 -35
t-15 -33q0 -14 4 -24t11 -18q89 90 156 142q52 41 89 57q25 11 41 11q45 0 45 -43q0 -34 -32.5 -53t-83.5 -19h-43q-9 0 -20 -0.5t-11 -6.5l7 -16l65 -98q10 -14 16 -20q11 -10 24 -10q21 0 71 28.5t67 28.5q5 0 8 -5q0 -1 1 -2z" />
    <glyph glyph-name="ecircumflex" unicode="&#x43a;" horiz-adv-x="514" 
d="M514 106q0 -7 -79 -65q-28 -21 -63 -45q-20 -14 -30 -19q-18 -9 -34 -9t-28 5q-20 8 -33 29l-82 132q-33 -33 -72 -92q-28 -42 -40 -42q-17 0 -33 14q-20 17 -20 44q0 42 47 149q52 118 86 118q15 0 33.5 -15t18.5 -31q0 -9 -7 -19q-2 -3 -34 -38q-15 -17 -30 -35
t-15 -33q0 -14 4 -24t11 -18q89 90 156 142q52 41 89 57q25 11 41 11q45 0 45 -43q0 -34 -32.5 -53t-83.5 -19h-43q-9 0 -20 -0.5t-11 -6.5l7 -16l65 -98q10 -14 16 -20q11 -10 24 -10q21 0 71 28.5t67 28.5q5 0 8 -5q0 -1 1 -2z" />
    <glyph glyph-name="edieresis" unicode="&#xeb;" horiz-adv-x="505" 
d="M505 129q0 -5 -9.5 -13.5t-26.5 -22.5q-50 -40 -99 -80q-40 -30 -59 -30q-18 0 -28 8q-15 12 -15 39q0 26 7 59q4 17 7 31.5t5 25.5t2 22q0 13 -5 20t-14 7q-20 0 -126 -118q-36 -40 -54 -57q-32 -30 -51 -30q-15 0 -27 18t-12 48q0 44 23.5 76.5t52.5 32.5q16 0 24 -8
t8 -20q0 -20 -11 -31t-11 -18q0 -8 8 -8q12 0 41 26q34 33 60 58q76 73 118 103q35 25 57 25q18 0 29.5 -10t11.5 -32q0 -9 -1.5 -14.5t-4.5 -17t-18 -74.5q-6 -24 -6 -27q-2 -12 0 -17q4 -13 18 -13q18 0 57 28q33 24 40 24q5 0 9 -10z" />
    <glyph glyph-name="edieresis" unicode="&#x43b;" horiz-adv-x="505" 
d="M505 129q0 -5 -9.5 -13.5t-26.5 -22.5q-50 -40 -99 -80q-40 -30 -59 -30q-18 0 -28 8q-15 12 -15 39q0 26 7 59q4 17 7 31.5t5 25.5t2 22q0 13 -5 20t-14 7q-20 0 -126 -118q-36 -40 -54 -57q-32 -30 -51 -30q-15 0 -27 18t-12 48q0 44 23.5 76.5t52.5 32.5q16 0 24 -8
t8 -20q0 -20 -11 -31t-11 -18q0 -8 8 -8q12 0 41 26q34 33 60 58q76 73 118 103q35 25 57 25q18 0 29.5 -10t11.5 -32q0 -9 -1.5 -14.5t-4.5 -17t-18 -74.5q-6 -24 -6 -27q-2 -12 0 -17q4 -13 18 -13q18 0 57 28q33 24 40 24q5 0 9 -10z" />
    <glyph glyph-name="igrave" unicode="&#xec;" horiz-adv-x="785" 
d="M785 133q0 -5 -19 -21q-5 -4 -53 -42l-76 -60q-30 -22 -53 -22q-19 0 -29 13q-5 7 -9 24l-21 102q-5 22 -8 29q-7 16 -19 16t-30 -13q-6 -5 -29 -26l-130 -119q-9 -9 -19.5 -17.5t-25.5 -8.5q-29 0 -29 32q0 7 3 14.5l5 12.5l37 98q8 20 8 28q0 23 -14 23q-18 0 -52 -33
q-16 -15 -52 -57q-56 -63 -75 -81q-36 -34 -57 -34q-15 0 -26.5 18t-11.5 47q0 44 23.5 76.5t52.5 32.5q16 0 24 -8t8 -20q0 -20 -11 -31t-11 -18l6 -7q11 0 30 15t73 68q74 73 120 104q35 24 55 24q15 0 28 -9.5t13 -32.5q0 -11 -5 -26l-24 -67q-7 -19 -7 -22q0 -10 7 -17
q6 0 28 19q71 64 98 88q45 40 70 40q23 0 34 -17q8 -12 11 -30l21 -115q2 -15 19 -15q13 0 51 21q32 17 47 28q11 6 15 6q9 0 9 -10z" />
    <glyph glyph-name="igrave" unicode="&#x43c;" horiz-adv-x="785" 
d="M785 133q0 -5 -19 -21q-5 -4 -53 -42l-76 -60q-30 -22 -53 -22q-19 0 -29 13q-5 7 -9 24l-21 102q-5 22 -8 29q-7 16 -19 16t-30 -13q-6 -5 -29 -26l-130 -119q-9 -9 -19.5 -17.5t-25.5 -8.5q-29 0 -29 32q0 7 3 14.5l5 12.5l37 98q8 20 8 28q0 23 -14 23q-18 0 -52 -33
q-16 -15 -52 -57q-56 -63 -75 -81q-36 -34 -57 -34q-15 0 -26.5 18t-11.5 47q0 44 23.5 76.5t52.5 32.5q16 0 24 -8t8 -20q0 -20 -11 -31t-11 -18l6 -7q11 0 30 15t73 68q74 73 120 104q35 24 55 24q15 0 28 -9.5t13 -32.5q0 -11 -5 -26l-24 -67q-7 -19 -7 -22q0 -10 7 -17
q6 0 28 19q71 64 98 88q45 40 70 40q23 0 34 -17q8 -12 11 -30l21 -115q2 -15 19 -15q13 0 51 21q32 17 47 28q11 6 15 6q9 0 9 -10z" />
    <glyph glyph-name="iacute" unicode="&#xed;" horiz-adv-x="516" 
d="M516 133q0 -2 -7 -10t-10 -10l-79 -64q-28 -23 -55 -45q-24 -17 -44 -17q-27 0 -42 25.5t-15 70.5q0 3 -0.5 6t-1.5 6q-34 -17 -73.5 -30t-78.5 -13q-17 0 -22 -3t-14 -23q-5 -11 -14 -20q-13 -13 -29 -13q-20 0 -25.5 35.5t-5.5 77.5q0 54 24 94q35 59 120 94q15 6 27 6
q22 0 22 -17q0 -8 -23 -45q-16 -26 -26.5 -51.5t-14 -38.5t-3.5 -18q0 -13 12 -13q15 0 39.5 6t73.5 28q35 16 50 31q11 11 11 24q0 5 -2 13t-2 12q0 12 15 20q20 11 73 23q9 1 19.5 3t14.5 2q15 0 15 -13q0 -50 -35.5 -81.5t-35.5 -67.5q0 -16 6.5 -22t14.5 -6q11 0 30 9
t66 38q8 6 16 6q9 0 9 -9z" />
    <glyph glyph-name="iacute" unicode="&#x43d;" horiz-adv-x="516" 
d="M516 133q0 -2 -7 -10t-10 -10l-79 -64q-28 -23 -55 -45q-24 -17 -44 -17q-27 0 -42 25.5t-15 70.5q0 3 -0.5 6t-1.5 6q-34 -17 -73.5 -30t-78.5 -13q-17 0 -22 -3t-14 -23q-5 -11 -14 -20q-13 -13 -29 -13q-20 0 -25.5 35.5t-5.5 77.5q0 54 24 94q35 59 120 94q15 6 27 6
q22 0 22 -17q0 -8 -23 -45q-16 -26 -26.5 -51.5t-14 -38.5t-3.5 -18q0 -13 12 -13q15 0 39.5 6t73.5 28q35 16 50 31q11 11 11 24q0 5 -2 13t-2 12q0 12 15 20q20 11 73 23q9 1 19.5 3t14.5 2q15 0 15 -13q0 -50 -35.5 -81.5t-35.5 -67.5q0 -16 6.5 -22t14.5 -6q11 0 30 9
t66 38q8 6 16 6q9 0 9 -9z" />
    <glyph glyph-name="icircumflex" unicode="&#xee;" horiz-adv-x="423" 
d="M433 227q0 -12 -21 -30q-26 -22 -66 -30q-12 -81 -83 -140t-145 -59q-55 0 -86.5 30.5t-31.5 79.5q0 79 84 148q70 57 135 66q8 1 15 -7q0 -41 -63.5 -53t-63.5 -75q0 -31 29.5 -56t73.5 -25q43 0 73 25t41 65q-16 -4 -51 -4q-26 0 -39.5 9.5t-13.5 26.5q0 25 14 58.5
t29 33.5q9 0 16 -4q2 -1 25 -21t31 -25q26 -18 57 -18q23 0 30 1.5t11 3.5z" />
    <glyph glyph-name="icircumflex" unicode="&#x43e;" horiz-adv-x="423" 
d="M433 227q0 -12 -21 -30q-26 -22 -66 -30q-12 -81 -83 -140t-145 -59q-55 0 -86.5 30.5t-31.5 79.5q0 79 84 148q70 57 135 66q8 1 15 -7q0 -41 -63.5 -53t-63.5 -75q0 -31 29.5 -56t73.5 -25q43 0 73 25t41 65q-16 -4 -51 -4q-26 0 -39.5 9.5t-13.5 26.5q0 25 14 58.5
t29 33.5q9 0 16 -4q2 -1 25 -21t31 -25q26 -18 57 -18q23 0 30 1.5t11 3.5z" />
    <glyph glyph-name="idieresis" unicode="&#xef;" horiz-adv-x="540" 
d="M533 123l-135 -108q-17 -14 -26 -19q-16 -9 -32 -9q-12 0 -19 3q-15 7 -18 25l-21 112q-5 25 -13 35.5t-16 10.5q-7 0 -25.5 -14.5t-73.5 -64.5q-39 -36 -77 -71q-34 -30 -52 -30q-25 0 -25 61q0 76 15.5 120t49.5 68l44 32q13 9 29.5 17.5t27.5 8.5q29 0 29 -17
q0 -12 -45 -80q-22 -33 -22 -68v-7q1 -11 11 -11q7 0 19 11q25 25 50 49q41 40 75 64t52 24q21 0 32 -16q6 -9 11 -31l22 -111q2 -9 6 -14t15 -5q20 0 40 16q47 38 70 38q9 0 9 -8q0 -5 -7 -11z" />
    <glyph glyph-name="idieresis" unicode="&#x43f;" horiz-adv-x="540" 
d="M533 123l-135 -108q-17 -14 -26 -19q-16 -9 -32 -9q-12 0 -19 3q-15 7 -18 25l-21 112q-5 25 -13 35.5t-16 10.5q-7 0 -25.5 -14.5t-73.5 -64.5q-39 -36 -77 -71q-34 -30 -52 -30q-25 0 -25 61q0 76 15.5 120t49.5 68l44 32q13 9 29.5 17.5t27.5 8.5q29 0 29 -17
q0 -12 -45 -80q-22 -33 -22 -68v-7q1 -11 11 -11q7 0 19 11q25 25 50 49q41 40 75 64t52 24q21 0 32 -16q6 -9 11 -31l22 -111q2 -9 6 -14t15 -5q20 0 40 16q47 38 70 38q9 0 9 -8q0 -5 -7 -11z" />
    <glyph glyph-name="eth" unicode="&#xf0;" horiz-adv-x="538" 
d="M508 232q0 -87 -99 -172q-89 -76 -150 -76q-21 0 -28 19q-2 8 -2 12t3.5 20.5t7.5 23.5q9 15 28 15t41.5 -9.5t30.5 -9.5q24 0 44 26t20 65q0 24 -11 39q-14 19 -36 19q-78 0 -143 -140q-19 -41 -58 -161q-35 -108 -56 -149q-33 -66 -72 -66q-16 0 -28 11q-17 15 -17 44
q0 34 18 75q31 72 120 184l3 118q0 25 -5 38q-9 24 -35 24q-14 0 -46 -19q-1 -1 -12 -7.5t-16 -6.5q-2 1 -5 2t-4 4q-3 8 9 16l124 103q13 10 27 15.5t26 5.5q13 0 18.5 -13t5.5 -28q0 -40 -8 -83t-36 -134l51 80q41 64 65 95q75 96 148 96q33 0 53 -16q24 -20 24 -60z" />
    <glyph glyph-name="eth" unicode="&#x440;" horiz-adv-x="538" 
d="M508 232q0 -87 -99 -172q-89 -76 -150 -76q-21 0 -28 19q-2 8 -2 12t3.5 20.5t7.5 23.5q9 15 28 15t41.5 -9.5t30.5 -9.5q24 0 44 26t20 65q0 24 -11 39q-14 19 -36 19q-78 0 -143 -140q-19 -41 -58 -161q-35 -108 -56 -149q-33 -66 -72 -66q-16 0 -28 11q-17 15 -17 44
q0 34 18 75q31 72 120 184l3 118q0 25 -5 38q-9 24 -35 24q-14 0 -46 -19q-1 -1 -12 -7.5t-16 -6.5q-2 1 -5 2t-4 4q-3 8 9 16l124 103q13 10 27 15.5t26 5.5q13 0 18.5 -13t5.5 -28q0 -40 -8 -83t-36 -134l51 80q41 64 65 95q75 96 148 96q33 0 53 -16q24 -20 24 -60z" />
    <glyph glyph-name="ntilde" unicode="&#xf1;" horiz-adv-x="363" 
d="M363 131q0 -32 -107.5 -92t-150.5 -60q-46 0 -75.5 34.5t-29.5 82.5q0 76 102 140q94 59 186 59q26 0 36 -10.5t10 -27.5q0 -14 -12 -23t-32 -9q-55 0 -69 14q-7 7 -26 7q-33 0 -58 -28t-25 -62q0 -31 17 -53q21 -27 61 -27q30 0 72 18q24 10 48 25q38 21 45 21q6 0 8 -9
z" />
    <glyph glyph-name="ntilde" unicode="&#x441;" horiz-adv-x="363" 
d="M363 131q0 -32 -107.5 -92t-150.5 -60q-46 0 -75.5 34.5t-29.5 82.5q0 76 102 140q94 59 186 59q26 0 36 -10.5t10 -27.5q0 -14 -12 -23t-32 -9q-55 0 -69 14q-7 7 -26 7q-33 0 -58 -28t-25 -62q0 -31 17 -53q21 -27 61 -27q30 0 72 18q24 10 48 25q38 21 45 21q6 0 8 -9
z" />
    <glyph glyph-name="ograve" unicode="&#xf2;" horiz-adv-x="798" 
d="M798 132q0 -9 -44 -44q-12 -10 -96 -73q-23 -17 -27 -19q-15 -9 -30 -9q-20 0 -32 16t-19 50l-12 74q-7 45 -31 45q-12 0 -99 -81q-35 -34 -72.5 -68t-57.5 -34q-9 0 -16 4q-13 8 -13 27q0 5 2 12.5t5 14.5l38 98q6 15 6 27q0 11 -3.5 17t-14.5 6q-19 0 -110 -83
q-131 -120 -143 -120q-16 0 -22.5 16.5t-6.5 42.5q0 84 23 132q20 41 69 78q30 23 52.5 31.5t37.5 8.5q12 0 12 -13q0 -6 -3.5 -15t-5.5 -14l-37 -73q-12 -22 -14 -28q-6 -15 -6 -28q0 -6 2 -8.5t8 -4.5q7 0 24 16q35 32 51 46q75 64 116 91q34 22 54 22q42 0 42 -42
q0 -13 -6 -31t-21 -55q-10 -25 -10 -33q0 -13 7 -13t16 9l120 106q23 20 35 26t26 6q30 0 41 -29q6 -15 9.5 -58t5.5 -53q7 -36 28 -36q18 0 65 26.5t48 26.5q9 0 9 -10z" />
    <glyph glyph-name="ograve" unicode="&#x442;" horiz-adv-x="798" 
d="M798 132q0 -9 -44 -44q-12 -10 -96 -73q-23 -17 -27 -19q-15 -9 -30 -9q-20 0 -32 16t-19 50l-12 74q-7 45 -31 45q-12 0 -99 -81q-35 -34 -72.5 -68t-57.5 -34q-9 0 -16 4q-13 8 -13 27q0 5 2 12.5t5 14.5l38 98q6 15 6 27q0 11 -3.5 17t-14.5 6q-19 0 -110 -83
q-131 -120 -143 -120q-16 0 -22.5 16.5t-6.5 42.5q0 84 23 132q20 41 69 78q30 23 52.5 31.5t37.5 8.5q12 0 12 -13q0 -6 -3.5 -15t-5.5 -14l-37 -73q-12 -22 -14 -28q-6 -15 -6 -28q0 -6 2 -8.5t8 -4.5q7 0 24 16q35 32 51 46q75 64 116 91q34 22 54 22q42 0 42 -42
q0 -13 -6 -31t-21 -55q-10 -25 -10 -33q0 -13 7 -13t16 9l120 106q23 20 35 26t26 6q30 0 41 -29q6 -15 9.5 -58t5.5 -53q7 -36 28 -36q18 0 65 26.5t48 26.5q9 0 9 -10z" />
    <glyph glyph-name="oacute" unicode="&#xf3;" horiz-adv-x="505" 
d="M505 139q0 -3 -3 -6.5t-8 -7.5l-212 -165q-92 -157 -152 -221q-47 -50 -83 -50q-18 0 -29 7q-18 11 -18 36q0 52 78.5 130.5t202.5 158.5q5 14 9 27.5t4 26.5q0 34 -8 46t-19 12q-14 0 -85 -65q-41 -39 -66.5 -53.5t-45.5 -14.5q-28 0 -47 21q-22 24 -22 66q0 32 15 63
q11 22 34 52q78 101 114 101q31 0 31 -32q0 -14 -44 -55t-44 -57q0 -17 15 -34t39 -17q23 0 42.5 11.5t43.5 34.5q65 69 92 97q46 48 66 48q15 0 25 -12q7 -9 7 -22q0 -33 -34 -103q-27 -55 -58 -103q68 41 136 83q11 6 15 6q9 0 9 -9z" />
    <glyph glyph-name="oacute" unicode="&#x443;" horiz-adv-x="505" 
d="M505 139q0 -3 -3 -6.5t-8 -7.5l-212 -165q-92 -157 -152 -221q-47 -50 -83 -50q-18 0 -29 7q-18 11 -18 36q0 52 78.5 130.5t202.5 158.5q5 14 9 27.5t4 26.5q0 34 -8 46t-19 12q-14 0 -85 -65q-41 -39 -66.5 -53.5t-45.5 -14.5q-28 0 -47 21q-22 24 -22 66q0 32 15 63
q11 22 34 52q78 101 114 101q31 0 31 -32q0 -14 -44 -55t-44 -57q0 -17 15 -34t39 -17q23 0 42.5 11.5t43.5 34.5q65 69 92 97q46 48 66 48q15 0 25 -12q7 -9 7 -22q0 -33 -34 -103q-27 -55 -58 -103q68 41 136 83q11 6 15 6q9 0 9 -9z" />
    <glyph glyph-name="ocircumflex" unicode="&#xf4;" horiz-adv-x="673" 
d="M673 129q0 -66 -78 -117q-67 -44 -169 -44q-46 0 -64 10.5t-18 27.5q0 20 15 40t36 20q11 0 23 -5q30 -12 41 -12q26 0 44 31t18 69q0 28 -15 39.5t-31 11.5q-26 0 -62.5 -31.5t-102.5 -110.5q-39 -126 -86 -224q-53 -110 -85 -110q-13 0 -25 23.5t-12 57.5q0 35 24 74
q5 7 92 110l71 84q10 20 19.5 43.5t15.5 47.5q-62 -75 -131 -119.5t-124 -44.5q-32 0 -50.5 21t-18.5 50q0 82 95.5 150t208.5 68q17 0 17 -11t-27.5 -14.5t-29.5 -3.5q-51 -13 -83.5 -45t-32.5 -67q0 -15 10.5 -28t34.5 -13q118 0 132 122t62 122q11 0 11 -21
q0 -23 -16 -75.5t-53 -140.5q91 106 143 143q43 31 87 31q61 0 61 -79q0 -51 -51 -108q-8 -9 -62 -62l29 -3q73 0 93 51.5t38 51.5q6 -6 6 -10z" />
    <glyph glyph-name="ocircumflex" unicode="&#x444;" horiz-adv-x="673" 
d="M673 129q0 -66 -78 -117q-67 -44 -169 -44q-46 0 -64 10.5t-18 27.5q0 20 15 40t36 20q11 0 23 -5q30 -12 41 -12q26 0 44 31t18 69q0 28 -15 39.5t-31 11.5q-26 0 -62.5 -31.5t-102.5 -110.5q-39 -126 -86 -224q-53 -110 -85 -110q-13 0 -25 23.5t-12 57.5q0 35 24 74
q5 7 92 110l71 84q10 20 19.5 43.5t15.5 47.5q-62 -75 -131 -119.5t-124 -44.5q-32 0 -50.5 21t-18.5 50q0 82 95.5 150t208.5 68q17 0 17 -11t-27.5 -14.5t-29.5 -3.5q-51 -13 -83.5 -45t-32.5 -67q0 -15 10.5 -28t34.5 -13q118 0 132 122t62 122q11 0 11 -21
q0 -23 -16 -75.5t-53 -140.5q91 106 143 143q43 31 87 31q61 0 61 -79q0 -51 -51 -108q-8 -9 -62 -62l29 -3q73 0 93 51.5t38 51.5q6 -6 6 -10z" />
    <glyph glyph-name="otilde" unicode="&#xf5;" horiz-adv-x="419" 
d="M419 128q0 -27 -83.5 -87t-130.5 -60q-27 0 -41 17.5t-22 59.5l-9 50l-85 -105q-9 -11 -16.5 -18t-14.5 -7t-12 9.5t-5 18.5q0 22 23 42q53 41 110 85l-12 66q-3 16 -5 20q-6 13 -18 13q-8 0 -20.5 -9.5t-33.5 -28t-28 -18.5q-9 3 -10 7q-3 7 12 20l105 93q20 18 42 18
q20 0 37 -11.5t20 -35.5l8 -55l87 81q13 13 24.5 20.5t17.5 7.5q20 0 20 -13q0 -17 -1 -22.5t-6 -12.5q-64 -35 -92 -52.5t-48 -36.5q6 -56 12 -76q13 -41 40 -41q17 0 83 43q7 4 23 16t21 12q8 0 8 -10z" />
    <glyph glyph-name="otilde" unicode="&#x445;" horiz-adv-x="419" 
d="M419 128q0 -27 -83.5 -87t-130.5 -60q-27 0 -41 17.5t-22 59.5l-9 50l-85 -105q-9 -11 -16.5 -18t-14.5 -7t-12 9.5t-5 18.5q0 22 23 42q53 41 110 85l-12 66q-3 16 -5 20q-6 13 -18 13q-8 0 -20.5 -9.5t-33.5 -28t-28 -18.5q-9 3 -10 7q-3 7 12 20l105 93q20 18 42 18
q20 0 37 -11.5t20 -35.5l8 -55l87 81q13 13 24.5 20.5t17.5 7.5q20 0 20 -13q0 -17 -1 -22.5t-6 -12.5q-64 -35 -92 -52.5t-48 -36.5q6 -56 12 -76q13 -41 40 -41q17 0 83 43q7 4 23 16t21 12q8 0 8 -10z" />
    <glyph glyph-name="odieresis" unicode="&#xf6;" horiz-adv-x="526" 
d="M496 81q-11 -121 -88 -204q-71 -76 -154 -76q-28 0 -45 16t-17 38q0 24 12.5 46t37.5 22q21 0 42 -7t21 -14q0 -14 -11.5 -19t-11.5 -19q0 -15 13 -15q29 0 62 43q39 51 39 116q-15 -15 -33 -23.5t-37 -8.5q-34 0 -55 32t-21 70q-53 -61 -100 -87q-35 -20 -66 -20
q-33 0 -57 26q-27 29 -27 76q0 53 61 137t97 84q14 0 28 -12t14 -27q0 -20 -23 -43q-11 -11 -26 -21q-20 -15 -40 -29q-18 -15 -18 -32q0 -16 23.5 -31.5t64.5 -15.5q24 0 41.5 8t40 30t81.5 101q38 51 65 51q14 0 28 -10t14 -23q0 -14 -12.5 -31t-32 -35t-26.5 -24
q-20 -18 -20 -29q0 -18 17.5 -31t43.5 -13q15 0 31.5 7.5t34.5 16.5q9 0 9 -20z" />
    <glyph glyph-name="odieresis" unicode="&#x446;" horiz-adv-x="526" 
d="M496 81q-11 -121 -88 -204q-71 -76 -154 -76q-28 0 -45 16t-17 38q0 24 12.5 46t37.5 22q21 0 42 -7t21 -14q0 -14 -11.5 -19t-11.5 -19q0 -15 13 -15q29 0 62 43q39 51 39 116q-15 -15 -33 -23.5t-37 -8.5q-34 0 -55 32t-21 70q-53 -61 -100 -87q-35 -20 -66 -20
q-33 0 -57 26q-27 29 -27 76q0 53 61 137t97 84q14 0 28 -12t14 -27q0 -20 -23 -43q-11 -11 -26 -21q-20 -15 -40 -29q-18 -15 -18 -32q0 -16 23.5 -31.5t64.5 -15.5q24 0 41.5 8t40 30t81.5 101q38 51 65 51q14 0 28 -10t14 -23q0 -14 -12.5 -31t-32 -35t-26.5 -24
q-20 -18 -20 -29q0 -18 17.5 -31t43.5 -13q15 0 31.5 7.5t34.5 16.5q9 0 9 -20z" />
    <glyph glyph-name="divide" unicode="&#xf7;" horiz-adv-x="369" 
d="M369 117q0 -8 -35 -42q-42 -39 -76 -63q-56 -39 -92 -39q-33 0 -59 25t-26 62q0 42 43 84q31 28 47 42t16 22t-28.5 13t-68.5 5l-66 -46q-11 -7 -17 -7q-7 5 -7 7q0 8 7 13l46 43q-7 7 -7 11q0 9 27 35l56 50q17 15 39 15l6 -4q3 -5 0 -11q-8 -11 -15 -21q0 -10 36 -10
l48 1q29 0 38 -4.5t9 -15.5v-12q0 -24 -11 -32q-21 -14 -43.5 -28.5t-41.5 -32.5q-28 -26 -28 -44q0 -24 27 -46t63 -22q18 0 40 12.5t51 38.5q8 8 15 8t7 -7z" />
    <glyph glyph-name="divide" unicode="&#x447;" horiz-adv-x="369" 
d="M369 117q0 -8 -35 -42q-42 -39 -76 -63q-56 -39 -92 -39q-33 0 -59 25t-26 62q0 42 43 84q31 28 47 42t16 22t-28.5 13t-68.5 5l-66 -46q-11 -7 -17 -7q-7 5 -7 7q0 8 7 13l46 43q-7 7 -7 11q0 9 27 35l56 50q17 15 39 15l6 -4q3 -5 0 -11q-8 -11 -15 -21q0 -10 36 -10
l48 1q29 0 38 -4.5t9 -15.5v-12q0 -24 -11 -32q-21 -14 -43.5 -28.5t-41.5 -32.5q-28 -26 -28 -44q0 -24 27 -46t63 -22q18 0 40 12.5t51 38.5q8 8 15 8t7 -7z" />
    <glyph glyph-name="oslash" unicode="&#xf8;" horiz-adv-x="756" 
d="M756 136q-1 -4 -2 -6q-4 -6 -17 -18l-75 -65q-42 -36 -77 -53q-27 -13 -46 -13q-33 0 -54 31q-16 24 -22 61q-30 -38 -63 -64q-44 -34 -82 -34q-32 0 -58 28t-26 74q-42 -56 -86 -81q-32 -18 -64 -18q-31 0 -55 25q-29 30 -29 79q0 55 61.5 139.5t97.5 84.5
q14 0 28.5 -12t14.5 -27q0 -13 -13 -30.5t-32.5 -31.5t-41.5 -30.5t-22 -34.5q0 -20 22 -36.5t56 -16.5q31 0 62 32q14 15 38 52q46 70 54 80q32 41 55 41q17 0 32.5 -12.5t15.5 -26.5q0 -17 -19 -37q-8 -8 -34 -28t-37 -35q-7 -9 -7 -16q0 -18 25 -32.5t60 -14.5
q33 0 64 34q2 2 49 66l44 60q12 17 19 22q13 10 31 10q13 0 27.5 -11t14.5 -22q0 -22 -31 -54q-21 -20 -42 -41.5t-21 -33.5q0 -11 20.5 -24t40.5 -13q18 0 61 28q25 16 34 23q14 11 18 11q11 0 11 -9z" />
    <glyph glyph-name="oslash" unicode="&#x448;" horiz-adv-x="756" 
d="M756 136q-1 -4 -2 -6q-4 -6 -17 -18l-75 -65q-42 -36 -77 -53q-27 -13 -46 -13q-33 0 -54 31q-16 24 -22 61q-30 -38 -63 -64q-44 -34 -82 -34q-32 0 -58 28t-26 74q-42 -56 -86 -81q-32 -18 -64 -18q-31 0 -55 25q-29 30 -29 79q0 55 61.5 139.5t97.5 84.5
q14 0 28.5 -12t14.5 -27q0 -13 -13 -30.5t-32.5 -31.5t-41.5 -30.5t-22 -34.5q0 -20 22 -36.5t56 -16.5q31 0 62 32q14 15 38 52q46 70 54 80q32 41 55 41q17 0 32.5 -12.5t15.5 -26.5q0 -17 -19 -37q-8 -8 -34 -28t-37 -35q-7 -9 -7 -16q0 -18 25 -32.5t60 -14.5
q33 0 64 34q2 2 49 66l44 60q12 17 19 22q13 10 31 10q13 0 27.5 -11t14.5 -22q0 -22 -31 -54q-21 -20 -42 -41.5t-21 -33.5q0 -11 20.5 -24t40.5 -13q18 0 61 28q25 16 34 23q14 11 18 11q11 0 11 -9z" />
    <glyph glyph-name="ugrave" unicode="&#xf9;" horiz-adv-x="739" 
d="M709 85q-19 -152 -106 -228q-64 -56 -135 -56q-28 0 -45 16t-17 38q0 24 12.5 46t37.5 22q21 0 42 -7t21 -14q0 -14 -11.5 -19t-11.5 -19q0 -15 13 -15q27 0 61 39q41 47 41 105q-1 11 -1 16q-33 -28 -71 -28q-30 0 -49 25t-31 70q-24 -35 -52 -60q-46 -41 -89 -41
q-32 0 -58 28t-26 74q-42 -56 -86 -81q-32 -18 -64 -18q-31 0 -55 25q-29 30 -29 79q0 46 59.5 135t99.5 89q14 0 28.5 -12t14.5 -27q0 -13 -13 -30.5t-32.5 -31.5t-41.5 -30.5t-22 -34.5q0 -21 21.5 -37.5t50.5 -16.5q31 0 63 31q21 20 43 54q46 70 54 80q32 41 55 41
q17 0 32.5 -12.5t15.5 -26.5q0 -17 -19 -37q-8 -8 -34 -28t-37 -35q-7 -9 -7 -16q0 -18 25 -32.5t60 -14.5q33 0 64 34q2 2 49 66l44 60q12 17 19 22q13 10 31 10q13 0 27.5 -11t14.5 -22q0 -22 -31 -54q-25 -25 -49 -50q-14 -16 -14 -25q0 -11 20.5 -25t43.5 -14
q15 0 32.5 7.5t35.5 16.5q7 0 7 -11q0 -5 -1 -9z" />
    <glyph glyph-name="ugrave" unicode="&#x449;" horiz-adv-x="739" 
d="M709 85q-19 -152 -106 -228q-64 -56 -135 -56q-28 0 -45 16t-17 38q0 24 12.5 46t37.5 22q21 0 42 -7t21 -14q0 -14 -11.5 -19t-11.5 -19q0 -15 13 -15q27 0 61 39q41 47 41 105q-1 11 -1 16q-33 -28 -71 -28q-30 0 -49 25t-31 70q-24 -35 -52 -60q-46 -41 -89 -41
q-32 0 -58 28t-26 74q-42 -56 -86 -81q-32 -18 -64 -18q-31 0 -55 25q-29 30 -29 79q0 46 59.5 135t99.5 89q14 0 28.5 -12t14.5 -27q0 -13 -13 -30.5t-32.5 -31.5t-41.5 -30.5t-22 -34.5q0 -21 21.5 -37.5t50.5 -16.5q31 0 63 31q21 20 43 54q46 70 54 80q32 41 55 41
q17 0 32.5 -12.5t15.5 -26.5q0 -17 -19 -37q-8 -8 -34 -28t-37 -35q-7 -9 -7 -16q0 -18 25 -32.5t60 -14.5q33 0 64 34q2 2 49 66l44 60q12 17 19 22q13 10 31 10q13 0 27.5 -11t14.5 -22q0 -22 -31 -54q-25 -25 -49 -50q-14 -16 -14 -25q0 -11 20.5 -25t43.5 -14
q15 0 32.5 7.5t35.5 16.5q7 0 7 -11q0 -5 -1 -9z" />
    <glyph glyph-name="uacute" unicode="&#xfa;" horiz-adv-x="398" 
d="M398 131q0 -10 -21 -24.5t-47 -14.5q-23 -51 -65.5 -85.5t-91.5 -34.5q-43 0 -68 27.5t-25 62.5q0 26 18 52q12 17 72 71q17 15 17 23t-28.5 13t-68.5 5l-66 -46q-11 -7 -17 -7q-7 5 -7 7q0 8 7 13l46 43q-6 5 -6 11q0 8 8 18.5t31 29.5l43 37q9 7 19.5 11t19.5 4l6 -4
q3 -5 0 -11q-8 -11 -15 -21q0 -10 36 -10l48 1q29 0 38 -4.5t9 -15.5v-12q0 -23 -5 -28q-20 -12 -46 -31q-73 -52 -73 -78t26.5 -46.5t57.5 -20.5q13 0 28.5 6.5t28.5 20.5q-24 3 -37 21.5t-13 39.5q0 15 12 24t31 9q11 0 22 -9q15 -13 18 -39v-18q9 0 14 1t15 7
q17 10 22 10q3 0 6 -5q0 -2 1 -3z" />
    <glyph glyph-name="uacute" unicode="&#x44a;" horiz-adv-x="398" 
d="M398 131q0 -10 -21 -24.5t-47 -14.5q-23 -51 -65.5 -85.5t-91.5 -34.5q-43 0 -68 27.5t-25 62.5q0 26 18 52q12 17 72 71q17 15 17 23t-28.5 13t-68.5 5l-66 -46q-11 -7 -17 -7q-7 5 -7 7q0 8 7 13l46 43q-6 5 -6 11q0 8 8 18.5t31 29.5l43 37q9 7 19.5 11t19.5 4l6 -4
q3 -5 0 -11q-8 -11 -15 -21q0 -10 36 -10l48 1q29 0 38 -4.5t9 -15.5v-12q0 -23 -5 -28q-20 -12 -46 -31q-73 -52 -73 -78t26.5 -46.5t57.5 -20.5q13 0 28.5 6.5t28.5 20.5q-24 3 -37 21.5t-13 39.5q0 15 12 24t31 9q11 0 22 -9q15 -13 18 -39v-18q9 0 14 1t15 7
q17 10 22 10q3 0 6 -5q0 -2 1 -3z" />
    <glyph glyph-name="ucircumflex" unicode="&#xfb;" horiz-adv-x="545" 
d="M545 107q0 -6 -6.5 -12t-9.5 -9l-35 -32q-48 -45 -86 -65q-26 -14 -42 -14q-36 0 -54.5 26t-18.5 60q0 36 17 70q-27 -15 -55 -15q-15 -58 -62.5 -101t-102.5 -43q-41 0 -65.5 27.5t-24.5 72.5q0 72 61.5 154.5t108.5 82.5q12 0 18.5 -10t6.5 -42q0 -17 -7 -24.5
t-25 -17.5q-37 -20 -51 -30q-33 -24 -33 -47q0 -26 28 -49t60 -23q14 0 28 5t29 22q-24 3 -37 21.5t-13 39.5q0 14 12.5 23.5t30.5 9.5q13 0 24.5 -12t14.5 -30q19 0 37 5t32 21q31 65 54 94q17 22 28 22q19 0 31 -12t12 -28q0 -13 -10 -26q-19 -23 -37 -45q-21 -30 -21 -51
q0 -18 21.5 -31.5t51.5 -13.5q12 0 30 7.5t38 22.5q4 3 7.5 3.5t5.5 1.5q9 0 9 -8z" />
    <glyph glyph-name="ucircumflex" unicode="&#x44b;" horiz-adv-x="545" 
d="M545 107q0 -6 -6.5 -12t-9.5 -9l-35 -32q-48 -45 -86 -65q-26 -14 -42 -14q-36 0 -54.5 26t-18.5 60q0 36 17 70q-27 -15 -55 -15q-15 -58 -62.5 -101t-102.5 -43q-41 0 -65.5 27.5t-24.5 72.5q0 72 61.5 154.5t108.5 82.5q12 0 18.5 -10t6.5 -42q0 -17 -7 -24.5
t-25 -17.5q-37 -20 -51 -30q-33 -24 -33 -47q0 -26 28 -49t60 -23q14 0 28 5t29 22q-24 3 -37 21.5t-13 39.5q0 14 12.5 23.5t30.5 9.5q13 0 24.5 -12t14.5 -30q19 0 37 5t32 21q31 65 54 94q17 22 28 22q19 0 31 -12t12 -28q0 -13 -10 -26q-19 -23 -37 -45q-21 -30 -21 -51
q0 -18 21.5 -31.5t51.5 -13.5q12 0 30 7.5t38 22.5q4 3 7.5 3.5t5.5 1.5q9 0 9 -8z" />
    <glyph glyph-name="udieresis" unicode="&#xfc;" horiz-adv-x="315" 
d="M315 131q0 -10 -21 -24.5t-47 -14.5q-21 -47 -57 -79q-46 -41 -100 -41q-42 0 -66 27t-24 73q0 66 60.5 151.5t109.5 85.5q12 0 18.5 -10t6.5 -42q0 -17 -7 -24.5t-25 -17.5q-39 -22 -50 -30q-34 -25 -34 -47q0 -26 28 -49t60 -23q14 0 28 5t29 22q-21 3 -35.5 17.5
t-14.5 36.5q0 16 11 28t32 12q16 0 28 -13t12 -35l-1 -18q15 0 31 9t21 9q3 0 6 -5q0 -2 1 -3z" />
    <glyph glyph-name="udieresis" unicode="&#x44c;" horiz-adv-x="315" 
d="M315 131q0 -10 -21 -24.5t-47 -14.5q-21 -47 -57 -79q-46 -41 -100 -41q-42 0 -66 27t-24 73q0 66 60.5 151.5t109.5 85.5q12 0 18.5 -10t6.5 -42q0 -17 -7 -24.5t-25 -17.5q-39 -22 -50 -30q-34 -25 -34 -47q0 -26 28 -49t60 -23q14 0 28 5t29 22q-21 3 -35.5 17.5
t-14.5 36.5q0 16 11 28t32 12q16 0 28 -13t12 -35l-1 -18q15 0 31 9t21 9q3 0 6 -5q0 -2 1 -3z" />
    <glyph glyph-name="yacute" unicode="&#xfd;" horiz-adv-x="421" 
d="M421 190q-2 -9 -22 -21.5t-42 -18.5v-33q-7 -58 -56.5 -97.5t-107.5 -39.5q-63 0 -131 45q-62 41 -62 66q5 7 7 7q8 1 19 -10q16 -15 39.5 -25t45.5 -10q32 0 74 21q48 24 75 61q-15 -5 -27 -6t-33 -1q-25 0 -47.5 6.5t-22.5 18.5q0 6 6 12l18 18q7 7 11 7q11 -6 34 -11
t53 -5l29 1l3 21q0 33 -26 57t-67 24q-12 -25 -25.5 -33.5t-40.5 -8.5q-29 0 -40 9t-11 25q0 17 17 27q22 13 64 13q74 0 126 -34t69 -94q25 0 33 9t32 9q6 -2 6 -4v-5z" />
    <glyph glyph-name="yacute" unicode="&#x44d;" horiz-adv-x="421" 
d="M421 190q-2 -9 -22 -21.5t-42 -18.5v-33q-7 -58 -56.5 -97.5t-107.5 -39.5q-63 0 -131 45q-62 41 -62 66q5 7 7 7q8 1 19 -10q16 -15 39.5 -25t45.5 -10q32 0 74 21q48 24 75 61q-15 -5 -27 -6t-33 -1q-25 0 -47.5 6.5t-22.5 18.5q0 6 6 12l18 18q7 7 11 7q11 -6 34 -11
t53 -5l29 1l3 21q0 33 -26 57t-67 24q-12 -25 -25.5 -33.5t-40.5 -8.5q-29 0 -40 9t-11 25q0 17 17 27q22 13 64 13q74 0 126 -34t69 -94q25 0 33 9t32 9q6 -2 6 -4v-5z" />
    <glyph glyph-name="thorn" unicode="&#xfe;" horiz-adv-x="609" 
d="M619 220q-4 -13 -30 -29.5t-56 -23.5q-15 -81 -81.5 -138.5t-147.5 -57.5q-57 0 -85 22t-28 64q0 8 -0.5 16t-0.5 16q0 6 2 20q-48 -53 -75 -75q-40 -33 -69 -33q-24 0 -36 25t-12 61q0 37 29 77q39 54 144 135q11 8 26 8q16 0 16 -12q0 -6 -5 -14q-34 -38 -53 -62
q-37 -45 -37 -76q0 -26 19 -26q25 0 75 51q37 39 56 55q31 26 70 45q8 4 22 10q33 14 43 14q8 0 15 -7q0 -47 -63.5 -56t-63.5 -72q0 -32 29.5 -56.5t73.5 -24.5q41 0 72 25.5t42 64.5q-17 -4 -39 -4q-28 0 -42 5q-23 8 -23 31q0 28 14.5 60t29.5 32q9 0 14.5 -3t15.5 -12
q30 -28 47 -38q24 -15 52 -15q20 0 27.5 1.5t12.5 3.5v-7z" />
    <glyph glyph-name="thorn" unicode="&#x44e;" horiz-adv-x="609" 
d="M619 220q-4 -13 -30 -29.5t-56 -23.5q-15 -81 -81.5 -138.5t-147.5 -57.5q-57 0 -85 22t-28 64q0 8 -0.5 16t-0.5 16q0 6 2 20q-48 -53 -75 -75q-40 -33 -69 -33q-24 0 -36 25t-12 61q0 37 29 77q39 54 144 135q11 8 26 8q16 0 16 -12q0 -6 -5 -14q-34 -38 -53 -62
q-37 -45 -37 -76q0 -26 19 -26q25 0 75 51q37 39 56 55q31 26 70 45q8 4 22 10q33 14 43 14q8 0 15 -7q0 -47 -63.5 -56t-63.5 -72q0 -32 29.5 -56.5t73.5 -24.5q41 0 72 25.5t42 64.5q-17 -4 -39 -4q-28 0 -42 5q-23 8 -23 31q0 28 14.5 60t29.5 32q9 0 14.5 -3t15.5 -12
q30 -28 47 -38q24 -15 52 -15q20 0 27.5 1.5t12.5 3.5v-7z" />
    <glyph glyph-name="ydieresis" unicode="&#xff;" horiz-adv-x="527" 
d="M527 161q0 -5 -12 -19t-18 -20l-58 -65q-45 -50 -81 -72q-28 -17 -52 -17q-16 0 -28 10q-16 14 -16 39q0 21 24 68q19 37 42 70l-52 -14q-53 -82 -106 -116q-39 -25 -82 -25q-46 0 -69 25q-19 20 -19 49q0 30 22 46q17 12 38 12t21 -20q-1 -9 -1 -14l-1 -37
q0 -10 9.5 -14t21.5 -4q32 0 70 28q33 24 57 59q-22 -7 -48 -7q-28 0 -46 8q-30 14 -30 47q0 46 36 83q40 41 102 41q32 0 51.5 -14.5t19.5 -45.5q0 -39 -28 -75q47 14 69 33q11 14 23 29q5 0 12.5 -11t9.5 -19.5t2 -13.5q0 -2 -13.5 -15.5t-13.5 -61.5q0 -19 18 -19
q23 0 55.5 41.5t52.5 41.5q6 0 14 -3q2 -2 2.5 -3.5zM297 238q0 20 -9.5 27.5t-21.5 7.5q-19 0 -35 -17t-16 -40q0 -24 11.5 -38.5t35.5 -14.5q13 13 24 34t11 41z" />
    <glyph glyph-name="ydieresis" unicode="&#x44f;" horiz-adv-x="527" 
d="M527 161q0 -5 -12 -19t-18 -20l-58 -65q-45 -50 -81 -72q-28 -17 -52 -17q-16 0 -28 10q-16 14 -16 39q0 21 24 68q19 37 42 70l-52 -14q-53 -82 -106 -116q-39 -25 -82 -25q-46 0 -69 25q-19 20 -19 49q0 30 22 46q17 12 38 12t21 -20q-1 -9 -1 -14l-1 -37
q0 -10 9.5 -14t21.5 -4q32 0 70 28q33 24 57 59q-22 -7 -48 -7q-28 0 -46 8q-30 14 -30 47q0 46 36 83q40 41 102 41q32 0 51.5 -14.5t19.5 -45.5q0 -39 -28 -75q47 14 69 33q11 14 23 29q5 0 12.5 -11t9.5 -19.5t2 -13.5q0 -2 -13.5 -15.5t-13.5 -61.5q0 -19 18 -19
q23 0 55.5 41.5t52.5 41.5q6 0 14 -3q2 -2 2.5 -3.5zM297 238q0 20 -9.5 27.5t-21.5 7.5q-19 0 -35 -17t-16 -40q0 -24 11.5 -38.5t35.5 -14.5q13 13 24 34t11 41z" />
  </font>
</defs>
</svg>
