<svg width="35" height="35" viewBox="0 0 35 35" fill="none" xmlns="http://www.w3.org/2000/svg">
<path fill-rule="evenodd" clip-rule="evenodd" d="M0 17.5C0 7.83504 7.83504 0 17.5 0C27.165 0 35 7.83504 35 17.5C35 27.165 27.165 35 17.5 35C7.83504 35 0 27.165 0 17.5ZM17.5009 8.16667C14.9661 8.16667 14.6479 8.17775 13.6524 8.22303C12.6588 8.26853 11.9806 8.42589 11.3871 8.65667C10.7732 8.89503 10.2525 9.21397 9.73372 9.73292C9.21455 10.2517 8.89562 10.7724 8.65645 11.3861C8.42508 11.9798 8.26758 12.6582 8.22289 13.6514C8.17833 14.647 8.16667 14.9653 8.16667 17.5001C8.16667 20.0349 8.17797 20.3521 8.22303 21.3476C8.26875 22.3412 8.42603 23.0194 8.65667 23.6129C8.89525 24.2268 9.21411 24.7475 9.73314 25.2663C10.2517 25.7854 10.7724 26.1051 11.3859 26.3436C11.9798 26.5743 12.6582 26.7316 13.6516 26.7771C14.6472 26.8225 14.9651 26.8336 17.4997 26.8336C20.0347 26.8336 20.3518 26.8225 21.3474 26.7771C22.341 26.7316 23.02 26.5743 23.6139 26.3436C24.2276 26.1051 24.7475 25.7854 25.2661 25.2663C25.7852 24.7475 26.1042 24.2268 26.3433 23.6131C26.5728 23.0194 26.7303 22.341 26.777 21.3478C26.8217 20.3522 26.8333 20.0349 26.8333 17.5001C26.8333 14.9653 26.8217 14.6472 26.777 13.6516C26.7303 12.658 26.5728 11.9798 26.3433 11.3863C26.1042 10.7724 25.7852 10.2517 25.2661 9.73292C24.7469 9.21375 24.2277 8.89489 23.6133 8.65667C23.0183 8.42589 22.3397 8.26853 21.3461 8.22303C20.3505 8.17775 20.0336 8.16667 17.498 8.16667H17.5009Z" fill="white" fill-opacity="0.75"/>
<path fill-rule="evenodd" clip-rule="evenodd" d="M16.6635 9.84865C16.912 9.84828 17.1893 9.84865 17.5008 9.84865C19.9928 9.84865 20.2882 9.85762 21.2723 9.90231C22.1823 9.94395 22.6762 10.096 23.0052 10.2237C23.4407 10.3929 23.7513 10.5951 24.0777 10.9218C24.4044 11.2484 24.6067 11.5596 24.7762 11.9952C24.904 12.3237 25.0562 12.8177 25.0976 13.7277C25.1423 14.7115 25.1521 15.0071 25.1521 17.498C25.1521 19.9888 25.1423 20.2844 25.0976 21.2683C25.056 22.1783 24.904 22.6722 24.7762 23.0008C24.607 23.4364 24.4044 23.7465 24.0777 24.073C23.7511 24.3997 23.441 24.6019 23.0052 24.771C22.6766 24.8994 22.1823 25.051 21.2723 25.0927C20.2884 25.1374 19.9928 25.1471 17.5008 25.1471C15.0086 25.1471 14.7132 25.1374 13.7293 25.0927C12.8193 25.0507 12.3254 24.8986 11.9963 24.7708C11.5606 24.6017 11.2495 24.3995 10.9228 24.0728C10.5962 23.7461 10.394 23.4358 10.2244 23C10.0967 22.6714 9.94445 22.1775 9.90303 21.2675C9.85826 20.2836 9.84937 19.9881 9.84937 17.4956C9.84937 15.0032 9.85826 14.7092 9.90303 13.7253C9.94459 12.8153 10.0967 12.3214 10.2244 11.9924C10.3936 11.5569 10.5962 11.2457 10.9228 10.9191C11.2495 10.5924 11.5606 10.3902 11.9963 10.2206C12.3253 10.0923 12.8193 9.94059 13.7293 9.89881C14.5903 9.85995 14.924 9.84828 16.6635 9.84631V9.84865ZM22.4829 11.3983C21.8646 11.3983 21.3629 11.8995 21.3629 12.518C21.3629 13.1363 21.8646 13.638 22.4829 13.638C23.1012 13.638 23.6029 13.1363 23.6029 12.518C23.6029 11.8996 23.1012 11.3983 22.4829 11.3983ZM17.5008 12.707C14.8538 12.707 12.7077 14.8531 12.7077 17.5001C12.7077 20.1471 14.8538 22.2922 17.5008 22.2922C20.1478 22.2922 22.2931 20.1471 22.2931 17.5001C22.2931 14.8531 20.1478 12.707 17.5008 12.707Z" fill="white" fill-opacity="0.75"/>
<path fill-rule="evenodd" clip-rule="evenodd" d="M17.5008 14.3889C19.2189 14.3889 20.6119 15.7818 20.6119 17.5001C20.6119 19.2182 19.2189 20.6112 17.5008 20.6112C15.7824 20.6112 14.3896 19.2182 14.3896 17.5001C14.3896 15.7818 15.7824 14.3889 17.5008 14.3889Z" fill="white" fill-opacity="0.75"/>
</svg>
